<svg width="22" height="22" viewBox="0 0 22 22" fill="none" xmlns="http://www.w3.org/2000/svg">
<path fill-rule="evenodd" clip-rule="evenodd" d="M15.8235 8.41175C15.8235 12.5051 12.5052 15.8235 8.41176 15.8235C4.31836 15.8235 1 12.5051 1 8.41175C1 4.31836 4.31836 1 8.41176 1C12.5052 1 15.8235 4.31836 15.8235 8.41175ZM13.9958 14.7029C12.5105 16.0222 10.5547 16.8235 8.41176 16.8235C3.76607 16.8235 0 13.0574 0 8.41175C0 3.76607 3.76607 0 8.41176 0C13.0574 0 16.8235 3.76607 16.8235 8.41175C16.8235 10.5547 16.0222 12.5104 14.7029 13.9958L21.7065 20.9994C21.9018 21.1946 21.9018 21.5112 21.7065 21.7065C21.5112 21.9017 21.1946 21.9017 20.9994 21.7065L13.9958 14.7029Z" fill="black"/>
</svg>
