<svg width="16" height="22" viewBox="0 0 16 22" fill="none" xmlns="http://www.w3.org/2000/svg">
<path fill-rule="evenodd" clip-rule="evenodd" d="M2 0H13.7177C14.8223 0 15.7177 0.89543 15.7177 2V19.4118C15.7177 20.5163 14.8223 21.4118 13.7177 21.4118H2C0.895431 21.4118 0 20.5163 0 19.4118V2C0 0.895434 0.895429 0 2 0ZM2 1C1.44772 1 1 1.44772 1 2V19.4118C1 19.964 1.44772 20.4118 2 20.4118H13.7177C14.27 20.4118 14.7177 19.964 14.7177 19.4118V2C14.7177 1.44772 14.27 1 13.7177 1H2ZM1.64315 3.58824C1.64315 3.31209 1.86701 3.08824 2.14315 3.08824H5.00101C5.27715 3.08824 5.50101 3.31209 5.50101 3.58824C5.50101 3.86438 5.27715 4.08824 5.00101 4.08824H2.14315C1.86701 4.08824 1.64315 3.86438 1.64315 3.58824ZM2.14315 6.32353C1.86701 6.32353 1.64315 6.54739 1.64315 6.82353C1.64315 7.09967 1.86701 7.32353 2.14315 7.32353H5.00101C5.27715 7.32353 5.50101 7.09967 5.50101 6.82353C5.50101 6.54739 5.27715 6.32353 5.00101 6.32353H2.14315ZM1.64315 10.0588C1.64315 9.78268 1.86701 9.55882 2.14315 9.55882H5.00101C5.27715 9.55882 5.50101 9.78268 5.50101 10.0588C5.50101 10.335 5.27715 10.5588 5.00101 10.5588H2.14315C1.86701 10.5588 1.64315 10.335 1.64315 10.0588ZM2.14315 12.7941C1.86701 12.7941 1.64315 13.018 1.64315 13.2941C1.64315 13.5703 1.86701 13.7941 2.14315 13.7941H5.00101C5.27715 13.7941 5.50101 13.5703 5.50101 13.2941C5.50101 13.018 5.27715 12.7941 5.00101 12.7941H2.14315ZM1.64315 16.5294C1.64315 16.2533 1.86701 16.0294 2.14315 16.0294H5.00101C5.27715 16.0294 5.50101 16.2533 5.50101 16.5294C5.50101 16.8056 5.27715 17.0294 5.00101 17.0294H2.14315C1.86701 17.0294 1.64315 16.8056 1.64315 16.5294ZM6.71571 3.08824C6.43956 3.08824 6.21571 3.31209 6.21571 3.58824C6.21571 3.86438 6.43956 4.08824 6.71571 4.08824H13.003C13.2791 4.08824 13.503 3.86438 13.503 3.58824C13.503 3.31209 13.2791 3.08824 13.003 3.08824H6.71571ZM6.21571 6.82353C6.21571 6.54739 6.43956 6.32353 6.71571 6.32353H13.003C13.2791 6.32353 13.503 6.54739 13.503 6.82353C13.503 7.09967 13.2791 7.32353 13.003 7.32353H6.71571C6.43956 7.32353 6.21571 7.09967 6.21571 6.82353ZM6.71571 9.55882C6.43956 9.55882 6.21571 9.78268 6.21571 10.0588C6.21571 10.335 6.43956 10.5588 6.71571 10.5588H13.003C13.2791 10.5588 13.503 10.335 13.503 10.0588C13.503 9.78268 13.2791 9.55882 13.003 9.55882H6.71571ZM6.21571 13.2941C6.21571 13.018 6.43956 12.7941 6.71571 12.7941H13.003C13.2791 12.7941 13.503 13.018 13.503 13.2941C13.503 13.5703 13.2791 13.7941 13.003 13.7941H6.71571C6.43956 13.7941 6.21571 13.5703 6.21571 13.2941ZM6.71571 16.0294C6.43956 16.0294 6.21571 16.2533 6.21571 16.5294C6.21571 16.8056 6.43956 17.0294 6.71571 17.0294H13.003C13.2791 17.0294 13.503 16.8056 13.503 16.5294C13.503 16.2533 13.2791 16.0294 13.003 16.0294H6.71571Z" fill="black"/>
</svg>
