<svg width="22" height="22" viewBox="0 0 22 22" fill="none" xmlns="http://www.w3.org/2000/svg">
<path fill-rule="evenodd" clip-rule="evenodd" d="M10.9817 21.9633C17.0467 21.9633 21.9633 17.0467 21.9633 10.9817C21.9633 4.91666 17.0467 0 10.9817 0C4.91666 0 0 4.91666 0 10.9817C0 17.0467 4.91666 21.9633 10.9817 21.9633ZM20.9633 10.9817C20.9633 16.4944 16.4944 20.9633 10.9817 20.9633C5.46895 20.9633 1 16.4944 1 10.9817C1 5.46895 5.46895 1 10.9817 1C16.4944 1 20.9633 5.46895 20.9633 10.9817ZM16.3137 7.85361C16.5155 7.6652 16.5265 7.3488 16.338 7.14693C16.1496 6.94505 15.8332 6.93414 15.6314 7.12256L8.49824 13.7801L6.3444 11.6263C6.14914 11.431 5.83255 11.431 5.63729 11.6263C5.44203 11.8215 5.44203 12.1381 5.63729 12.3334L8.13271 14.8288L8.47428 15.1704L8.82742 14.8408L16.3137 7.85361Z" fill="black"/>
</svg>
