<svg width="22" height="22" viewBox="0 0 22 22" fill="none" xmlns="http://www.w3.org/2000/svg">
<path fill-rule="evenodd" clip-rule="evenodd" d="M11 22C17.0751 22 22 17.0751 22 11C22 4.92487 17.0751 0 11 0C4.92487 0 0 4.92487 0 11C0 17.0751 4.92487 22 11 22ZM21 11C21 16.5228 16.5228 21 11 21C5.47715 21 1 16.5228 1 11C1 5.47715 5.47715 1 11 1C16.5228 1 21 5.47715 21 11ZM10.5002 8.0127L10.4243 5.02726C9.06851 5.15632 7.84426 5.73657 6.90339 6.61616L9.10355 8.67535C9.49842 8.35282 9.97699 8.12892 10.5017 8.0412C10.5009 8.03177 10.5004 8.02227 10.5002 8.0127ZM11.4983 8.0412C11.9007 8.10847 12.276 8.25583 12.6071 8.46634L14.6479 6.23591C13.7421 5.5413 12.6325 5.09918 11.4243 5.01477L11.4998 7.9873C11.5003 8.00549 11.4998 8.02347 11.4983 8.0412ZM13.3503 9.13543C13.5801 9.42464 13.7576 9.75722 13.8685 10.1189C13.8978 10.1116 13.9282 10.1068 13.9595 10.1049L16.9035 9.92217C16.6943 8.76898 16.1555 7.7306 15.3883 6.90813L13.3503 9.13543ZM13.9982 11.1039C13.9826 11.5634 13.8636 11.9967 13.6638 12.3813L15.9877 14.3362C16.6271 13.3823 17 12.2347 17 11C17 10.9727 16.9998 10.9454 16.9995 10.9181L14.0214 11.1029C14.0137 11.1034 14.0059 11.1037 13.9982 11.1039ZM13.0605 13.1805C12.7206 13.5017 12.3057 13.7444 11.8449 13.8794C11.849 13.8962 11.8523 13.9133 11.8548 13.9308L12.2651 16.8664C13.4729 16.6072 14.5459 15.9843 15.3637 15.1181L13.0605 13.1805ZM10.8595 13.9968C10.4053 13.9758 9.97746 13.8539 9.59792 13.6529L7.86501 16.1168C8.77734 16.677 9.85095 17 11 17C11.0915 17 11.1826 16.9979 11.2732 16.9939L10.8644 14.0692C10.861 14.0449 10.8594 14.0207 10.8595 13.9968ZM8.8038 13.0437C8.50031 12.7177 8.26854 12.3241 8.13358 11.8879C8.11255 11.8917 8.09104 11.8942 8.06913 11.8953L5.09032 12.0429C5.33223 13.4232 6.04595 14.6412 7.0591 15.5244L8.8038 13.0437ZM8.00172 10.8974C8.01979 10.3597 8.17935 9.85792 8.44433 9.42803L6.2319 7.35735C5.45913 8.36734 5 9.63006 5 11L5.00017 11.0461L8.00172 10.8974ZM4 11C4 7.33651 6.81428 4.33033 10.3989 4.02545L10.3985 4.0127L11.3982 3.9873L11.3988 4.01117C15.0793 4.21789 18 7.26786 18 11C18 14.866 14.866 18 11 18C7.13401 18 4 14.866 4 11ZM13 11C13 12.1046 12.1046 13 11 13C9.89543 13 9 12.1046 9 11C9 9.89543 9.89543 9 11 9C12.1046 9 13 9.89543 13 11Z" fill="black"/>
</svg>
