<svg width="22" height="22" viewBox="0 0 22 22" fill="none" xmlns="http://www.w3.org/2000/svg">
<path fill-rule="evenodd" clip-rule="evenodd" d="M21.0513 15.4756C21.6611 14.1083 22 12.5937 22 11C22 9.71399 21.7793 8.47953 21.3738 7.33242L21.3827 7.32176L21.3645 7.30648C20.3558 4.47614 18.2207 2.18042 15.4987 0.959012L15.4963 0.939046L15.4631 0.943116C14.0991 0.336882 12.5889 0 11 0C6.52794 0 2.67919 2.66869 0.9594 6.50041L0.924623 6.50571L0.932893 6.55994C0.333096 7.9179 0 9.42005 0 11C0 17.0751 4.92487 22 11 22C12.2859 22 13.5203 21.7793 14.6674 21.3738L14.6818 21.3857L14.7017 21.3616C17.5284 20.3517 19.8209 18.2179 21.0411 15.4985L21.0537 15.4971L21.0513 15.4756ZM20.3448 14.5678C20.7681 13.4597 21 12.2569 21 11C21 10.0415 20.8651 9.11446 20.6134 8.23687L18.1723 11.1405C18.1222 11.2 18.0612 11.245 17.9947 11.2748C17.9421 12.6366 17.5005 13.8987 16.7779 14.9529L20.3448 14.5678ZM20.2282 7.14101L17.9132 9.89463C17.6882 8.47587 17.0368 7.19904 16.0946 6.19946C16.1169 6.13167 16.125 6.05801 16.1157 5.98248L15.644 2.14143C17.6959 3.21933 19.3274 4.98926 20.2282 7.14101ZM14.5772 1.65881L15.0206 5.26911C13.9075 4.48675 12.5561 4.02046 11.0969 4.00066L8.8372 1.2345C9.53367 1.08095 10.2574 1 11 1C12.2605 1 13.4664 1.2332 14.5772 1.65881ZM7.78557 1.52784L9.87818 4.08941C8.59295 4.29644 7.42479 4.85337 6.47454 5.65937L2.16204 6.31701C3.34851 4.0825 5.35761 2.35151 7.78557 1.52784ZM1.66596 7.40422L5.37014 6.83935C4.56174 7.93141 4.06352 9.26696 4.00566 10.7158C3.94388 10.7455 3.88724 10.7884 3.84019 10.8442L1.38471 13.7564C1.13417 12.8808 1 11.9561 1 11C1 9.7325 1.23581 8.52009 1.66596 7.40422ZM5.91514 15.8109C4.96722 14.8093 4.31203 13.5279 4.08647 12.1034L1.76888 14.8521C2.59999 16.8414 4.05543 18.505 5.89031 19.5978L5.89699 15.9439C5.89707 15.8978 5.90339 15.8532 5.91514 15.8109ZM6.88936 20.1188L6.89566 16.6711C7.96804 17.4486 9.26956 17.9293 10.6797 17.9928C10.709 18.0753 10.7603 18.1511 10.8327 18.2108L13.75 20.6171C12.8763 20.8665 11.9537 21 11 21C9.53484 21 8.14327 20.6849 6.88936 20.1188ZM14.8531 20.2307L12.0532 17.9213C13.5249 17.6992 14.8464 17.0189 15.8677 16.0304C15.9198 16.042 15.9745 16.0455 16.0305 16.0394L19.8685 15.6251C18.7905 17.6877 17.0141 19.3276 14.8531 20.2307ZM11 17C14.3137 17 17 14.3137 17 11C17 7.68629 14.3137 5 11 5C7.68629 5 5 7.68629 5 11C5 14.3137 7.68629 17 11 17ZM11 14C12.6569 14 14 12.6569 14 11C14 9.34315 12.6569 8 11 8C9.34315 8 8 9.34315 8 11C8 12.6569 9.34315 14 11 14ZM13 11C13 12.1046 12.1046 13 11 13C9.89543 13 9 12.1046 9 11C9 9.89543 9.89543 9 11 9C12.1046 9 13 9.89543 13 11Z" fill="black"/>
</svg>
