<svg width="24" height="24" viewBox="0 0 24 24" fill="none" xmlns="http://www.w3.org/2000/svg">
<path fill-rule="evenodd" clip-rule="evenodd" d="M22.0513 16.4756C22.6611 15.1083 23 13.5937 23 12C23 10.714 22.7793 9.47953 22.3738 8.33242L22.3827 8.32176L22.3645 8.30648C21.3558 5.47614 19.2207 3.18042 16.4987 1.95901L16.4963 1.93905L16.4631 1.94312C15.0991 1.33688 13.5889 1 12 1C7.52794 1 3.67919 3.66869 1.9594 7.50041L1.92462 7.50571L1.93289 7.55994C1.3331 8.9179 1 10.4201 1 12C1 18.0751 5.92487 23 12 23C13.2859 23 14.5203 22.7793 15.6674 22.3738L15.6818 22.3857L15.7017 22.3616C18.5284 21.3517 20.8209 19.2179 22.0411 16.4985L22.0537 16.4971L22.0513 16.4756ZM21.3448 15.5678C21.7681 14.4597 22 13.2569 22 12C22 11.0415 21.8651 10.1145 21.6134 9.23687L19.1723 12.1405C19.1222 12.2 19.0612 12.245 18.9947 12.2748C18.9421 13.6366 18.5005 14.8987 17.7779 15.9529L21.3448 15.5678ZM21.2282 8.14101L18.9132 10.8946C18.6882 9.47587 18.0368 8.19904 17.0946 7.19946C17.1169 7.13167 17.125 7.05801 17.1157 6.98248L16.644 3.14143C18.6959 4.21933 20.3274 5.98926 21.2282 8.14101ZM15.5772 2.65881L16.0206 6.26911C14.9075 5.48675 13.5561 5.02046 12.0969 5.00066L9.8372 2.2345C10.5337 2.08095 11.2574 2 12 2C13.2605 2 14.4664 2.2332 15.5772 2.65881ZM8.78557 2.52784L10.8782 5.08941C9.59295 5.29644 8.42479 5.85337 7.47454 6.65937L3.16204 7.31701C4.34851 5.0825 6.35761 3.35151 8.78557 2.52784ZM2.66596 8.40422L6.37014 7.83935C5.56174 8.93141 5.06352 10.267 5.00566 11.7158C4.94388 11.7455 4.88724 11.7884 4.84019 11.8442L2.38471 14.7564C2.13417 13.8808 2 12.9561 2 12C2 10.7325 2.23581 9.52009 2.66596 8.40422ZM6.91514 16.8109C5.96722 15.8093 5.31203 14.5279 5.08647 13.1034L2.76888 15.8521C3.59999 17.8414 5.05543 19.505 6.89031 20.5978L6.89699 16.9439C6.89707 16.8978 6.90339 16.8532 6.91514 16.8109ZM7.88936 21.1188L7.89566 17.6711C8.96804 18.4486 10.2696 18.9293 11.6797 18.9928C11.709 19.0753 11.7603 19.1511 11.8327 19.2108L14.75 21.6171C13.8763 21.8665 12.9537 22 12 22C10.5348 22 9.14327 21.6849 7.88936 21.1188ZM15.8531 21.2307L13.0532 18.9213C14.5249 18.6992 15.8464 18.0189 16.8677 17.0304C16.9198 17.042 16.9745 17.0455 17.0305 17.0394L20.8685 16.6251C19.7905 18.6877 18.0141 20.3276 15.8531 21.2307ZM12 18C15.3137 18 18 15.3137 18 12C18 8.68629 15.3137 6 12 6C8.68629 6 6 8.68629 6 12C6 15.3137 8.68629 18 12 18ZM12 15C13.6569 15 15 13.6569 15 12C15 10.3431 13.6569 9 12 9C10.3431 9 9 10.3431 9 12C9 13.6569 10.3431 15 12 15ZM14 12C14 13.1046 13.1046 14 12 14C10.8954 14 10 13.1046 10 12C10 10.8954 10.8954 10 12 10C13.1046 10 14 10.8954 14 12Z" fill="black"/>
</svg>
