<!-- Generated by IcoMoon.io -->
<svg version="1.1" xmlns="http://www.w3.org/2000/svg" width="512" height="512" viewBox="0 0 512 512">
<title></title>
<g id="icomoon-ignore">
    <line stroke-width="1" x1="16" y1="0" x2="16" y2="512" stroke="#449FDB" opacity="0.3"></line>
    <line stroke-width="1" x1="32" y1="0" x2="32" y2="512" stroke="#449FDB" opacity="1"></line>
    <line stroke-width="1" x1="48" y1="0" x2="48" y2="512" stroke="#449FDB" opacity="0.3"></line>
    <line stroke-width="1" x1="64" y1="0" x2="64" y2="512" stroke="#449FDB" opacity="1"></line>
    <line stroke-width="1" x1="80" y1="0" x2="80" y2="512" stroke="#449FDB" opacity="0.3"></line>
    <line stroke-width="1" x1="96" y1="0" x2="96" y2="512" stroke="#449FDB" opacity="1"></line>
    <line stroke-width="1" x1="112" y1="0" x2="112" y2="512" stroke="#449FDB" opacity="0.3"></line>
    <line stroke-width="1" x1="128" y1="0" x2="128" y2="512" stroke="#449FDB" opacity="1"></line>
    <line stroke-width="1" x1="144" y1="0" x2="144" y2="512" stroke="#449FDB" opacity="0.3"></line>
    <line stroke-width="1" x1="160" y1="0" x2="160" y2="512" stroke="#449FDB" opacity="1"></line>
    <line stroke-width="1" x1="176" y1="0" x2="176" y2="512" stroke="#449FDB" opacity="0.3"></line>
    <line stroke-width="1" x1="192" y1="0" x2="192" y2="512" stroke="#449FDB" opacity="1"></line>
    <line stroke-width="1" x1="208" y1="0" x2="208" y2="512" stroke="#449FDB" opacity="0.3"></line>
    <line stroke-width="1" x1="224" y1="0" x2="224" y2="512" stroke="#449FDB" opacity="1"></line>
    <line stroke-width="1" x1="240" y1="0" x2="240" y2="512" stroke="#449FDB" opacity="0.3"></line>
    <line stroke-width="1" x1="256" y1="0" x2="256" y2="512" stroke="#449FDB" opacity="1"></line>
    <line stroke-width="1" x1="272" y1="0" x2="272" y2="512" stroke="#449FDB" opacity="0.3"></line>
    <line stroke-width="1" x1="288" y1="0" x2="288" y2="512" stroke="#449FDB" opacity="1"></line>
    <line stroke-width="1" x1="304" y1="0" x2="304" y2="512" stroke="#449FDB" opacity="0.3"></line>
    <line stroke-width="1" x1="320" y1="0" x2="320" y2="512" stroke="#449FDB" opacity="1"></line>
    <line stroke-width="1" x1="336" y1="0" x2="336" y2="512" stroke="#449FDB" opacity="0.3"></line>
    <line stroke-width="1" x1="352" y1="0" x2="352" y2="512" stroke="#449FDB" opacity="1"></line>
    <line stroke-width="1" x1="368" y1="0" x2="368" y2="512" stroke="#449FDB" opacity="0.3"></line>
    <line stroke-width="1" x1="384" y1="0" x2="384" y2="512" stroke="#449FDB" opacity="1"></line>
    <line stroke-width="1" x1="400" y1="0" x2="400" y2="512" stroke="#449FDB" opacity="0.3"></line>
    <line stroke-width="1" x1="416" y1="0" x2="416" y2="512" stroke="#449FDB" opacity="1"></line>
    <line stroke-width="1" x1="432" y1="0" x2="432" y2="512" stroke="#449FDB" opacity="0.3"></line>
    <line stroke-width="1" x1="448" y1="0" x2="448" y2="512" stroke="#449FDB" opacity="1"></line>
    <line stroke-width="1" x1="464" y1="0" x2="464" y2="512" stroke="#449FDB" opacity="0.3"></line>
    <line stroke-width="1" x1="480" y1="0" x2="480" y2="512" stroke="#449FDB" opacity="1"></line>
    <line stroke-width="1" x1="496" y1="0" x2="496" y2="512" stroke="#449FDB" opacity="0.3"></line>
    <line stroke-width="1" x1="0" y1="16" x2="512" y2="16" stroke="#449FDB" opacity="0.3"></line>
    <line stroke-width="1" x1="0" y1="32" x2="512" y2="32" stroke="#449FDB" opacity="1"></line>
    <line stroke-width="1" x1="0" y1="48" x2="512" y2="48" stroke="#449FDB" opacity="0.3"></line>
    <line stroke-width="1" x1="0" y1="64" x2="512" y2="64" stroke="#449FDB" opacity="1"></line>
    <line stroke-width="1" x1="0" y1="80" x2="512" y2="80" stroke="#449FDB" opacity="0.3"></line>
    <line stroke-width="1" x1="0" y1="96" x2="512" y2="96" stroke="#449FDB" opacity="1"></line>
    <line stroke-width="1" x1="0" y1="112" x2="512" y2="112" stroke="#449FDB" opacity="0.3"></line>
    <line stroke-width="1" x1="0" y1="128" x2="512" y2="128" stroke="#449FDB" opacity="1"></line>
    <line stroke-width="1" x1="0" y1="144" x2="512" y2="144" stroke="#449FDB" opacity="0.3"></line>
    <line stroke-width="1" x1="0" y1="160" x2="512" y2="160" stroke="#449FDB" opacity="1"></line>
    <line stroke-width="1" x1="0" y1="176" x2="512" y2="176" stroke="#449FDB" opacity="0.3"></line>
    <line stroke-width="1" x1="0" y1="192" x2="512" y2="192" stroke="#449FDB" opacity="1"></line>
    <line stroke-width="1" x1="0" y1="208" x2="512" y2="208" stroke="#449FDB" opacity="0.3"></line>
    <line stroke-width="1" x1="0" y1="224" x2="512" y2="224" stroke="#449FDB" opacity="1"></line>
    <line stroke-width="1" x1="0" y1="240" x2="512" y2="240" stroke="#449FDB" opacity="0.3"></line>
    <line stroke-width="1" x1="0" y1="256" x2="512" y2="256" stroke="#449FDB" opacity="1"></line>
    <line stroke-width="1" x1="0" y1="272" x2="512" y2="272" stroke="#449FDB" opacity="0.3"></line>
    <line stroke-width="1" x1="0" y1="288" x2="512" y2="288" stroke="#449FDB" opacity="1"></line>
    <line stroke-width="1" x1="0" y1="304" x2="512" y2="304" stroke="#449FDB" opacity="0.3"></line>
    <line stroke-width="1" x1="0" y1="320" x2="512" y2="320" stroke="#449FDB" opacity="1"></line>
    <line stroke-width="1" x1="0" y1="336" x2="512" y2="336" stroke="#449FDB" opacity="0.3"></line>
    <line stroke-width="1" x1="0" y1="352" x2="512" y2="352" stroke="#449FDB" opacity="1"></line>
    <line stroke-width="1" x1="0" y1="368" x2="512" y2="368" stroke="#449FDB" opacity="0.3"></line>
    <line stroke-width="1" x1="0" y1="384" x2="512" y2="384" stroke="#449FDB" opacity="1"></line>
    <line stroke-width="1" x1="0" y1="400" x2="512" y2="400" stroke="#449FDB" opacity="0.3"></line>
    <line stroke-width="1" x1="0" y1="416" x2="512" y2="416" stroke="#449FDB" opacity="1"></line>
    <line stroke-width="1" x1="0" y1="432" x2="512" y2="432" stroke="#449FDB" opacity="0.3"></line>
    <line stroke-width="1" x1="0" y1="448" x2="512" y2="448" stroke="#449FDB" opacity="1"></line>
    <line stroke-width="1" x1="0" y1="464" x2="512" y2="464" stroke="#449FDB" opacity="0.3"></line>
    <line stroke-width="1" x1="0" y1="480" x2="512" y2="480" stroke="#449FDB" opacity="1"></line>
    <line stroke-width="1" x1="0" y1="496" x2="512" y2="496" stroke="#449FDB" opacity="0.3"></line>
</g>
<path fill="#fff" d="M992-480h-1472v1472h1472v-1472z"></path>
<path fill="#000" d="M394.070 201.238h85.376v-9.427h-59.178v-42.391h-26.199v51.817z"></path>
<path fill="#000" d="M-97.875 149.421v51.817h26.198c0 0 0-20.608 0-21.203 0.595 0 44.755 0 45.334 0 0 0.595 0 21.203 0 21.203h26.198v-51.817h-26.198c0 0 0 20.608 0 21.203-0.595 0-44.755 0-45.334 0 0-0.595 0-21.203 0-21.203h-26.198z"></path>
<path fill="#000" d="M228.909 149.421l-24.147 21.782-25.024-21.782-30.317-2.067v2.067c0 0 36.8 30.614 37.097 30.912 0 0.298 0 21.203 0 21.203h26.198c0 0 0-21.203 0-21.485 0.298 0 34.154-30.317 34.154-30.317v-2.067l-17.962 1.769z"></path>
<path fill="#000" d="M508.589 201.238h86.848v-8.535h-60.947v-13.248h58.582v-8.832h-58.582v-12.371h59.757v-8.832h-85.673v51.817z"></path>
<path fill="#000" d="M268.074 162.966c0 12.073 13.843 15.018 32.681 17.367 19.433 2.349 28.265 2.944 28.265 7.657 0 4.119-5.591 6.185-22.377 6.185-18.839 0-34.733-4.714-37.098-5.293 0 0.298-1.769 5.888-2.349 8.832-0.298 0.877 0 2.067 0 2.067 2.647 0.595 17.664 4.119 40.621 4.119 25.024 0 49.453-4.416 49.453-17.962 0-9.427-9.709-14.125-37.974-17.367-11.478-1.472-23.849-2.349-23.849-6.765 0-3.242 3.241-5.011 20.013-5.011 16.49 0 30.035 3.539 32.384 4.119l2.067-12.073c-2.944-0.595-19.136-1.472-40.621-1.472-17.962-0.298-41.216 2.349-41.216 15.597z"></path>
<path fill="#000" d="M-222.697 175.338c0 16.787 17.664 28.266 54.464 28.266 14.125 0 29.142-2.067 31.507-2.349l2.349-12.951c-3.242 0.298-15.315 4.119-28.563 4.119-20.31 0-34.154-5.011-34.154-17.069s12.951-17.069 34.451-17.069c12.073 0 25.024 1.769 27.968 2.067v-2.067l-2.349-8.832c-3.821-0.298-16.787-2.349-30.912-2.349-36.8 0.298-54.761 11.181-54.761 28.266z"></path>
<path fill="#000" d="M40.211 201.238h26.198v-42.391c3.539-0.298 7.657-0.595 13.546-0.595 6.186 0 10.899 0 14.72 0.595 7.955 1.174 10.602 3.821 10.602 7.063 0 3.539-3.539 6.765-11.478 7.955-5.293 0.595-8.832 0.877-13.546 0.877-2.067 0-7.955-2.349-7.955-2.349v2.067l29.737 26.793h33.261v-2.067l-30.035-19.434c5.888-0.298 7.955-0.595 13.843-2.647 7.955-2.647 11.776-6.765 11.776-11.181 0-6.185-3.821-11.181-18.541-14.423-8.237-1.769-18.259-2.647-32.087-2.647-18.838 0-37.974 0.595-40.041 0.877 0-0.298 0 51.52 0 51.52z"></path>
<path fill="#000" d="M629.888 201.238h26.198v-42.391c3.539-0.298 7.658-0.595 13.545-0.595 6.186 0 10.899 0 14.72 0.595 7.955 1.174 10.601 3.821 10.304 7.063 0 3.539-3.539 6.765-11.479 7.955-5.011 0.595-8.832 0.877-13.545 0.877-2.349 0-7.955-2.349-7.955-2.349v2.067l29.737 26.793h33.261v-2.067l-30.035-19.434c5.888-0.298 7.955-0.595 14.125-2.647 7.955-2.647 11.776-6.765 12.073-11.181 0-6.185-3.821-11.181-18.541-14.423-8.237-1.769-18.259-2.647-32.087-2.647-18.838 0-37.975 0.595-40.042 0.877-0.298-0.298-0.298 51.52-0.298 51.52z"></path>
<path fill="#000" d="M394.070 196.243h85.376v-8.832h-59.178v-39.744h-26.199v48.576z"></path>
<path fill="#000" d="M-97.875 147.667v48.576h26.198c0 0 0-19.136 0-19.731 0.595 0 44.755 0 45.334 0 0 0.595 0 19.731 0 19.731h26.198v-48.576h-26.198c0 0 0 19.136 0 19.731-0.595 0-44.755 0-45.334 0 0-0.595 0-19.731 0-19.731h-26.198z"></path>
<path fill="#000" d="M228.909 147.667l-24.147 20.608-25.024-20.608-30.035-0.298c0 0 36.502 28.845 36.8 28.845 0 0.298 0 19.731 0 19.731h26.198c0 0 0-20.013 0-20.31 0.298 0 33.856-28.563 33.856-28.563l-17.664 0.595z"></path>
<path fill="#000" d="M508.589 196.243h86.848v-7.955h-60.947v-12.371h58.582v-8.237h-58.582v-11.776h59.757v-8.237h-85.673v48.576z"></path>
<path fill="#000" d="M268.074 160.32c0 11.181 13.843 13.843 32.681 16.192 19.433 2.349 28.265 2.944 28.265 7.063 0 3.821-5.591 5.888-22.377 5.888-18.839 0-34.733-4.416-37.098-5.011 0 0.595-2.349 12.951-2.349 12.951 2.647 0.595 17.664 0.877 40.621 0.877 25.024 0 49.453-4.119 49.453-16.787 0-8.832-9.709-13.248-37.974-16.192-11.478-1.174-23.849-2.067-23.849-6.185 0-3.242 3.241-4.416 20.013-4.416 16.49 0 30.035 3.242 32.384 3.821l2.067-9.427c-2.944-0.595-19.136-3.242-40.621-3.242-17.962-0.298-41.216 2.067-41.216 14.422z"></path>
<path fill="#000" d="M-222.697 172.096c0 15.597 17.664 26.496 54.464 26.496 14.125 0 29.142-2.067 31.507-2.349l2.349-7.955v-2.349c-3.242 0.298-15.315 2.067-28.563 2.067-20.31 0-34.154-4.714-34.154-15.894s12.951-15.894 34.451-15.894c12.073 0 25.024 1.472 27.968 2.067l-2.349-10.304c-3.821-0.298-16.787-2.349-30.912-2.349-36.8 0-54.761 10.304-54.761 26.496z"></path>
<path fill="#000" d="M40.211 196.243h26.198v-40.041c3.539-0.298 7.657-0.595 13.546-0.595 6.186 0 10.899 0 14.72 0.595 7.955 1.174 10.602 3.539 10.602 6.765s-3.539 6.185-11.478 7.36c-5.293 0.595-8.832 0.877-13.546 0.877-2.647 0-4.713 0-7.955-0.298v1.174l29.737 23.85 33.261 2.944v-2.944l-30.035-20.31c5.888-0.298 7.955-0.595 13.843-2.349 7.955-2.349 11.776-6.185 11.776-10.601 0-5.59-3.821-10.601-18.541-13.546-8.237-1.769-18.259-2.349-32.087-2.349-18.838 0-37.974 0.595-40.041 0.877 0 0.298 0 48.576 0 48.576z"></path>
<path fill="#000" d="M629.888 196.243h26.198v-40.041c3.539-0.298 7.658-0.595 13.545-0.595 6.186 0 10.899 0 14.72 0.595 7.955 1.174 10.601 3.539 10.304 6.765 0 3.242-3.539 6.185-11.479 7.36-5.011 0.595-8.832 0.877-13.545 0.877-2.646 0-4.713 0-7.955-0.298v1.174l29.737 23.85 33.261 2.944v-2.944l-30.035-20.31c5.888-0.298 7.955-0.595 14.125-2.349 7.955-2.349 11.776-6.185 12.073-10.601 0-5.59-3.821-10.601-18.541-13.546-8.237-1.769-18.259-2.349-32.087-2.349-18.838 0-37.975 0.595-40.042 0.877-0.298 0.298-0.298 48.576-0.298 48.576z"></path>
<path fill="#000" d="M394.070 199.187h85.376v-9.427h-59.178v-42.391h-26.199v51.817z"></path>
<path fill="#000" d="M-97.875 147.369v51.817h26.198c0 0 0-20.608 0-21.203 0.595 0 44.755 0 45.334 0 0 0.595 0 21.203 0 21.203h26.198v-51.817h-26.198c0 0 0 20.608 0 21.203-0.595 0-44.755 0-45.334 0 0-0.595 0-21.203 0-21.203h-26.198z"></path>
<path fill="#000" d="M228.909 147.369l-24.147 21.782-25.024-21.782h-30.317c0 0 36.8 30.614 37.097 30.912 0 0.298 0 21.203 0 21.203h26.198c0 0 0-21.203 0-21.485 0.298 0 34.154-30.317 34.154-30.317h-17.962z"></path>
<path fill="#000" d="M508.589 199.187h86.848v-8.535h-60.947v-13.248h58.582v-8.832h-58.582v-12.371h59.757v-8.832h-85.673v51.817z"></path>
<path fill="#000" d="M268.074 160.915c0 12.073 13.843 15.018 32.681 17.367 19.433 2.349 28.265 2.944 28.265 7.657 0 4.119-5.591 6.185-22.377 6.185-18.839 0-34.733-4.714-37.098-5.293 0 0.595-2.349 10.899-2.349 10.899 2.647 0.595 17.664 4.119 40.621 4.119 25.024 0 49.453-4.416 49.453-17.962 0-9.427-9.709-14.125-37.974-17.367-11.478-1.472-23.849-2.349-23.849-6.765 0-3.242 3.241-5.011 20.013-5.011 16.49 0 30.035 3.539 32.384 4.119l2.067-10.006c-2.944-0.595-19.136-3.539-40.621-3.539-17.962-0.298-41.216 2.349-41.216 15.597z"></path>
<path fill="#000" d="M-222.697 173.27c0 16.787 17.664 28.266 54.464 28.266 14.125 0 29.142-2.067 31.507-2.349l2.349-10.899c-3.242 0.298-15.315 2.067-28.563 2.067-20.31 0-34.154-5.011-34.154-17.069s12.951-17.069 34.451-17.069c12.073 0 25.024 1.769 27.968 2.067l-2.349-10.899c-3.821-0.298-16.787-2.349-30.912-2.349-36.8 0.298-54.761 11.181-54.761 28.266z"></path>
<path fill="#000" d="M40.211 199.187h26.198v-42.688c3.539-0.298 7.657-0.595 13.546-0.595 6.186 0 10.899 0 14.72 0.595 7.955 1.174 10.602 3.821 10.602 7.063 0 3.539-3.539 6.765-11.478 7.955-5.293 0.595-8.832 0.877-13.546 0.877-2.647 0-4.713 0-7.955-0.298l29.737 26.793h33.261l-30.035-21.485c5.888-0.298 7.955-0.595 13.843-2.647 7.955-2.647 11.776-6.765 11.776-11.181 0-6.185-3.821-11.181-18.541-14.422-8.237-1.769-18.259-2.647-32.087-2.647-18.838 0-37.974 0.595-40.041 0.877 0 0 0 51.817 0 51.817z"></path>
<path fill="#000" d="M629.888 199.187h26.198v-42.688c3.539-0.298 7.658-0.595 13.545-0.595 6.186 0 10.899 0 14.72 0.595 7.955 1.174 10.601 3.821 10.304 7.063 0 3.539-3.539 6.765-11.479 7.955-5.011 0.595-8.832 0.877-13.545 0.877-2.646 0-4.713 0-7.955-0.298l29.737 26.793h33.261l-30.035-21.485c5.888-0.298 7.955-0.595 14.125-2.647 7.955-2.647 11.776-6.765 12.073-11.181 0-6.185-3.821-11.181-18.541-14.422-8.237-1.769-18.259-2.647-32.087-2.647-18.838 0-37.975 0.595-40.042 0.877-0.298 0-0.298 51.817-0.298 51.817z"></path>
<path fill="#000" d="M257.769 358.445c-12.653-0.595-33.856 1.472-40.041 3.821-7.063 2.944-9.427 4.714-26.496 4.714-17.367 0-51.222-4.714-51.222-4.714s-361.815-55.341-371.539-58.582-21.782-9.709-35.625-17.962c-13.546-8.237-21.485-15.597-21.485-21.203 0-5.293 8.534-6.765 8.534-6.765l398.912-2.349c0 0 16.489-0.595 22.080 0.595 5.59 1.472 29.738 12.371 37.097 13.843 17.962 3.539 79.785 2.067 79.785 2.067"></path>
<path fill="#000" d="M-221.523 275.136l247.594 4.118c0 0 7.955 0.298 13.248 1.769s10.899 5.591 10.899 5.591h62.701c0 0-21.485 0.595-23.254 1.472s-0.595 1.472-0.595 1.472h-45.037l1.77 1.769 13.546 1.769 10.304 8.534h49.453c0 0-9.427 1.769-11.181 3.241s-1.769 1.472-1.769 1.472h-37.097c0 0 1.174 2.067 6.483 2.349s5.888 1.472 8.237 2.067c2.349 0.595 12.951 9.709 34.451 15.894s59.757 12.653 59.757 12.653-55.341-1.175-79.488-11.478c-24.147-10.304-56.813-34.154-64.173-37.097s-15.017-2.067-15.017-2.067-168.403-6.765-187.539-8.237c-19.136-1.472-53.29-5.293-53.29-5.293z"></path>
<path fill="#000" d="M254.231 358.445c12.653-0.595 33.856 1.472 40.041 3.821 7.063 2.944 9.427 4.714 26.496 4.714 17.366 0 51.223-4.714 51.223-4.714s361.517-55.059 371.241-58.582c9.709-3.241 21.783-9.709 35.625-17.962 13.545-8.237 21.485-15.597 21.485-21.203 0-5.293-8.534-6.765-8.534-6.765l-398.912-2.349c0 0-16.49-0.595-22.080 0.595-5.591 1.472-29.738 12.371-37.097 13.843-17.962 3.539-79.786 2.067-79.786 2.067"></path>
<path fill="#000" d="M733.523 275.136l-247.594 4.118c0 0-7.955 0.298-13.248 1.769s-10.899 5.591-10.899 5.591h-62.701c0 0 21.485 0.595 23.255 1.472s0.595 1.472 0.595 1.472h45.037l-1.769 1.769-13.546 1.769-10.304 8.534h-49.453c0 0 9.427 1.769 11.181 3.241s1.769 1.472 1.769 1.472h37.098c0 0-1.175 2.067-6.483 2.349s-5.888 1.472-8.237 2.067c-2.349 0.595-12.95 9.709-34.451 15.894s-59.757 12.653-59.757 12.653 55.341-1.175 79.488-11.478c24.147-10.304 56.813-34.154 64.173-37.097s15.017-2.067 15.017-2.067 168.403-6.765 187.539-8.237c19.136-1.472 53.289-5.293 53.289-5.293z"></path>
<path fill="#000" d="M257.769 320.173c0 0-46.509-0.298-76.246 0s-35.923-4.118-48.279-14.423c-16.489-13.843-14.422-20.31-14.422-20.31h138.963z"></path>
<path fill="#000" d="M257.769 319.891c0 0-45.929-0.298-75.072 0s-36.8-5.011-47.699-14.423c-15.894-13.843-14.125-19.731-14.125-19.731h136.896z"></path>
<path fill="#000" d="M252.758 320.173c0 0 46.509-0.298 76.246 0s35.923-4.118 48.279-14.423c16.49-13.843 14.423-20.31 14.423-20.31h-138.963z"></path>
<path fill="#000" d="M252.758 319.891c0 0 45.929-0.298 75.072 0s36.8-5.011 47.699-14.423c15.894-13.843 14.125-19.731 14.125-19.731h-141.014z"></path>
<path fill="#000" d="M283.091 306.643h19.433v-2.349h-13.546v-9.427h-5.888v11.776z"></path>
<path fill="#000" d="M283.671 306.346h18.259v-2.067h-12.653v-9.13h-5.591v11.181z"></path>
<path fill="#000" d="M177.686 294.867v11.776h5.888c0 0 0-4.714 0-4.714s10.006 0 10.304 0c0 0 0 4.714 0 4.714h5.888v-11.776h-5.888c0 0 0 4.714 0 4.714s-10.006 0-10.304 0c0 0 0-4.714 0-4.714h-5.888z"></path>
<path fill="#000" d="M177.984 295.149v11.181h5.59c0 0 0-4.416 0-4.416s9.709 0 9.709 0c0 0 0 4.416 0 4.416h5.59v-11.181h-5.59c0 0 0 4.416 0 4.416s-9.709 0-9.709 0c0 0 0-4.416 0-4.416h-5.59z"></path>
<path fill="#000" d="M248.64 294.57l-5.59 5.011-5.888-5.011h-7.063c0 0 8.535 7.063 8.535 7.063s0 5.011 0 5.011h6.185c0 0 0-5.011 0-5.011s7.955-7.063 7.955-7.063h-4.119z"></path>
<path fill="#000" d="M248.045 295.149l-5.293 4.714-5.293-4.714h-6.483c0 0 7.955 6.483 7.955 6.483s0 4.416 0 4.416h5.59c0 0 0-4.416 0-4.714 0 0 7.36-6.483 7.36-6.483h-3.821z"></path>
<path fill="#000" d="M307.52 306.643h19.731v-2.067h-13.843v-2.944h13.248v-2.067h-13.248v-2.647h13.546v-2.067h-19.433v11.776z"></path>
<path fill="#000" d="M308.115 306.346h18.541v-2.067h-12.95v-2.647h12.653v-2.067h-12.653v-2.647h12.653v-1.769h-18.259v11.181z"></path>
<path fill="#000" d="M255.702 297.811c0 2.647 3.241 3.539 7.658 3.821 4.416 0.595 6.483 0.595 6.483 1.769 0 0.877-1.175 1.472-5.011 1.472-4.416 0-7.955-1.175-8.534-1.175 0 0-0.595 2.349-0.595 2.349 0.595 0 4.119 0.877 9.427 0.877 5.888 0 11.478-0.877 11.478-4.118 0-2.067-2.349-3.241-8.832-4.118-2.647-0.298-5.591-0.595-5.591-1.472s0.877-1.175 4.714-1.175c3.821 0 7.063 0.877 7.36 0.877l0.595-2.349c-0.595 0-4.416-0.877-9.427-0.877-4.118 0.595-9.709 1.175-9.709 4.118z"></path>
<path fill="#000" d="M256.595 298.093c0 2.647 2.944 3.241 7.063 3.821s6.185 0.595 6.185 1.769c0 0.877-1.175 1.472-4.714 1.472-4.118 0-7.36-0.877-7.955-1.175 0 0-0.595 2.349-0.595 2.349 0.595 0 3.821 0.877 8.534 0.877 5.293 0 10.601-0.877 10.601-3.821 0-2.067-2.067-2.944-8.237-3.821-2.349-0.298-5.011-0.595-5.011-1.472 0-0.595 0.595-1.175 4.118-1.175s6.483 0.877 7.063 0.877l0.595-2.067c-0.595 0-4.118-0.877-8.832-0.877-3.821-0.298-8.832 0.298-8.832 3.241z"></path>
<path fill="#000" d="M150.611 300.755c0 3.821 4.119 6.483 12.371 6.483 3.242 0 6.483-0.595 7.063-0.595l0.595-2.349c-0.595 0-3.539 0.595-6.483 0.595-4.714 0-7.657-1.175-7.657-3.821s2.944-3.821 7.657-3.821c2.647 0 5.59 0.298 6.483 0.595l-0.595-2.349c-0.877 0-3.821-0.595-7.063-0.595-8.237-0.595-12.371 2.067-12.371 5.888z"></path>
<path fill="#000" d="M151.19 300.755c0 3.539 3.821 6.185 11.776 6.185 2.944 0 6.185-0.595 6.765-0.595l0.595-2.349c-0.595 0-3.242 0.595-6.185 0.595-4.416 0-7.36-1.175-7.36-3.539 0-2.647 2.944-3.539 7.36-3.539 2.647 0 5.293 0.298 5.888 0.595l-0.595-2.349c-0.877 0-3.539-0.595-6.483-0.595-7.955-0.595-11.776 1.769-11.776 5.591z"></path>
<path fill="#000" d="M207.424 306.346h5.888v-9.427c0.877 0 1.769 0 2.944 0 1.472 0 2.349 0 3.242 0 1.769 0.298 2.349 0.877 2.349 1.472 0 0.877-0.877 1.472-2.647 1.769-1.174 0.298-2.067 0.298-2.944 0.298-0.595 0-1.174 0-1.769 0l6.483 5.888h7.36l-6.765-4.714c1.174 0 1.769-0.298 3.242-0.595 1.769-0.595 2.647-1.472 2.647-2.647 0-1.472-0.877-2.349-4.119-3.241-1.769-0.298-4.119-0.595-7.063-0.595-4.119 0-8.535 0.298-8.832 0.298 0 0 0 11.478 0 11.478z"></path>
<path fill="#000" d="M207.721 306.346h5.59v-9.13c0.877 0 1.769 0 2.944 0 1.472 0 2.349 0 3.242 0 1.769 0.298 2.349 0.877 2.349 1.472 0 0.877-0.877 1.472-2.349 1.769-1.174 0.298-1.769 0.298-2.944 0.298-0.595 0-0.877 0-1.769 0l6.483 5.888h7.063l-6.483-4.714c1.174 0 1.769 0 2.944-0.595 1.769-0.595 2.647-1.472 2.647-2.349 0-1.175-0.877-2.349-3.821-3.241-1.769-0.298-3.821-0.595-6.765-0.595-4.119 0-8.237 0.298-8.535 0.298-0.595-0.298-0.595 10.899-0.595 10.899z"></path>
<path fill="#000" d="M333.421 306.643h5.888v-9.709c0.877 0 1.769-0.298 3.241-0.298s2.349 0 3.241 0.298 2.349 0.877 2.349 1.769c0 0.877-0.877 1.472-2.647 1.769-1.175 0.298-2.067 0.298-2.944 0.298-0.595 0-1.175 0-1.769 0l6.765 6.185h7.658l-6.765-5.011c1.472 0 1.769-0.298 3.241-0.595 1.769-0.595 2.647-1.472 2.647-2.647 0-1.472-0.877-2.647-4.118-3.241-1.769-0.298-4.118-0.595-7.36-0.595-4.416 0-8.534 0.298-9.13 0.298-0.298-0.298-0.298 11.478-0.298 11.478z"></path>
<path fill="#000" d="M334.016 306.346h5.591v-9.13c0.877 0 1.472 0 2.944 0s2.349 0 3.241 0c1.769 0.298 2.349 0.877 2.349 1.472 0 0.877-0.877 1.472-2.349 1.769-1.175 0.298-1.769 0.298-2.944 0.298-0.595 0-0.877 0-1.769 0l6.483 5.888h7.063l-6.483-4.714c1.175 0 1.769 0 2.944-0.595 1.769-0.595 2.647-1.472 2.647-2.349 0-1.175-0.877-2.349-3.821-3.241-1.769-0.298-3.821-0.595-6.765-0.595-4.118 0-8.237 0.298-8.534 0.298-0.595-0.298-0.595 10.899-0.595 10.899z"></path>
<path fill="#000" d="M120.278 295.149h-58.285l8.534 7.36h56.813z"></path>
<path fill="#000" d="M112.918 286.615c0 0-15.017 0-20.013 0.298-4.416 0.298-5.591 2.647-5.591 2.647s10.899 3.241 15.895 3.241c3.242 0.298 15.017 0.877 15.017 0.877l-5.293-7.063z"></path>
<path fill="#000" d="M105.856 306.346h-38.272c0 0 3.242 4.118 8.534 4.416 5.591 0.298 51.52 0 51.52 0l-21.782-4.416z"></path>
<path fill="#000" d="M404.672 306.346h38.57c0 0-3.241 4.118-8.534 4.416-5.591 0.298-51.52 0-51.52 0l21.485-4.416z"></path>
<path fill="#000" d="M122.925 302.807c-4.713 0.298-6.483 0-7.955 0-6.186 0.595-9.427 3.539-9.427 3.539s5.011 1.769 10.602 2.944 14.422 1.769 14.422 1.769z"></path>
<path fill="#000" d="M392.019 295.149h58.285l-8.534 7.36h-56.813z"></path>
<path fill="#000" d="M399.082 286.615c0 0 14.423 0 19.136 0.595 4.416 0.298 6.483 2.647 6.483 2.647s-10.899 3.241-15.894 3.241c-3.241 0.298-15.017 0.877-15.017 0.877l5.293-7.36z"></path>
<path fill="#000" d="M389.357 302.807c4.714 0.298 6.483 0 7.955 0 6.185 0.595 10.304 3.539 10.304 3.539s-5.888 1.769-11.478 2.944-14.423 1.769-14.423 1.769z"></path>
<path fill="#000" d="M257.175 356.973c0 0-13.843 0-24.147 1.472-19.731 2.944-16.787 4.714-27.091 7.36s-49.171-2.349-49.171-2.349-341.801-52.115-360.64-55.059c-27.671-4.416-26.496-3.539-47.981-14.423-28.845-14.423-36.502-27.373-36.502-27.373s5.293 2.647 12.371 7.36c36.502 23.552 39.744 22.377 46.806 25.024 20.31 7.658 337.385 53.289 337.385 53.289s71.831 12.95 83.607 8.237c11.776-4.714 18.541-9.13 24.147-10.304 20.013-4.714 48.279-3.241 48.279-3.241z"></path>
<path fill="#000" d="M254.826 356.973c0 0 13.843 0 24.147 1.472 19.731 2.944 16.787 4.714 27.091 7.36s49.171-2.349 49.171-2.349 341.802-52.115 360.64-55.059c27.67-4.416 26.198-4.118 47.981-14.423 30.035-14.423 36.502-27.373 36.502-27.373s-5.293 2.647-12.371 7.36c-36.502 23.552-39.744 22.377-46.807 25.024-20.311 7.658-337.385 53.289-337.385 53.289s-71.831 12.95-83.606 8.237c-11.776-4.714-18.541-9.13-24.147-10.304-20.013-4.714-46.806-2.944-46.806-2.944z"></path>
<path fill="#000" d="M260.118 273.664c0 0-76.841 0-85.376-2.647-5.888-1.769-23.85-10.601-29.44-12.371s-17.962-2.647-17.962-2.647-403.031 2.349-406.57 2.944c-3.539 0.595-7.36 2.944-7.36 2.944s25.024 4.118 36.8 5.011c120.406 9.427 381.546 4.714 391.255 5.888 9.427 1.175 16.192 8.237 28.845 8.237s91.264 0 91.264 0z"></path>
<path fill="#000" d="M250.989 273.664c0 0 76.842 0 85.376-2.647 5.888-1.769 23.849-10.601 29.44-12.371s17.962-2.647 17.962-2.647 403.031 2.349 406.57 2.944c3.539 0.595 7.36 2.944 7.36 2.944s-25.024 4.118-36.8 5.011c-120.406 9.427-381.546 4.714-391.255 5.888-9.427 1.175-16.192 8.237-28.845 8.237s-91.264 0-91.264 0z"></path>
</svg>
