<?xml version="1.0" encoding="utf-8"?>
<!-- Generator: Adobe Illustrator 19.0.0, SVG Export Plug-In . SVG Version: 6.00 Build 0)  -->
<svg version="1.1" id="Layer_1" xmlns="http://www.w3.org/2000/svg" xmlns:xlink="http://www.w3.org/1999/xlink" x="0px" y="0px"
	 viewBox="0 0 500 500" style="enable-background:new 0 0 500 500;" xml:space="preserve">
<style type="text/css">
	.st0{fill:#292929;}
	.st1{fill:#231F20;}
	.st2{fill:url(#XMLID_91_);}
	.st3{fill:url(#XMLID_92_);}
	.st4{fill:url(#XMLID_93_);}
	.st5{fill:url(#XMLID_94_);}
	.st6{fill:url(#XMLID_96_);}
	.st7{fill:url(#XMLID_97_);}
	.st8{fill:url(#XMLID_98_);}
	.st9{fill:url(#XMLID_102_);}
	.st10{fill:url(#XMLID_103_);}
	.st11{fill:url(#XMLID_104_);}
	.st12{fill:url(#XMLID_105_);}
	.st13{fill:url(#XMLID_110_);}
	.st14{fill:url(#XMLID_111_);}
	.st15{fill:url(#XMLID_112_);}
	.st16{fill:url(#XMLID_113_);}
	.st17{fill:url(#XMLID_114_);}
	.st18{fill:url(#XMLID_115_);stroke:#B8B8B8;}
	.st19{fill:#191919;}
	.st20{fill:url(#XMLID_116_);stroke:#B8B8B8;}
	.st21{fill:#FFFFFF;}
	.st22{fill:url(#XMLID_117_);}
	.st23{fill:url(#XMLID_118_);}
	.st24{fill:url(#XMLID_119_);}
	.st25{fill:url(#XMLID_120_);}
	.st26{fill:url(#XMLID_121_);}
	.st27{fill:url(#XMLID_122_);}
	.st28{fill:url(#XMLID_123_);}
	.st29{fill:url(#XMLID_124_);}
	.st30{fill:url(#XMLID_125_);}
	.st31{fill:url(#XMLID_126_);}
	.st32{fill:url(#XMLID_127_);}
	.st33{fill:#929292;}
	.st34{fill:#F2F2F2;}
	.st35{fill:#848C8E;}
	.st36{fill:url(#XMLID_128_);}
	.st37{fill:url(#XMLID_129_);}
	.st38{fill:url(#XMLID_130_);}
</style>
<rect id="XMLID_17_" class="st0" width="500" height="500"/>
<g id="XMLID_1_">
	<g id="XMLID_2_">
		<g id="XMLID_3_">
			<polyline id="XMLID_64_" class="st1" points="296.9,231.4 325.9,231.4 325.9,228.2 305.8,228.2 305.8,213.8 296.9,213.8 
				296.9,231.4 			"/>
			<path id="XMLID_63_" class="st1" d="M129.8,213.8v17.6h8.9c0,0,0-7,0-7.2c0.2,0,15.2,0,15.4,0c0,0.2,0,7.2,0,7.2h8.9v-17.6h-8.9
				c0,0,0,7,0,7.2c-0.2,0-15.2,0-15.4,0c0-0.2,0-7.2,0-7.2H129.8"/>
			<path id="XMLID_62_" class="st1" d="M240.8,213.8l-8.2,7.4l-8.5-7.4l-10.3-0.7v0.7c0,0,12.5,10.4,12.6,10.5c0,0.1,0,7.2,0,7.2
				h8.9c0,0,0-7.2,0-7.3c0.1,0,11.6-10.3,11.6-10.3v-0.7L240.8,213.8"/>
			<polyline id="XMLID_61_" class="st1" points="335.8,231.4 365.3,231.4 365.3,228.5 344.6,228.5 344.6,224 364.5,224 364.5,221 
				344.6,221 344.6,216.8 364.9,216.8 364.9,213.8 335.8,213.8 335.8,231.4 			"/>
			<path id="XMLID_60_" class="st1" d="M254.1,218.4c0,4.1,4.7,5.1,11.1,5.9c6.6,0.8,9.6,1,9.6,2.6c0,1.4-1.9,2.1-7.6,2.1
				c-6.4,0-11.8-1.6-12.6-1.8c0,0.1-0.6,2-0.8,3c-0.1,0.3,0,0.7,0,0.7c0.9,0.2,6,1.4,13.8,1.4c8.5,0,16.8-1.5,16.8-6.1
				c0-3.2-3.3-4.8-12.9-5.9c-3.9-0.5-8.1-0.8-8.1-2.3c0-1.1,1.1-1.7,6.8-1.7c5.6,0,10.2,1.2,11,1.4l0.7-4.1c-1-0.2-6.5-0.5-13.8-0.5
				C262,213,254.1,213.9,254.1,218.4"/>
			<path id="XMLID_59_" class="st1" d="M87.4,222.6c0,5.7,6,9.6,18.5,9.6c4.8,0,9.9-0.7,10.7-0.8l0.8-4.4c-1.1,0.1-5.2,1.4-9.7,1.4
				c-6.9,0-11.6-1.7-11.6-5.8c0-4.1,4.4-5.8,11.7-5.8c4.1,0,8.5,0.6,9.5,0.7v-0.7l-0.8-3c-1.3-0.1-5.7-0.8-10.5-0.8
				C93.5,213.1,87.4,216.8,87.4,222.6"/>
			<path id="XMLID_58_" class="st1" d="M176.7,231.4h8.9V217c1.2-0.1,2.6-0.2,4.6-0.2c2.1,0,3.7,0,5,0.2c2.7,0.4,3.6,1.3,3.6,2.4
				c0,1.2-1.2,2.3-3.9,2.7c-1.8,0.2-3,0.3-4.6,0.3c-0.7,0-2.7-0.8-2.7-0.8v0.7l10.1,9.1h11.3v-0.7l-10.2-6.6c2-0.1,2.7-0.2,4.7-0.9
				c2.7-0.9,4-2.3,4-3.8c0-2.1-1.3-3.8-6.3-4.9c-2.8-0.6-6.2-0.9-10.9-0.9c-6.4,0-12.9,0.2-13.6,0.3
				C176.7,213.8,176.7,231.4,176.7,231.4"/>
			<path id="XMLID_57_" class="st1" d="M377,231.4h8.9V217c1.2-0.1,2.6-0.2,4.6-0.2c2.1,0,3.7,0,5,0.2c2.7,0.4,3.6,1.3,3.5,2.4
				c0,1.2-1.2,2.3-3.9,2.7c-1.7,0.2-3,0.3-4.6,0.3c-0.8,0-2.7-0.8-2.7-0.8v0.7l10.1,9.1h11.3v-0.7l-10.2-6.6c2-0.1,2.7-0.2,4.8-0.9
				c2.7-0.9,4-2.3,4.1-3.8c0-2.1-1.3-3.8-6.3-4.9c-2.8-0.6-6.2-0.9-10.9-0.9c-6.4,0-12.9,0.2-13.6,0.3
				C377,213.8,377,231.4,377,231.4"/>
		</g>
		<g id="XMLID_4_">
			<linearGradient id="XMLID_91_" gradientUnits="userSpaceOnUse" x1="311.4152" y1="229.744" x2="311.4152" y2="213.2404">
				<stop  offset="0" style="stop-color:#FFFFFF"/>
				<stop  offset="0.2528" style="stop-color:#1E1E1E"/>
				<stop  offset="0.6629" style="stop-color:#C7C7C7"/>
				<stop  offset="0.8989" style="stop-color:#C7C7C7"/>
			</linearGradient>
			<polyline id="XMLID_56_" class="st2" points="296.9,229.7 325.9,229.7 325.9,226.7 305.8,226.7 305.8,213.2 296.9,213.2 
				296.9,229.7 			"/>
			<linearGradient id="XMLID_92_" gradientUnits="userSpaceOnUse" x1="146.3671" y1="229.744" x2="146.3671" y2="213.2404">
				<stop  offset="0" style="stop-color:#FFFFFF"/>
				<stop  offset="0.2528" style="stop-color:#1E1E1E"/>
				<stop  offset="0.6629" style="stop-color:#C7C7C7"/>
				<stop  offset="0.8989" style="stop-color:#C7C7C7"/>
			</linearGradient>
			<path id="XMLID_55_" class="st3" d="M129.8,213.2v16.5h8.9c0,0,0-6.5,0-6.7c0.2,0,15.2,0,15.4,0c0,0.2,0,6.7,0,6.7h8.9v-16.5
				h-8.9c0,0,0,6.5,0,6.7c-0.2,0-15.2,0-15.4,0c0-0.2,0-6.7,0-6.7H129.8"/>
			<linearGradient id="XMLID_93_" gradientUnits="userSpaceOnUse" x1="230.2181" y1="229.744" x2="230.2181" y2="213.1835">
				<stop  offset="0" style="stop-color:#FFFFFF"/>
				<stop  offset="0.2528" style="stop-color:#1E1E1E"/>
				<stop  offset="0.6629" style="stop-color:#C7C7C7"/>
				<stop  offset="0.8989" style="stop-color:#C7C7C7"/>
			</linearGradient>
			<path id="XMLID_54_" class="st4" d="M240.8,213.2l-8.2,7l-8.5-7l-10.2-0.1c0,0,12.4,9.8,12.5,9.8c0,0.1,0,6.7,0,6.7h8.9
				c0,0,0-6.8,0-6.9c0.1,0,11.5-9.7,11.5-9.7L240.8,213.2"/>
			<linearGradient id="XMLID_94_" gradientUnits="userSpaceOnUse" x1="350.5368" y1="229.744" x2="350.5368" y2="213.2404">
				<stop  offset="0" style="stop-color:#FFFFFF"/>
				<stop  offset="0.2528" style="stop-color:#1E1E1E"/>
				<stop  offset="0.6629" style="stop-color:#C7C7C7"/>
				<stop  offset="0.8989" style="stop-color:#C7C7C7"/>
			</linearGradient>
			<polyline id="XMLID_53_" class="st5" points="335.8,229.7 365.3,229.7 365.3,227 344.6,227 344.6,222.8 364.5,222.8 364.5,220 
				344.6,220 344.6,216 364.9,216 364.9,213.2 335.8,213.2 335.8,229.7 			"/>
			<linearGradient id="XMLID_96_" gradientUnits="userSpaceOnUse" x1="269.1178" y1="230.4571" x2="269.1178" y2="212.5071">
				<stop  offset="0" style="stop-color:#FFFFFF"/>
				<stop  offset="0.2528" style="stop-color:#1E1E1E"/>
				<stop  offset="0.6629" style="stop-color:#C7C7C7"/>
				<stop  offset="0.8989" style="stop-color:#C7C7C7"/>
			</linearGradient>
			<path id="XMLID_52_" class="st6" d="M254.1,217.5c0,3.8,4.7,4.7,11.1,5.5c6.6,0.8,9.6,1,9.6,2.4c0,1.3-1.9,2-7.6,2
				c-6.4,0-11.8-1.5-12.6-1.7c0,0.2-0.8,4.4-0.8,4.4c0.9,0.2,6,0.3,13.8,0.3c8.5,0,16.8-1.4,16.8-5.7c0-3-3.3-4.5-12.9-5.5
				c-3.9-0.4-8.1-0.7-8.1-2.1c0-1.1,1.1-1.5,6.8-1.5c5.6,0,10.2,1.1,11,1.3l0.7-3.2c-1-0.2-6.5-1.1-13.8-1.1
				C262,212.5,254.1,213.3,254.1,217.5"/>
			<linearGradient id="XMLID_97_" gradientUnits="userSpaceOnUse" x1="102.36" y1="230.4571" x2="102.36" y2="212.5406">
				<stop  offset="0" style="stop-color:#FFFFFF"/>
				<stop  offset="0.2528" style="stop-color:#1E1E1E"/>
				<stop  offset="0.6629" style="stop-color:#C7C7C7"/>
				<stop  offset="0.8989" style="stop-color:#C7C7C7"/>
			</linearGradient>
			<path id="XMLID_51_" class="st7" d="M87.4,221.5c0,5.3,6,9,18.5,9c4.8,0,9.9-0.7,10.7-0.8l0.8-2.7v-0.8c-1.1,0.1-5.2,0.7-9.7,0.7
				c-6.9,0-11.6-1.6-11.6-5.4c0-3.8,4.4-5.4,11.7-5.4c4.1,0,8.5,0.5,9.5,0.7l-0.8-3.5c-1.3-0.1-5.7-0.8-10.5-0.8
				C93.5,212.5,87.4,216,87.4,221.5"/>
			<linearGradient id="XMLID_98_" gradientUnits="userSpaceOnUse" x1="192.7444" y1="230.7466" x2="192.7444" y2="212.9856">
				<stop  offset="0" style="stop-color:#FFFFFF"/>
				<stop  offset="0.2528" style="stop-color:#1E1E1E"/>
				<stop  offset="0.6629" style="stop-color:#C7C7C7"/>
				<stop  offset="0.8989" style="stop-color:#C7C7C7"/>
			</linearGradient>
			<path id="XMLID_50_" class="st8" d="M176.7,229.7h8.9v-13.6c1.2-0.1,2.6-0.2,4.6-0.2c2.1,0,3.7,0,5,0.2c2.7,0.4,3.6,1.2,3.6,2.3
				c0,1.1-1.2,2.1-3.9,2.5c-1.8,0.2-3,0.3-4.6,0.3c-0.9,0-1.6,0-2.7-0.1v0.4l10.1,8.1l11.3,1v-1l-10.2-6.9c2-0.1,2.7-0.2,4.7-0.8
				c2.7-0.8,4-2.1,4-3.6c0-1.9-1.3-3.6-6.3-4.6c-2.8-0.6-6.2-0.8-10.9-0.8c-6.4,0-12.9,0.2-13.6,0.3
				C176.7,213.3,176.7,229.7,176.7,229.7"/>
			<linearGradient id="XMLID_102_" gradientUnits="userSpaceOnUse" x1="393.0941" y1="230.7466" x2="393.0941" y2="212.9856">
				<stop  offset="0" style="stop-color:#FFFFFF"/>
				<stop  offset="0.2528" style="stop-color:#1E1E1E"/>
				<stop  offset="0.6629" style="stop-color:#C7C7C7"/>
				<stop  offset="0.8989" style="stop-color:#C7C7C7"/>
			</linearGradient>
			<path id="XMLID_49_" class="st9" d="M377,229.7h8.9v-13.6c1.2-0.1,2.6-0.2,4.6-0.2c2.1,0,3.7,0,5,0.2c2.7,0.4,3.6,1.2,3.5,2.3
				c0,1.1-1.2,2.1-3.9,2.5c-1.7,0.2-3,0.3-4.6,0.3c-0.9,0-1.6,0-2.7-0.1v0.4l10.1,8.1l11.3,1v-1l-10.2-6.9c2-0.1,2.7-0.2,4.8-0.8
				c2.7-0.8,4-2.1,4.1-3.6c0-1.9-1.3-3.6-6.3-4.6c-2.8-0.6-6.2-0.8-10.9-0.8c-6.4,0-12.9,0.2-13.6,0.3
				C377,213.3,377,229.7,377,229.7"/>
		</g>
		<g id="XMLID_5_">
			<linearGradient id="XMLID_103_" gradientUnits="userSpaceOnUse" x1="311.4152" y1="230.7466" x2="311.4152" y2="213.1151">
				<stop  offset="2.808990e-002" style="stop-color:#3C3C3C"/>
				<stop  offset="6.179780e-002" style="stop-color:#2D2D2D"/>
				<stop  offset="0.2362" style="stop-color:#787878"/>
				<stop  offset="0.3427" style="stop-color:#A1A1A1"/>
				<stop  offset="0.5787" style="stop-color:#FFFFFF"/>
				<stop  offset="0.7809" style="stop-color:#E9E9E9"/>
				<stop  offset="0.9101" style="stop-color:#CCCCCC"/>
				<stop  offset="1" style="stop-color:#8B8B8B"/>
			</linearGradient>
			<polyline id="XMLID_48_" class="st10" points="296.9,230.7 325.9,230.7 325.9,227.5 305.8,227.5 305.8,213.1 296.9,213.1 
				296.9,230.7 			"/>
			<linearGradient id="XMLID_104_" gradientUnits="userSpaceOnUse" x1="146.3671" y1="230.7466" x2="146.3671" y2="213.1151">
				<stop  offset="2.808990e-002" style="stop-color:#3C3C3C"/>
				<stop  offset="6.179780e-002" style="stop-color:#2D2D2D"/>
				<stop  offset="0.2362" style="stop-color:#787878"/>
				<stop  offset="0.3427" style="stop-color:#A1A1A1"/>
				<stop  offset="0.5787" style="stop-color:#FFFFFF"/>
				<stop  offset="0.7809" style="stop-color:#E9E9E9"/>
				<stop  offset="0.9101" style="stop-color:#CCCCCC"/>
				<stop  offset="1" style="stop-color:#8B8B8B"/>
			</linearGradient>
			<path id="XMLID_47_" class="st11" d="M129.8,213.1v17.6h8.9c0,0,0-7,0-7.2c0.2,0,15.2,0,15.4,0c0,0.2,0,7.2,0,7.2h8.9v-17.6h-8.9
				c0,0,0,7,0,7.2c-0.2,0-15.2,0-15.4,0c0-0.2,0-7.2,0-7.2H129.8"/>
			<linearGradient id="XMLID_105_" gradientUnits="userSpaceOnUse" x1="230.2265" y1="230.7466" x2="230.2265" y2="213.1151">
				<stop  offset="2.808990e-002" style="stop-color:#3C3C3C"/>
				<stop  offset="6.179780e-002" style="stop-color:#2D2D2D"/>
				<stop  offset="0.2362" style="stop-color:#787878"/>
				<stop  offset="0.3427" style="stop-color:#A1A1A1"/>
				<stop  offset="0.5787" style="stop-color:#FFFFFF"/>
				<stop  offset="0.7809" style="stop-color:#E9E9E9"/>
				<stop  offset="0.9101" style="stop-color:#CCCCCC"/>
				<stop  offset="1" style="stop-color:#8B8B8B"/>
			</linearGradient>
			<path id="XMLID_46_" class="st12" d="M240.8,213.1l-8.2,7.4l-8.5-7.4h-10.3c0,0,12.5,10.4,12.6,10.5c0,0.1,0,7.2,0,7.2h8.9
				c0,0,0-7.2,0-7.3c0.1,0,11.6-10.3,11.6-10.3H240.8"/>
			<linearGradient id="XMLID_110_" gradientUnits="userSpaceOnUse" x1="350.5368" y1="230.7466" x2="350.5368" y2="213.1151">
				<stop  offset="2.808990e-002" style="stop-color:#3C3C3C"/>
				<stop  offset="6.179780e-002" style="stop-color:#2D2D2D"/>
				<stop  offset="0.2362" style="stop-color:#787878"/>
				<stop  offset="0.3427" style="stop-color:#A1A1A1"/>
				<stop  offset="0.5787" style="stop-color:#FFFFFF"/>
				<stop  offset="0.7809" style="stop-color:#E9E9E9"/>
				<stop  offset="0.9101" style="stop-color:#CCCCCC"/>
				<stop  offset="1" style="stop-color:#8B8B8B"/>
			</linearGradient>
			<polyline id="XMLID_45_" class="st13" points="335.8,230.7 365.3,230.7 365.3,227.8 344.6,227.8 344.6,223.3 364.5,223.3 
				364.5,220.3 344.6,220.3 344.6,216.1 364.9,216.1 364.9,213.1 335.8,213.1 335.8,230.7 			"/>
			<linearGradient id="XMLID_111_" gradientUnits="userSpaceOnUse" x1="269.1178" y1="231.5083" x2="269.1178" y2="212.3319">
				<stop  offset="2.808990e-002" style="stop-color:#3C3C3C"/>
				<stop  offset="6.179780e-002" style="stop-color:#2D2D2D"/>
				<stop  offset="0.2362" style="stop-color:#787878"/>
				<stop  offset="0.3427" style="stop-color:#A1A1A1"/>
				<stop  offset="0.5787" style="stop-color:#FFFFFF"/>
				<stop  offset="0.7809" style="stop-color:#E9E9E9"/>
				<stop  offset="0.9101" style="stop-color:#CCCCCC"/>
				<stop  offset="1" style="stop-color:#8B8B8B"/>
			</linearGradient>
			<path id="XMLID_44_" class="st14" d="M254.1,217.7c0,4.1,4.7,5.1,11.1,5.9c6.6,0.8,9.6,1,9.6,2.6c0,1.4-1.9,2.1-7.6,2.1
				c-6.4,0-11.8-1.6-12.6-1.8c0,0.2-0.8,3.7-0.8,3.7c0.9,0.2,6,1.4,13.8,1.4c8.5,0,16.8-1.5,16.8-6.1c0-3.2-3.3-4.8-12.9-5.9
				c-3.9-0.5-8.1-0.8-8.1-2.3c0-1.1,1.1-1.7,6.8-1.7c5.6,0,10.2,1.2,11,1.4l0.7-3.4c-1-0.2-6.5-1.2-13.8-1.2
				C262,212.3,254.1,213.2,254.1,217.7"/>
			<linearGradient id="XMLID_112_" gradientUnits="userSpaceOnUse" x1="102.36" y1="231.5083" x2="102.36" y2="212.3678">
				<stop  offset="2.808990e-002" style="stop-color:#3C3C3C"/>
				<stop  offset="6.179780e-002" style="stop-color:#2D2D2D"/>
				<stop  offset="0.2362" style="stop-color:#787878"/>
				<stop  offset="0.3427" style="stop-color:#A1A1A1"/>
				<stop  offset="0.5787" style="stop-color:#FFFFFF"/>
				<stop  offset="0.7809" style="stop-color:#E9E9E9"/>
				<stop  offset="0.9101" style="stop-color:#CCCCCC"/>
				<stop  offset="1" style="stop-color:#8B8B8B"/>
			</linearGradient>
			<path id="XMLID_43_" class="st15" d="M87.4,221.9c0,5.7,6,9.6,18.5,9.6c4.8,0,9.9-0.7,10.7-0.8l0.8-3.7c-1.1,0.1-5.2,0.7-9.7,0.7
				c-6.9,0-11.6-1.7-11.6-5.8c0-4.1,4.4-5.8,11.7-5.8c4.1,0,8.5,0.6,9.5,0.7l-0.8-3.7c-1.3-0.1-5.7-0.8-10.5-0.8
				C93.5,212.4,87.4,216.1,87.4,221.9"/>
			<linearGradient id="XMLID_113_" gradientUnits="userSpaceOnUse" x1="192.7444" y1="230.7466" x2="192.7444" y2="212.8432">
				<stop  offset="2.808990e-002" style="stop-color:#3C3C3C"/>
				<stop  offset="6.179780e-002" style="stop-color:#2D2D2D"/>
				<stop  offset="0.2362" style="stop-color:#787878"/>
				<stop  offset="0.3427" style="stop-color:#A1A1A1"/>
				<stop  offset="0.5787" style="stop-color:#FFFFFF"/>
				<stop  offset="0.7809" style="stop-color:#E9E9E9"/>
				<stop  offset="0.9101" style="stop-color:#CCCCCC"/>
				<stop  offset="1" style="stop-color:#8B8B8B"/>
			</linearGradient>
			<path id="XMLID_42_" class="st16" d="M176.7,230.7h8.9v-14.5c1.2-0.1,2.6-0.2,4.6-0.2c2.1,0,3.7,0,5,0.2c2.7,0.4,3.6,1.3,3.6,2.4
				c0,1.2-1.2,2.3-3.9,2.7c-1.8,0.2-3,0.3-4.6,0.3c-0.9,0-1.6,0-2.7-0.1l10.1,9.1h11.3l-10.2-7.3c2-0.1,2.7-0.2,4.7-0.9
				c2.7-0.9,4-2.3,4-3.8c0-2.1-1.3-3.8-6.3-4.9c-2.8-0.6-6.2-0.9-10.9-0.9c-6.4,0-12.9,0.2-13.6,0.3
				C176.7,213.1,176.7,230.7,176.7,230.7"/>
			<linearGradient id="XMLID_114_" gradientUnits="userSpaceOnUse" x1="393.0941" y1="230.7466" x2="393.0941" y2="212.8432">
				<stop  offset="2.808990e-002" style="stop-color:#3C3C3C"/>
				<stop  offset="6.179780e-002" style="stop-color:#2D2D2D"/>
				<stop  offset="0.2362" style="stop-color:#787878"/>
				<stop  offset="0.3427" style="stop-color:#A1A1A1"/>
				<stop  offset="0.5787" style="stop-color:#FFFFFF"/>
				<stop  offset="0.7809" style="stop-color:#E9E9E9"/>
				<stop  offset="0.9101" style="stop-color:#CCCCCC"/>
				<stop  offset="1" style="stop-color:#8B8B8B"/>
			</linearGradient>
			<path id="XMLID_41_" class="st17" d="M377,230.7h8.9v-14.5c1.2-0.1,2.6-0.2,4.6-0.2c2.1,0,3.7,0,5,0.2c2.7,0.4,3.6,1.3,3.5,2.4
				c0,1.2-1.2,2.3-3.9,2.7c-1.7,0.2-3,0.3-4.6,0.3c-0.9,0-1.6,0-2.7-0.1l10.1,9.1h11.3l-10.2-7.3c2-0.1,2.7-0.2,4.8-0.9
				c2.7-0.9,4-2.3,4.1-3.8c0-2.1-1.3-3.8-6.3-4.9c-2.8-0.6-6.2-0.9-10.9-0.9c-6.4,0-12.9,0.2-13.6,0.3
				C377,213.1,377,230.7,377,230.7"/>
		</g>
	</g>
	<g id="XMLID_6_">
		<linearGradient id="XMLID_115_" gradientUnits="userSpaceOnUse" x1="156.6532" y1="281.6481" x2="159.819" y2="245.4638">
			<stop  offset="2.808990e-002" style="stop-color:#3C3C3C"/>
			<stop  offset="6.179780e-002" style="stop-color:#2D2D2D"/>
			<stop  offset="0.2183" style="stop-color:#8F8F8F"/>
			<stop  offset="0.2921" style="stop-color:#B8B8B8"/>
			<stop  offset="0.5169" style="stop-color:#474747"/>
			<stop  offset="0.5787" style="stop-color:#FFFFFF"/>
			<stop  offset="0.7809" style="stop-color:#E9E9E9"/>
			<stop  offset="0.882" style="stop-color:#CCCCCC"/>
			<stop  offset="0.9382" style="stop-color:#8B8B8B"/>
			<stop  offset="1" style="stop-color:#606060"/>
		</linearGradient>
		<path id="XMLID_40_" class="st18" d="M250.6,284.8c-4.3-0.2-11.5,0.5-13.6,1.3c-2.4,1-3.2,1.6-9,1.6c-5.9,0-17.4-1.6-17.4-1.6
			S87.7,267.3,84.4,266.2s-7.4-3.3-12.1-6.1c-4.6-2.8-7.3-5.3-7.3-7.2c0-1.8,2.9-2.3,2.9-2.3l135.5-0.8c0,0,5.6-0.2,7.5,0.2
			c1.9,0.5,10.1,4.2,12.6,4.7c6.1,1.2,27.1,0.7,27.1,0.7"/>
		<path id="XMLID_39_" class="st19" d="M87.8,256.5l84.1,1.4c0,0,2.7,0.1,4.5,0.6c1.8,0.5,3.7,1.9,3.7,1.9h21.3c0,0-7.3,0.2-7.9,0.5
			c-0.6,0.3-0.2,0.5-0.2,0.5H178l0.6,0.6l4.6,0.6l3.5,2.9h16.8c0,0-3.2,0.6-3.8,1.1c-0.6,0.5-0.6,0.5-0.6,0.5h-12.6
			c0,0,0.4,0.7,2.2,0.8c1.8,0.1,2,0.5,2.8,0.7c0.8,0.2,4.4,3.3,11.7,5.4c7.3,2.1,20.3,4.3,20.3,4.3s-18.8-0.4-27-3.9
			c-8.2-3.5-19.3-11.6-21.8-12.6c-2.5-1-5.1-0.7-5.1-0.7s-57.2-2.3-63.7-2.8C99.4,257.8,87.8,256.5,87.8,256.5z"/>
		
			<linearGradient id="XMLID_116_" gradientUnits="userSpaceOnUse" x1="420.4023" y1="281.648" x2="423.568" y2="245.4637" gradientTransform="matrix(-1 0 0 1 763.75 0)">
			<stop  offset="2.808990e-002" style="stop-color:#3C3C3C"/>
			<stop  offset="6.179780e-002" style="stop-color:#2D2D2D"/>
			<stop  offset="0.2183" style="stop-color:#8F8F8F"/>
			<stop  offset="0.2921" style="stop-color:#B8B8B8"/>
			<stop  offset="0.5169" style="stop-color:#474747"/>
			<stop  offset="0.5787" style="stop-color:#FFFFFF"/>
			<stop  offset="0.7809" style="stop-color:#E9E9E9"/>
			<stop  offset="0.882" style="stop-color:#CCCCCC"/>
			<stop  offset="0.9382" style="stop-color:#8B8B8B"/>
			<stop  offset="1" style="stop-color:#606060"/>
		</linearGradient>
		<path id="XMLID_38_" class="st20" d="M249.4,284.8c4.3-0.2,11.5,0.5,13.6,1.3c2.4,1,3.2,1.6,9,1.6c5.9,0,17.4-1.6,17.4-1.6
			s122.8-18.7,126.1-19.9c3.3-1.1,7.4-3.3,12.1-6.1c4.6-2.8,7.3-5.3,7.3-7.2c0-1.8-2.9-2.3-2.9-2.3l-135.5-0.8c0,0-5.6-0.2-7.5,0.2
			c-1.9,0.5-10.1,4.2-12.6,4.7c-6.1,1.2-27.1,0.7-27.1,0.7"/>
		<path id="XMLID_37_" class="st19" d="M412.2,256.5l-84.1,1.4c0,0-2.7,0.1-4.5,0.6c-1.8,0.5-3.7,1.9-3.7,1.9h-21.3
			c0,0,7.3,0.2,7.9,0.5c0.6,0.3,0.2,0.5,0.2,0.5H322l-0.6,0.6l-4.6,0.6l-3.5,2.9h-16.8c0,0,3.2,0.6,3.8,1.1c0.6,0.5,0.6,0.5,0.6,0.5
			h12.6c0,0-0.4,0.7-2.2,0.8c-1.8,0.1-2,0.5-2.8,0.7c-0.8,0.2-4.4,3.3-11.7,5.4c-7.3,2.1-20.3,4.3-20.3,4.3s18.8-0.4,27-3.9
			c8.2-3.5,19.3-11.6,21.8-12.6c2.5-1,5.1-0.7,5.1-0.7s57.2-2.3,63.7-2.8C400.6,257.8,412.2,256.5,412.2,256.5z"/>
		<g id="XMLID_7_">
			<path id="XMLID_36_" class="st21" d="M250.6,271.8c0,0-15.8-0.1-25.9,0c-10.1,0.1-12.2-1.4-16.4-4.9c-5.6-4.7-4.9-6.9-4.9-6.9
				h47.2"/>
		</g>
		<linearGradient id="XMLID_117_" gradientUnits="userSpaceOnUse" x1="227.3023" y1="271.6688" x2="227.3023" y2="260.1049">
			<stop  offset="5.617980e-003" style="stop-color:#000000"/>
			<stop  offset="0.118" style="stop-color:#00205F"/>
			<stop  offset="0.3315" style="stop-color:#00053F"/>
			<stop  offset="0.7584" style="stop-color:#000747"/>
			<stop  offset="0.8989" style="stop-color:#001E9F"/>
			<stop  offset="1" style="stop-color:#000000"/>
		</linearGradient>
		<path id="XMLID_35_" class="st22" d="M250.6,271.7c0,0-15.6-0.1-25.5,0c-9.9,0.1-12.5-1.7-16.2-4.9c-5.4-4.7-4.8-6.7-4.8-6.7h46.5
			"/>
		<g id="XMLID_8_">
			<path id="XMLID_34_" class="st21" d="M248.9,271.8c0,0,15.8-0.1,25.9,0c10.1,0.1,12.2-1.4,16.4-4.9c5.6-4.7,4.9-6.9,4.9-6.9
				h-47.2"/>
		</g>
		
			<linearGradient id="XMLID_118_" gradientUnits="userSpaceOnUse" x1="290.5218" y1="271.6688" x2="290.5218" y2="260.1049" gradientTransform="matrix(-1 0 0 1 561.9766 0)">
			<stop  offset="5.617980e-003" style="stop-color:#000000"/>
			<stop  offset="0.118" style="stop-color:#00205F"/>
			<stop  offset="0.3315" style="stop-color:#00053F"/>
			<stop  offset="0.7584" style="stop-color:#000747"/>
			<stop  offset="0.8989" style="stop-color:#001E9F"/>
			<stop  offset="1" style="stop-color:#000000"/>
		</linearGradient>
		<path id="XMLID_33_" class="st23" d="M248.9,271.7c0,0,15.6-0.1,25.5,0c9.9,0.1,12.5-1.7,16.2-4.9c5.4-4.7,4.8-6.7,4.8-6.7h-47.9"
			/>
		<g id="XMLID_9_">
			<polyline id="XMLID_32_" class="st21" points="259.2,267.2 265.8,267.2 265.8,266.4 261.2,266.4 261.2,263.2 259.2,263.2 
				259.2,267.2 			"/>
			<linearGradient id="XMLID_119_" gradientUnits="userSpaceOnUse" x1="262.4672" y1="267.081" x2="262.4672" y2="263.2997">
				<stop  offset="2.808990e-002" style="stop-color:#686868"/>
				<stop  offset="0.3427" style="stop-color:#A1A1A1"/>
				<stop  offset="0.5787" style="stop-color:#FFFFFF"/>
				<stop  offset="0.7809" style="stop-color:#E9E9E9"/>
				<stop  offset="0.9101" style="stop-color:#CCCCCC"/>
				<stop  offset="1" style="stop-color:#8B8B8B"/>
			</linearGradient>
			<polyline id="XMLID_31_" class="st24" points="259.4,267.1 265.6,267.1 265.6,266.4 261.3,266.4 261.3,263.3 259.4,263.3 
				259.4,267.1 			"/>
			<path id="XMLID_30_" class="st21" d="M223.4,263.2v4h2c0,0,0-1.6,0-1.6c0,0,3.4,0,3.5,0c0,0,0,1.6,0,1.6h2v-4h-2c0,0,0,1.6,0,1.6
				c0,0-3.4,0-3.5,0c0,0,0-1.6,0-1.6H223.4"/>
			<linearGradient id="XMLID_120_" gradientUnits="userSpaceOnUse" x1="227.0714" y1="267.081" x2="227.0714" y2="263.2997">
				<stop  offset="2.808990e-002" style="stop-color:#686868"/>
				<stop  offset="0.3427" style="stop-color:#A1A1A1"/>
				<stop  offset="0.5787" style="stop-color:#FFFFFF"/>
				<stop  offset="0.7809" style="stop-color:#E9E9E9"/>
				<stop  offset="0.9101" style="stop-color:#CCCCCC"/>
				<stop  offset="1" style="stop-color:#8B8B8B"/>
			</linearGradient>
			<path id="XMLID_29_" class="st25" d="M223.5,263.3v3.8h1.9c0,0,0-1.5,0-1.5c0,0,3.3,0,3.3,0c0,0,0,1.5,0,1.5h1.9v-3.8h-1.9
				c0,0,0,1.5,0,1.5c0,0-3.3,0-3.3,0c0,0,0-1.5,0-1.5H223.5"/>
			<path id="XMLID_28_" class="st21" d="M247.5,263.1l-1.9,1.7l-2-1.7h-2.4c0,0,2.9,2.4,2.9,2.4c0,0,0,1.7,0,1.7h2.1
				c0,0,0-1.7,0-1.7c0,0,2.7-2.4,2.7-2.4H247.5"/>
			<linearGradient id="XMLID_121_" gradientUnits="userSpaceOnUse" x1="245.0559" y1="267.081" x2="245.0559" y2="263.2997">
				<stop  offset="2.808990e-002" style="stop-color:#686868"/>
				<stop  offset="0.3427" style="stop-color:#A1A1A1"/>
				<stop  offset="0.5787" style="stop-color:#FFFFFF"/>
				<stop  offset="0.7809" style="stop-color:#E9E9E9"/>
				<stop  offset="0.9101" style="stop-color:#CCCCCC"/>
				<stop  offset="1" style="stop-color:#8B8B8B"/>
			</linearGradient>
			<path id="XMLID_27_" class="st26" d="M247.3,263.3l-1.8,1.6l-1.8-1.6h-2.2c0,0,2.7,2.2,2.7,2.2c0,0,0,1.5,0,1.5h1.9
				c0,0,0-1.5,0-1.6c0,0,2.5-2.2,2.5-2.2H247.3"/>
			<polyline id="XMLID_26_" class="st21" points="267.5,267.2 274.2,267.2 274.2,266.5 269.5,266.5 269.5,265.5 274,265.5 
				274,264.8 269.5,264.8 269.5,263.9 274.1,263.9 274.1,263.2 267.5,263.2 267.5,267.2 			"/>
			<linearGradient id="XMLID_122_" gradientUnits="userSpaceOnUse" x1="270.8575" y1="267.081" x2="270.8575" y2="263.2997">
				<stop  offset="2.808990e-002" style="stop-color:#686868"/>
				<stop  offset="0.3427" style="stop-color:#A1A1A1"/>
				<stop  offset="0.5787" style="stop-color:#FFFFFF"/>
				<stop  offset="0.7809" style="stop-color:#E9E9E9"/>
				<stop  offset="0.9101" style="stop-color:#CCCCCC"/>
				<stop  offset="1" style="stop-color:#8B8B8B"/>
			</linearGradient>
			<polyline id="XMLID_25_" class="st27" points="267.7,267.1 274,267.1 274,266.4 269.6,266.4 269.6,265.5 273.9,265.5 
				273.9,264.8 269.6,264.8 269.6,263.9 273.9,263.9 273.9,263.3 267.7,263.3 267.7,267.1 			"/>
			<path id="XMLID_24_" class="st21" d="M249.9,264.2c0,0.9,1.1,1.2,2.6,1.3c1.5,0.2,2.2,0.2,2.2,0.6c0,0.3-0.4,0.5-1.7,0.5
				c-1.5,0-2.7-0.4-2.9-0.4c0,0-0.2,0.8-0.2,0.8c0.2,0,1.4,0.3,3.2,0.3c2,0,3.9-0.3,3.9-1.4c0-0.7-0.8-1.1-3-1.4
				c-0.9-0.1-1.9-0.2-1.9-0.5c0-0.3,0.3-0.4,1.6-0.4c1.3,0,2.4,0.3,2.5,0.3l0.2-0.8c-0.2,0-1.5-0.3-3.2-0.3
				C251.8,263,249.9,263.2,249.9,264.2"/>
			<linearGradient id="XMLID_123_" gradientUnits="userSpaceOnUse" x1="253.3967" y1="267.2442" x2="253.3967" y2="263.132">
				<stop  offset="2.808990e-002" style="stop-color:#686868"/>
				<stop  offset="0.3427" style="stop-color:#A1A1A1"/>
				<stop  offset="0.5787" style="stop-color:#FFFFFF"/>
				<stop  offset="0.7809" style="stop-color:#E9E9E9"/>
				<stop  offset="0.9101" style="stop-color:#CCCCCC"/>
				<stop  offset="1" style="stop-color:#8B8B8B"/>
			</linearGradient>
			<path id="XMLID_21_" class="st28" d="M250.2,264.3c0,0.9,1,1.1,2.4,1.3c1.4,0.2,2.1,0.2,2.1,0.6c0,0.3-0.4,0.5-1.6,0.5
				c-1.4,0-2.5-0.3-2.7-0.4c0,0-0.2,0.8-0.2,0.8c0.2,0,1.3,0.3,2.9,0.3c1.8,0,3.6-0.3,3.6-1.3c0-0.7-0.7-1-2.8-1.3
				c-0.8-0.1-1.7-0.2-1.7-0.5c0-0.2,0.2-0.4,1.4-0.4c1.2,0,2.2,0.3,2.4,0.3l0.2-0.7c-0.2,0-1.4-0.3-3-0.3
				C251.9,263.1,250.2,263.3,250.2,264.3"/>
			<path id="XMLID_20_" class="st21" d="M214.2,265.2c0,1.3,1.4,2.2,4.2,2.2c1.1,0,2.2-0.2,2.4-0.2l0.2-0.8c-0.2,0-1.2,0.2-2.2,0.2
				c-1.6,0-2.6-0.4-2.6-1.3c0-0.9,1-1.3,2.6-1.3c0.9,0,1.9,0.1,2.2,0.2l-0.2-0.8c-0.3,0-1.3-0.2-2.4-0.2
				C215.6,263,214.2,263.9,214.2,265.2"/>
			<linearGradient id="XMLID_124_" gradientUnits="userSpaceOnUse" x1="217.6337" y1="267.2442" x2="217.6337" y2="263.1392">
				<stop  offset="2.808990e-002" style="stop-color:#686868"/>
				<stop  offset="0.3427" style="stop-color:#A1A1A1"/>
				<stop  offset="0.5787" style="stop-color:#FFFFFF"/>
				<stop  offset="0.7809" style="stop-color:#E9E9E9"/>
				<stop  offset="0.9101" style="stop-color:#CCCCCC"/>
				<stop  offset="1" style="stop-color:#8B8B8B"/>
			</linearGradient>
			<path id="XMLID_19_" class="st29" d="M214.4,265.2c0,1.2,1.3,2.1,4,2.1c1,0,2.1-0.2,2.3-0.2l0.2-0.8c-0.2,0-1.1,0.2-2.1,0.2
				c-1.5,0-2.5-0.4-2.5-1.2c0-0.9,1-1.2,2.5-1.2c0.9,0,1.8,0.1,2,0.2l-0.2-0.8c-0.3,0-1.2-0.2-2.2-0.2
				C215.7,263.1,214.4,263.9,214.4,265.2"/>
			<path id="XMLID_18_" class="st21" d="M233.5,267.1h2v-3.2c0.3,0,0.6,0,1,0c0.5,0,0.8,0,1.1,0c0.6,0.1,0.8,0.3,0.8,0.5
				c0,0.3-0.3,0.5-0.9,0.6c-0.4,0.1-0.7,0.1-1,0.1c-0.2,0-0.4,0-0.6,0l2.2,2h2.5l-2.3-1.6c0.4,0,0.6-0.1,1.1-0.2
				c0.6-0.2,0.9-0.5,0.9-0.9c0-0.5-0.3-0.8-1.4-1.1c-0.6-0.1-1.4-0.2-2.4-0.2c-1.4,0-2.9,0.1-3,0.1
				C233.5,263.2,233.5,267.1,233.5,267.1"/>
			<linearGradient id="XMLID_125_" gradientUnits="userSpaceOnUse" x1="237.0176" y1="267.081" x2="237.0176" y2="263.2415">
				<stop  offset="2.808990e-002" style="stop-color:#686868"/>
				<stop  offset="0.3427" style="stop-color:#A1A1A1"/>
				<stop  offset="0.5787" style="stop-color:#FFFFFF"/>
				<stop  offset="0.7809" style="stop-color:#E9E9E9"/>
				<stop  offset="0.9101" style="stop-color:#CCCCCC"/>
				<stop  offset="1" style="stop-color:#8B8B8B"/>
			</linearGradient>
			<path id="XMLID_15_" class="st30" d="M233.6,267.1h1.9V264c0.3,0,0.6,0,1,0c0.5,0,0.8,0,1.1,0c0.6,0.1,0.8,0.3,0.8,0.5
				c0,0.3-0.3,0.5-0.8,0.6c-0.4,0.1-0.6,0.1-1,0.1c-0.2,0-0.3,0-0.6,0l2.2,2h2.4l-2.2-1.6c0.4,0,0.6,0,1-0.2
				c0.6-0.2,0.9-0.5,0.9-0.8c0-0.4-0.3-0.8-1.3-1.1c-0.6-0.1-1.3-0.2-2.3-0.2c-1.4,0-2.8,0.1-2.9,0.1
				C233.6,263.3,233.6,267.1,233.6,267.1"/>
			<path id="XMLID_14_" class="st21" d="M276.3,267.2h2v-3.3c0.3,0,0.6-0.1,1.1-0.1c0.5,0,0.8,0,1.1,0.1c0.6,0.1,0.8,0.3,0.8,0.6
				c0,0.3-0.3,0.5-0.9,0.6c-0.4,0.1-0.7,0.1-1,0.1c-0.2,0-0.4,0-0.6,0l2.3,2.1h2.6l-2.3-1.7c0.5,0,0.6-0.1,1.1-0.2
				c0.6-0.2,0.9-0.5,0.9-0.9c0-0.5-0.3-0.9-1.4-1.1c-0.6-0.1-1.4-0.2-2.5-0.2c-1.5,0-2.9,0.1-3.1,0.1
				C276.3,263.2,276.3,267.2,276.3,267.2"/>
			<linearGradient id="XMLID_126_" gradientUnits="userSpaceOnUse" x1="279.9848" y1="267.081" x2="279.9848" y2="263.2415">
				<stop  offset="2.808990e-002" style="stop-color:#686868"/>
				<stop  offset="0.3427" style="stop-color:#A1A1A1"/>
				<stop  offset="0.5787" style="stop-color:#FFFFFF"/>
				<stop  offset="0.7809" style="stop-color:#E9E9E9"/>
				<stop  offset="0.9101" style="stop-color:#CCCCCC"/>
				<stop  offset="1" style="stop-color:#8B8B8B"/>
			</linearGradient>
			<path id="XMLID_13_" class="st31" d="M276.5,267.1h1.9V264c0.3,0,0.5,0,1,0c0.5,0,0.8,0,1.1,0c0.6,0.1,0.8,0.3,0.8,0.5
				c0,0.3-0.3,0.5-0.8,0.6c-0.4,0.1-0.6,0.1-1,0.1c-0.2,0-0.3,0-0.6,0l2.2,2h2.4l-2.2-1.6c0.4,0,0.6,0,1-0.2
				c0.6-0.2,0.9-0.5,0.9-0.8c0-0.4-0.3-0.8-1.3-1.1c-0.6-0.1-1.3-0.2-2.3-0.2c-1.4,0-2.8,0.1-2.9,0.1
				C276.5,263.3,276.5,267.1,276.5,267.1"/>
		</g>
		<linearGradient id="XMLID_127_" gradientUnits="userSpaceOnUse" x1="206.2902" y1="264.5431" x2="184.0997" y2="264.5431">
			<stop  offset="0.1461" style="stop-color:#DADADA"/>
			<stop  offset="1" style="stop-color:#666666"/>
		</linearGradient>
		<polyline id="XMLID_12_" class="st32" points="203.9,263.3 184.1,263.3 187,265.8 206.3,265.8 		"/>
		<path id="XMLID_11_" class="st33" d="M201.4,260.4c0,0-5.1,0-6.8,0.1c-1.5,0.1-1.9,0.9-1.9,0.9s3.7,1.1,5.4,1.1
			c1.1,0.1,5.1,0.3,5.1,0.3L201.4,260.4z"/>
		<path id="XMLID_10_" class="st34" d="M199,267.1H186c0,0,1.1,1.4,2.9,1.5c1.9,0.1,17.5,0,17.5,0L199,267.1z"/>
		<path id="XMLID_16_" class="st34" d="M300.5,267.1h13.1c0,0-1.1,1.4-2.9,1.5c-1.9,0.1-17.5,0-17.5,0L300.5,267.1z"/>
		<path id="XMLID_22_" class="st35" d="M204.8,265.9c-1.6,0.1-2.2,0-2.7,0c-2.1,0.2-3.2,1.2-3.2,1.2s1.7,0.6,3.6,1s4.9,0.6,4.9,0.6"
			/>
		
			<linearGradient id="XMLID_128_" gradientUnits="userSpaceOnUse" x1="369.0654" y1="264.5431" x2="346.8752" y2="264.5431" gradientTransform="matrix(-1 0 0 1 662.834 0)">
			<stop  offset="0.1461" style="stop-color:#DADADA"/>
			<stop  offset="1" style="stop-color:#666666"/>
		</linearGradient>
		<polyline id="XMLID_23_" class="st36" points="296.2,263.3 316,263.3 313.1,265.8 293.8,265.8 		"/>
		<path id="XMLID_65_" class="st33" d="M298.6,260.4c0,0,4.9,0,6.5,0.2c1.5,0.1,2.2,0.9,2.2,0.9s-3.7,1.1-5.4,1.1
			c-1.1,0.1-5.1,0.3-5.1,0.3L298.6,260.4z"/>
		<path id="XMLID_66_" class="st35" d="M295.3,265.9c1.6,0.1,2.2,0,2.7,0c2.1,0.2,3.5,1.2,3.5,1.2s-2,0.6-3.9,1s-4.9,0.6-4.9,0.6"/>
		<path id="XMLID_67_" d="M250.4,284.3c0,0-4.7,0-8.2,0.5c-6.7,1-5.7,1.6-9.2,2.5c-3.5,0.9-16.7-0.8-16.7-0.8
			s-116.1-17.7-122.5-18.7c-9.4-1.5-9-1.2-16.3-4.9c-9.8-4.9-12.4-9.3-12.4-9.3s1.8,0.9,4.2,2.5c12.4,8,13.5,7.6,15.9,8.5
			c6.9,2.6,114.6,18.1,114.6,18.1s24.4,4.4,28.4,2.8c4-1.6,6.3-3.1,8.2-3.5c6.8-1.6,16.4-1.1,16.4-1.1"/>
		<path id="XMLID_68_" d="M249.6,284.3c0,0,4.7,0,8.2,0.5c6.7,1,5.7,1.6,9.2,2.5c3.5,0.9,16.7-0.8,16.7-0.8s116.1-17.7,122.5-18.7
			c9.4-1.5,8.9-1.4,16.3-4.9c10.2-4.9,12.4-9.3,12.4-9.3s-1.8,0.9-4.2,2.5c-12.4,8-13.5,7.6-15.9,8.5
			c-6.9,2.6-114.6,18.1-114.6,18.1s-24.4,4.4-28.4,2.8c-4-1.6-6.3-3.1-8.2-3.5c-6.8-1.6-15.9-1-15.9-1"/>
		<linearGradient id="XMLID_129_" gradientUnits="userSpaceOnUse" x1="158.7701" y1="258.5867" x2="158.7701" y2="250.0024">
			<stop  offset="2.808990e-002" style="stop-color:#B0B0B0"/>
			<stop  offset="0.3258" style="stop-color:#DCDCDC"/>
			<stop  offset="0.5787" style="stop-color:#B5B5B5"/>
			<stop  offset="0.6798" style="stop-color:#9D9D9D"/>
			<stop  offset="0.9382" style="stop-color:#8B8B8B"/>
		</linearGradient>
		<path id="XMLID_69_" class="st37" d="M251.4,256c0,0-26.1,0-29-0.9c-2-0.6-8.1-3.6-10-4.2c-1.9-0.6-6.1-0.9-6.1-0.9
			s-136.9,0.8-138.1,1c-1.2,0.2-2.5,1-2.5,1s8.5,1.4,12.5,1.7c40.9,3.2,129.6,1.6,132.9,2c3.2,0.4,5.5,2.8,9.8,2.8c4.3,0,31,0,31,0"
			/>
		
			<linearGradient id="XMLID_130_" gradientUnits="userSpaceOnUse" x1="416.4079" y1="258.5867" x2="416.4079" y2="250.0024" gradientTransform="matrix(-1 0 0 1 757.375 0)">
			<stop  offset="2.808990e-002" style="stop-color:#B0B0B0"/>
			<stop  offset="0.3258" style="stop-color:#DCDCDC"/>
			<stop  offset="0.5787" style="stop-color:#B5B5B5"/>
			<stop  offset="0.6798" style="stop-color:#9D9D9D"/>
			<stop  offset="0.9382" style="stop-color:#8B8B8B"/>
		</linearGradient>
		<path id="XMLID_70_" class="st38" d="M248.3,256c0,0,26.1,0,29-0.9c2-0.6,8.1-3.6,10-4.2c1.9-0.6,6.1-0.9,6.1-0.9
			s136.9,0.8,138.1,1c1.2,0.2,2.5,1,2.5,1s-8.5,1.4-12.5,1.7c-40.9,3.2-129.6,1.6-132.9,2c-3.2,0.4-5.5,2.8-9.8,2.8
			c-4.3,0-31,0-31,0"/>
	</g>
</g>
</svg>
