<!-- Generated by IcoMoon.io -->
<svg version="1.1" xmlns="http://www.w3.org/2000/svg" width="1024" height="512" viewBox="0 0 1024 512">
<title></title>
<g id="icomoon-ignore">
    <line stroke-width="1" x1="16" y1="0" x2="16" y2="512" stroke="#449FDB" opacity="0.3"></line>
    <line stroke-width="1" x1="32" y1="0" x2="32" y2="512" stroke="#449FDB" opacity="1"></line>
    <line stroke-width="1" x1="48" y1="0" x2="48" y2="512" stroke="#449FDB" opacity="0.3"></line>
    <line stroke-width="1" x1="64" y1="0" x2="64" y2="512" stroke="#449FDB" opacity="1"></line>
    <line stroke-width="1" x1="80" y1="0" x2="80" y2="512" stroke="#449FDB" opacity="0.3"></line>
    <line stroke-width="1" x1="96" y1="0" x2="96" y2="512" stroke="#449FDB" opacity="1"></line>
    <line stroke-width="1" x1="112" y1="0" x2="112" y2="512" stroke="#449FDB" opacity="0.3"></line>
    <line stroke-width="1" x1="128" y1="0" x2="128" y2="512" stroke="#449FDB" opacity="1"></line>
    <line stroke-width="1" x1="144" y1="0" x2="144" y2="512" stroke="#449FDB" opacity="0.3"></line>
    <line stroke-width="1" x1="160" y1="0" x2="160" y2="512" stroke="#449FDB" opacity="1"></line>
    <line stroke-width="1" x1="176" y1="0" x2="176" y2="512" stroke="#449FDB" opacity="0.3"></line>
    <line stroke-width="1" x1="192" y1="0" x2="192" y2="512" stroke="#449FDB" opacity="1"></line>
    <line stroke-width="1" x1="208" y1="0" x2="208" y2="512" stroke="#449FDB" opacity="0.3"></line>
    <line stroke-width="1" x1="224" y1="0" x2="224" y2="512" stroke="#449FDB" opacity="1"></line>
    <line stroke-width="1" x1="240" y1="0" x2="240" y2="512" stroke="#449FDB" opacity="0.3"></line>
    <line stroke-width="1" x1="256" y1="0" x2="256" y2="512" stroke="#449FDB" opacity="1"></line>
    <line stroke-width="1" x1="272" y1="0" x2="272" y2="512" stroke="#449FDB" opacity="0.3"></line>
    <line stroke-width="1" x1="288" y1="0" x2="288" y2="512" stroke="#449FDB" opacity="1"></line>
    <line stroke-width="1" x1="304" y1="0" x2="304" y2="512" stroke="#449FDB" opacity="0.3"></line>
    <line stroke-width="1" x1="320" y1="0" x2="320" y2="512" stroke="#449FDB" opacity="1"></line>
    <line stroke-width="1" x1="336" y1="0" x2="336" y2="512" stroke="#449FDB" opacity="0.3"></line>
    <line stroke-width="1" x1="352" y1="0" x2="352" y2="512" stroke="#449FDB" opacity="1"></line>
    <line stroke-width="1" x1="368" y1="0" x2="368" y2="512" stroke="#449FDB" opacity="0.3"></line>
    <line stroke-width="1" x1="384" y1="0" x2="384" y2="512" stroke="#449FDB" opacity="1"></line>
    <line stroke-width="1" x1="400" y1="0" x2="400" y2="512" stroke="#449FDB" opacity="0.3"></line>
    <line stroke-width="1" x1="416" y1="0" x2="416" y2="512" stroke="#449FDB" opacity="1"></line>
    <line stroke-width="1" x1="432" y1="0" x2="432" y2="512" stroke="#449FDB" opacity="0.3"></line>
    <line stroke-width="1" x1="448" y1="0" x2="448" y2="512" stroke="#449FDB" opacity="1"></line>
    <line stroke-width="1" x1="464" y1="0" x2="464" y2="512" stroke="#449FDB" opacity="0.3"></line>
    <line stroke-width="1" x1="480" y1="0" x2="480" y2="512" stroke="#449FDB" opacity="1"></line>
    <line stroke-width="1" x1="496" y1="0" x2="496" y2="512" stroke="#449FDB" opacity="0.3"></line>
    <line stroke-width="1" x1="512" y1="0" x2="512" y2="512" stroke="#449FDB" opacity="1"></line>
    <line stroke-width="1" x1="528" y1="0" x2="528" y2="512" stroke="#449FDB" opacity="0.3"></line>
    <line stroke-width="1" x1="544" y1="0" x2="544" y2="512" stroke="#449FDB" opacity="1"></line>
    <line stroke-width="1" x1="560" y1="0" x2="560" y2="512" stroke="#449FDB" opacity="0.3"></line>
    <line stroke-width="1" x1="576" y1="0" x2="576" y2="512" stroke="#449FDB" opacity="1"></line>
    <line stroke-width="1" x1="592" y1="0" x2="592" y2="512" stroke="#449FDB" opacity="0.3"></line>
    <line stroke-width="1" x1="608" y1="0" x2="608" y2="512" stroke="#449FDB" opacity="1"></line>
    <line stroke-width="1" x1="624" y1="0" x2="624" y2="512" stroke="#449FDB" opacity="0.3"></line>
    <line stroke-width="1" x1="640" y1="0" x2="640" y2="512" stroke="#449FDB" opacity="1"></line>
    <line stroke-width="1" x1="656" y1="0" x2="656" y2="512" stroke="#449FDB" opacity="0.3"></line>
    <line stroke-width="1" x1="672" y1="0" x2="672" y2="512" stroke="#449FDB" opacity="1"></line>
    <line stroke-width="1" x1="688" y1="0" x2="688" y2="512" stroke="#449FDB" opacity="0.3"></line>
    <line stroke-width="1" x1="704" y1="0" x2="704" y2="512" stroke="#449FDB" opacity="1"></line>
    <line stroke-width="1" x1="720" y1="0" x2="720" y2="512" stroke="#449FDB" opacity="0.3"></line>
    <line stroke-width="1" x1="736" y1="0" x2="736" y2="512" stroke="#449FDB" opacity="1"></line>
    <line stroke-width="1" x1="752" y1="0" x2="752" y2="512" stroke="#449FDB" opacity="0.3"></line>
    <line stroke-width="1" x1="768" y1="0" x2="768" y2="512" stroke="#449FDB" opacity="1"></line>
    <line stroke-width="1" x1="784" y1="0" x2="784" y2="512" stroke="#449FDB" opacity="0.3"></line>
    <line stroke-width="1" x1="800" y1="0" x2="800" y2="512" stroke="#449FDB" opacity="1"></line>
    <line stroke-width="1" x1="816" y1="0" x2="816" y2="512" stroke="#449FDB" opacity="0.3"></line>
    <line stroke-width="1" x1="832" y1="0" x2="832" y2="512" stroke="#449FDB" opacity="1"></line>
    <line stroke-width="1" x1="848" y1="0" x2="848" y2="512" stroke="#449FDB" opacity="0.3"></line>
    <line stroke-width="1" x1="864" y1="0" x2="864" y2="512" stroke="#449FDB" opacity="1"></line>
    <line stroke-width="1" x1="880" y1="0" x2="880" y2="512" stroke="#449FDB" opacity="0.3"></line>
    <line stroke-width="1" x1="896" y1="0" x2="896" y2="512" stroke="#449FDB" opacity="1"></line>
    <line stroke-width="1" x1="912" y1="0" x2="912" y2="512" stroke="#449FDB" opacity="0.3"></line>
    <line stroke-width="1" x1="928" y1="0" x2="928" y2="512" stroke="#449FDB" opacity="1"></line>
    <line stroke-width="1" x1="944" y1="0" x2="944" y2="512" stroke="#449FDB" opacity="0.3"></line>
    <line stroke-width="1" x1="960" y1="0" x2="960" y2="512" stroke="#449FDB" opacity="1"></line>
    <line stroke-width="1" x1="976" y1="0" x2="976" y2="512" stroke="#449FDB" opacity="0.3"></line>
    <line stroke-width="1" x1="992" y1="0" x2="992" y2="512" stroke="#449FDB" opacity="1"></line>
    <line stroke-width="1" x1="1008" y1="0" x2="1008" y2="512" stroke="#449FDB" opacity="0.3"></line>
    <line stroke-width="1" x1="0" y1="16" x2="1024" y2="16" stroke="#449FDB" opacity="0.3"></line>
    <line stroke-width="1" x1="0" y1="32" x2="1024" y2="32" stroke="#449FDB" opacity="1"></line>
    <line stroke-width="1" x1="0" y1="48" x2="1024" y2="48" stroke="#449FDB" opacity="0.3"></line>
    <line stroke-width="1" x1="0" y1="64" x2="1024" y2="64" stroke="#449FDB" opacity="1"></line>
    <line stroke-width="1" x1="0" y1="80" x2="1024" y2="80" stroke="#449FDB" opacity="0.3"></line>
    <line stroke-width="1" x1="0" y1="96" x2="1024" y2="96" stroke="#449FDB" opacity="1"></line>
    <line stroke-width="1" x1="0" y1="112" x2="1024" y2="112" stroke="#449FDB" opacity="0.3"></line>
    <line stroke-width="1" x1="0" y1="128" x2="1024" y2="128" stroke="#449FDB" opacity="1"></line>
    <line stroke-width="1" x1="0" y1="144" x2="1024" y2="144" stroke="#449FDB" opacity="0.3"></line>
    <line stroke-width="1" x1="0" y1="160" x2="1024" y2="160" stroke="#449FDB" opacity="1"></line>
    <line stroke-width="1" x1="0" y1="176" x2="1024" y2="176" stroke="#449FDB" opacity="0.3"></line>
    <line stroke-width="1" x1="0" y1="192" x2="1024" y2="192" stroke="#449FDB" opacity="1"></line>
    <line stroke-width="1" x1="0" y1="208" x2="1024" y2="208" stroke="#449FDB" opacity="0.3"></line>
    <line stroke-width="1" x1="0" y1="224" x2="1024" y2="224" stroke="#449FDB" opacity="1"></line>
    <line stroke-width="1" x1="0" y1="240" x2="1024" y2="240" stroke="#449FDB" opacity="0.3"></line>
    <line stroke-width="1" x1="0" y1="256" x2="1024" y2="256" stroke="#449FDB" opacity="1"></line>
    <line stroke-width="1" x1="0" y1="272" x2="1024" y2="272" stroke="#449FDB" opacity="0.3"></line>
    <line stroke-width="1" x1="0" y1="288" x2="1024" y2="288" stroke="#449FDB" opacity="1"></line>
    <line stroke-width="1" x1="0" y1="304" x2="1024" y2="304" stroke="#449FDB" opacity="0.3"></line>
    <line stroke-width="1" x1="0" y1="320" x2="1024" y2="320" stroke="#449FDB" opacity="1"></line>
    <line stroke-width="1" x1="0" y1="336" x2="1024" y2="336" stroke="#449FDB" opacity="0.3"></line>
    <line stroke-width="1" x1="0" y1="352" x2="1024" y2="352" stroke="#449FDB" opacity="1"></line>
    <line stroke-width="1" x1="0" y1="368" x2="1024" y2="368" stroke="#449FDB" opacity="0.3"></line>
    <line stroke-width="1" x1="0" y1="384" x2="1024" y2="384" stroke="#449FDB" opacity="1"></line>
    <line stroke-width="1" x1="0" y1="400" x2="1024" y2="400" stroke="#449FDB" opacity="0.3"></line>
    <line stroke-width="1" x1="0" y1="416" x2="1024" y2="416" stroke="#449FDB" opacity="1"></line>
    <line stroke-width="1" x1="0" y1="432" x2="1024" y2="432" stroke="#449FDB" opacity="0.3"></line>
    <line stroke-width="1" x1="0" y1="448" x2="1024" y2="448" stroke="#449FDB" opacity="1"></line>
    <line stroke-width="1" x1="0" y1="464" x2="1024" y2="464" stroke="#449FDB" opacity="0.3"></line>
    <line stroke-width="1" x1="0" y1="480" x2="1024" y2="480" stroke="#449FDB" opacity="1"></line>
    <line stroke-width="1" x1="0" y1="496" x2="1024" y2="496" stroke="#449FDB" opacity="0.3"></line>
</g>
<path fill="#fff" d="M-228.002-394.526h1480v1480h-1480v-1480z"></path>
<path fill="#1d5b99" d="M516.052 66.115c256.798 0 446.867 71.205 445.389 171.695-1.465 88.058-188.593 173.903-445.389 173.903-256.801 0-455.663-65.307-455.663-167.318 0.739-99.802 198.868-178.323 455.663-178.323z"></path>
<path fill="#fff" d="M514.573 397.014c256.798 0 430.751-82.898 430.751-162.155 0-78.527-175.376-154.839-432.177-154.839-220.144 0-435.122 68.257-436.6 162.894-0.737 88.797 181.227 154.1 438.075 154.1z"></path>
<path fill="#1d5b99" d="M513.104 384.588c256.801 0 418.954-80.736 418.954-146.779 0-71.153-159.211-144.57-416.058-144.57s-424.855 74.837-424.855 148.204c0.002 78.527 165.111 143.094 421.91 143.094z"></path>
<path fill="#fff" d="M631.972 134.317c-4.423 0-29.341 7.325-61.62 7.325-69.73 0-117.399-18.33-171.697-18.33-55.034 0-96.113 26.435-96.113 60.145 0 23.489 17.591 31.545 30.070 31.545 22.753 0 51.353-24.959 51.353-44.029 0-1.476-1.476-5.846-2.945-5.846-6.586 0-15.429 25.698-38.183 25.698-11.009 0-15.429-10.269-15.429-14.692 0-13.22 16.168-40.345 66.782-40.345 22.014 0 46.243 4.421 70.464 9.53-22.75 6.585-44.029 33.023-66.782 62.353-19.061 2.214-35.968 5.16-43.289 13.959-6.586 7.316-2.214 12.481 1.476 8.792 5.899-6.585 19.063-9.53 33.759-11.745-29.33 38.924-58.719 77.791-92.428 77.791-18.333 0-25.699-13.22-25.699-22.75 0-16.855 16.168-30.070 25.699-35.234 5.846-2.214 6.586-8.794-4.423-8.794-24.228 0-44.767 27.174-44.767 48.452 0 29.339 21.276 49.139 49.877 49.139 50.614 0 82.898-60.197 115.181-110.81 16.116-1.476 32.284-2.953 45.504-5.849 4.423 6.585 11.009 9.53 13.22 9.53s2.945-2.214 2.945-3.684c0-0.739-5.159-2.214-8.794-8.064 11.745-3.684 19.063-9.53 19.063-19.8 0-5.849-4.421-13.22-13.22-13.22-11.745 0-17.591 10.269-17.591 20.539 0 2.214 0.739 4.423 0.739 6.585-9.533 1.476-22.014 2.214-35.235 3.684 16.168-24.959 32.284-45.504 50.614-53.559l-2.214-6.585c40.344 9.53 79.996 22.014 107.857 22.014 35.976 0 63.092-16.116 63.092-27.861 0-2.214-3.692-5.899-7.316-5.899zM463.18 195.989c0-5.846 2.945-13.22 9.531-13.22 2.945 0 5.159 3.684 5.159 5.16 0 5.849-5.849 10.269-14.69 12.484v-4.423z"></path>
<path fill="#fff" d="M508.678 324.385c14.692-23.49 41.086-65.304 41.086-73.368 0-3.684-2.215-5.849-5.901-5.849-9.53 0-31.545 22.753-42.553 39.608-18.33 28.599-35.235 42.553-54.298 42.553-20.539 0-31.545-13.223-34.498-27.174-5.159 5.899-11.745 12.484-17.594 16.168-3.684 2.212-10.269-7.325-5.846-11.009 9.531-7.325 16.168-16.168 22.014-26.435 11.745-22.753 30.070-49.138 56.512-49.138 8.794 0 12.484 8.794 4.421 11.745-27.174 8.792-37.443 33.023-37.443 48.452 0 11.009 5.849 16.855 14.692 16.855 25.699 0 46.974-36.704 35.968-63.828-2.214-6.585 10.269-15.429 13.959-10.269 5.899 5.849 8.055 20.539 6.586 27.174 11.747-11.745 29.338-34.498 47.713-34.498 8.792 0 15.432 6.585 15.432 13.22 0.739 3.684 0.739 8.794-0.739 11.745 9.53-13.22 21.275-23.489 33.023-23.489 10.269 0 18.33 7.316 18.33 16.855 0 8.794-7.316 18.33-16.17 18.33-8.055 0-13.948-6.585-11.74-14.69 0-0.739 0-2.214-2.215-2.214-2.953 0-10.269 12.484-10.269 21.276 0 8.063 7.316 12.484 13.212 12.484 25.707 0 53.562-49.877 88.060-49.877 10.269 0 22.014 3.684 25.707 19.803 13.212-21.275 29.331-45.504 41.814-66.043h25.696c-28.6 48.452-74.098 113.017-74.098 121.080 0 4.421 4.423 7.325 7.327 7.325 7.316 0 27.861-16.168 44.763-35.234 3.692-4.423 10.269 2.214 8.066 4.421-26.438 32.284-44.029 47.713-63.828 47.713-11.009 0-16.907-9.533-19.072-19.063-9.53 8.794-22.748 17.594-35.226 17.594-13.959 0-25.707-10.269-25.707-30.070 0-4.423 0.739-10.269 2.215-14.692-10.269 6.586-22.014 12.484-30.069 12.484-13.959 0-19.8-10.269-19.8-24.959l-35.237 55.034-24.234-0.002zM681.847 244.389c-18.33 0-42.553 29.339-42.553 50.614 0 5.899 5.846 13.22 11.009 13.22 13.959 0 32.284-20.539 41.814-38.13l-3.692-2.945c1.476-2.945 3.692-8.791 3.692-13.22s-3.692-9.533-10.269-9.533z"></path>
</svg>
