<!-- Generated by IcoMoon.io -->
<svg version="1.1" xmlns="http://www.w3.org/2000/svg" width="2080" height="1024" viewBox="0 0 2080 1024">
<title></title>
<g id="icomoon-ignore">
    <line stroke-width="1" x1="16" y1="0" x2="16" y2="1024" stroke="#449FDB" opacity="0.3"></line>
    <line stroke-width="1" x1="32" y1="0" x2="32" y2="1024" stroke="#449FDB" opacity="1"></line>
    <line stroke-width="1" x1="48" y1="0" x2="48" y2="1024" stroke="#449FDB" opacity="0.3"></line>
    <line stroke-width="1" x1="64" y1="0" x2="64" y2="1024" stroke="#449FDB" opacity="1"></line>
    <line stroke-width="1" x1="80" y1="0" x2="80" y2="1024" stroke="#449FDB" opacity="0.3"></line>
    <line stroke-width="1" x1="96" y1="0" x2="96" y2="1024" stroke="#449FDB" opacity="1"></line>
    <line stroke-width="1" x1="112" y1="0" x2="112" y2="1024" stroke="#449FDB" opacity="0.3"></line>
    <line stroke-width="1" x1="128" y1="0" x2="128" y2="1024" stroke="#449FDB" opacity="1"></line>
    <line stroke-width="1" x1="144" y1="0" x2="144" y2="1024" stroke="#449FDB" opacity="0.3"></line>
    <line stroke-width="1" x1="160" y1="0" x2="160" y2="1024" stroke="#449FDB" opacity="1"></line>
    <line stroke-width="1" x1="176" y1="0" x2="176" y2="1024" stroke="#449FDB" opacity="0.3"></line>
    <line stroke-width="1" x1="192" y1="0" x2="192" y2="1024" stroke="#449FDB" opacity="1"></line>
    <line stroke-width="1" x1="208" y1="0" x2="208" y2="1024" stroke="#449FDB" opacity="0.3"></line>
    <line stroke-width="1" x1="224" y1="0" x2="224" y2="1024" stroke="#449FDB" opacity="1"></line>
    <line stroke-width="1" x1="240" y1="0" x2="240" y2="1024" stroke="#449FDB" opacity="0.3"></line>
    <line stroke-width="1" x1="256" y1="0" x2="256" y2="1024" stroke="#449FDB" opacity="1"></line>
    <line stroke-width="1" x1="272" y1="0" x2="272" y2="1024" stroke="#449FDB" opacity="0.3"></line>
    <line stroke-width="1" x1="288" y1="0" x2="288" y2="1024" stroke="#449FDB" opacity="1"></line>
    <line stroke-width="1" x1="304" y1="0" x2="304" y2="1024" stroke="#449FDB" opacity="0.3"></line>
    <line stroke-width="1" x1="320" y1="0" x2="320" y2="1024" stroke="#449FDB" opacity="1"></line>
    <line stroke-width="1" x1="336" y1="0" x2="336" y2="1024" stroke="#449FDB" opacity="0.3"></line>
    <line stroke-width="1" x1="352" y1="0" x2="352" y2="1024" stroke="#449FDB" opacity="1"></line>
    <line stroke-width="1" x1="368" y1="0" x2="368" y2="1024" stroke="#449FDB" opacity="0.3"></line>
    <line stroke-width="1" x1="384" y1="0" x2="384" y2="1024" stroke="#449FDB" opacity="1"></line>
    <line stroke-width="1" x1="400" y1="0" x2="400" y2="1024" stroke="#449FDB" opacity="0.3"></line>
    <line stroke-width="1" x1="416" y1="0" x2="416" y2="1024" stroke="#449FDB" opacity="1"></line>
    <line stroke-width="1" x1="432" y1="0" x2="432" y2="1024" stroke="#449FDB" opacity="0.3"></line>
    <line stroke-width="1" x1="448" y1="0" x2="448" y2="1024" stroke="#449FDB" opacity="1"></line>
    <line stroke-width="1" x1="464" y1="0" x2="464" y2="1024" stroke="#449FDB" opacity="0.3"></line>
    <line stroke-width="1" x1="480" y1="0" x2="480" y2="1024" stroke="#449FDB" opacity="1"></line>
    <line stroke-width="1" x1="496" y1="0" x2="496" y2="1024" stroke="#449FDB" opacity="0.3"></line>
    <line stroke-width="1" x1="512" y1="0" x2="512" y2="1024" stroke="#449FDB" opacity="1"></line>
    <line stroke-width="1" x1="528" y1="0" x2="528" y2="1024" stroke="#449FDB" opacity="0.3"></line>
    <line stroke-width="1" x1="544" y1="0" x2="544" y2="1024" stroke="#449FDB" opacity="1"></line>
    <line stroke-width="1" x1="560" y1="0" x2="560" y2="1024" stroke="#449FDB" opacity="0.3"></line>
    <line stroke-width="1" x1="576" y1="0" x2="576" y2="1024" stroke="#449FDB" opacity="1"></line>
    <line stroke-width="1" x1="592" y1="0" x2="592" y2="1024" stroke="#449FDB" opacity="0.3"></line>
    <line stroke-width="1" x1="608" y1="0" x2="608" y2="1024" stroke="#449FDB" opacity="1"></line>
    <line stroke-width="1" x1="624" y1="0" x2="624" y2="1024" stroke="#449FDB" opacity="0.3"></line>
    <line stroke-width="1" x1="640" y1="0" x2="640" y2="1024" stroke="#449FDB" opacity="1"></line>
    <line stroke-width="1" x1="656" y1="0" x2="656" y2="1024" stroke="#449FDB" opacity="0.3"></line>
    <line stroke-width="1" x1="672" y1="0" x2="672" y2="1024" stroke="#449FDB" opacity="1"></line>
    <line stroke-width="1" x1="688" y1="0" x2="688" y2="1024" stroke="#449FDB" opacity="0.3"></line>
    <line stroke-width="1" x1="704" y1="0" x2="704" y2="1024" stroke="#449FDB" opacity="1"></line>
    <line stroke-width="1" x1="720" y1="0" x2="720" y2="1024" stroke="#449FDB" opacity="0.3"></line>
    <line stroke-width="1" x1="736" y1="0" x2="736" y2="1024" stroke="#449FDB" opacity="1"></line>
    <line stroke-width="1" x1="752" y1="0" x2="752" y2="1024" stroke="#449FDB" opacity="0.3"></line>
    <line stroke-width="1" x1="768" y1="0" x2="768" y2="1024" stroke="#449FDB" opacity="1"></line>
    <line stroke-width="1" x1="784" y1="0" x2="784" y2="1024" stroke="#449FDB" opacity="0.3"></line>
    <line stroke-width="1" x1="800" y1="0" x2="800" y2="1024" stroke="#449FDB" opacity="1"></line>
    <line stroke-width="1" x1="816" y1="0" x2="816" y2="1024" stroke="#449FDB" opacity="0.3"></line>
    <line stroke-width="1" x1="832" y1="0" x2="832" y2="1024" stroke="#449FDB" opacity="1"></line>
    <line stroke-width="1" x1="848" y1="0" x2="848" y2="1024" stroke="#449FDB" opacity="0.3"></line>
    <line stroke-width="1" x1="864" y1="0" x2="864" y2="1024" stroke="#449FDB" opacity="1"></line>
    <line stroke-width="1" x1="880" y1="0" x2="880" y2="1024" stroke="#449FDB" opacity="0.3"></line>
    <line stroke-width="1" x1="896" y1="0" x2="896" y2="1024" stroke="#449FDB" opacity="1"></line>
    <line stroke-width="1" x1="912" y1="0" x2="912" y2="1024" stroke="#449FDB" opacity="0.3"></line>
    <line stroke-width="1" x1="928" y1="0" x2="928" y2="1024" stroke="#449FDB" opacity="1"></line>
    <line stroke-width="1" x1="944" y1="0" x2="944" y2="1024" stroke="#449FDB" opacity="0.3"></line>
    <line stroke-width="1" x1="960" y1="0" x2="960" y2="1024" stroke="#449FDB" opacity="1"></line>
    <line stroke-width="1" x1="976" y1="0" x2="976" y2="1024" stroke="#449FDB" opacity="0.3"></line>
    <line stroke-width="1" x1="992" y1="0" x2="992" y2="1024" stroke="#449FDB" opacity="1"></line>
    <line stroke-width="1" x1="1008" y1="0" x2="1008" y2="1024" stroke="#449FDB" opacity="0.3"></line>
    <line stroke-width="1" x1="1024" y1="0" x2="1024" y2="1024" stroke="#449FDB" opacity="1"></line>
    <line stroke-width="1" x1="1040" y1="0" x2="1040" y2="1024" stroke="#449FDB" opacity="0.3"></line>
    <line stroke-width="1" x1="1056" y1="0" x2="1056" y2="1024" stroke="#449FDB" opacity="1"></line>
    <line stroke-width="1" x1="1072" y1="0" x2="1072" y2="1024" stroke="#449FDB" opacity="0.3"></line>
    <line stroke-width="1" x1="1088" y1="0" x2="1088" y2="1024" stroke="#449FDB" opacity="1"></line>
    <line stroke-width="1" x1="1104" y1="0" x2="1104" y2="1024" stroke="#449FDB" opacity="0.3"></line>
    <line stroke-width="1" x1="1120" y1="0" x2="1120" y2="1024" stroke="#449FDB" opacity="1"></line>
    <line stroke-width="1" x1="1136" y1="0" x2="1136" y2="1024" stroke="#449FDB" opacity="0.3"></line>
    <line stroke-width="1" x1="1152" y1="0" x2="1152" y2="1024" stroke="#449FDB" opacity="1"></line>
    <line stroke-width="1" x1="1168" y1="0" x2="1168" y2="1024" stroke="#449FDB" opacity="0.3"></line>
    <line stroke-width="1" x1="1184" y1="0" x2="1184" y2="1024" stroke="#449FDB" opacity="1"></line>
    <line stroke-width="1" x1="1200" y1="0" x2="1200" y2="1024" stroke="#449FDB" opacity="0.3"></line>
    <line stroke-width="1" x1="1216" y1="0" x2="1216" y2="1024" stroke="#449FDB" opacity="1"></line>
    <line stroke-width="1" x1="1232" y1="0" x2="1232" y2="1024" stroke="#449FDB" opacity="0.3"></line>
    <line stroke-width="1" x1="1248" y1="0" x2="1248" y2="1024" stroke="#449FDB" opacity="1"></line>
    <line stroke-width="1" x1="1264" y1="0" x2="1264" y2="1024" stroke="#449FDB" opacity="0.3"></line>
    <line stroke-width="1" x1="1280" y1="0" x2="1280" y2="1024" stroke="#449FDB" opacity="1"></line>
    <line stroke-width="1" x1="1296" y1="0" x2="1296" y2="1024" stroke="#449FDB" opacity="0.3"></line>
    <line stroke-width="1" x1="1312" y1="0" x2="1312" y2="1024" stroke="#449FDB" opacity="1"></line>
    <line stroke-width="1" x1="1328" y1="0" x2="1328" y2="1024" stroke="#449FDB" opacity="0.3"></line>
    <line stroke-width="1" x1="1344" y1="0" x2="1344" y2="1024" stroke="#449FDB" opacity="1"></line>
    <line stroke-width="1" x1="1360" y1="0" x2="1360" y2="1024" stroke="#449FDB" opacity="0.3"></line>
    <line stroke-width="1" x1="1376" y1="0" x2="1376" y2="1024" stroke="#449FDB" opacity="1"></line>
    <line stroke-width="1" x1="1392" y1="0" x2="1392" y2="1024" stroke="#449FDB" opacity="0.3"></line>
    <line stroke-width="1" x1="1408" y1="0" x2="1408" y2="1024" stroke="#449FDB" opacity="1"></line>
    <line stroke-width="1" x1="1424" y1="0" x2="1424" y2="1024" stroke="#449FDB" opacity="0.3"></line>
    <line stroke-width="1" x1="1440" y1="0" x2="1440" y2="1024" stroke="#449FDB" opacity="1"></line>
    <line stroke-width="1" x1="1456" y1="0" x2="1456" y2="1024" stroke="#449FDB" opacity="0.3"></line>
    <line stroke-width="1" x1="1472" y1="0" x2="1472" y2="1024" stroke="#449FDB" opacity="1"></line>
    <line stroke-width="1" x1="1488" y1="0" x2="1488" y2="1024" stroke="#449FDB" opacity="0.3"></line>
    <line stroke-width="1" x1="1504" y1="0" x2="1504" y2="1024" stroke="#449FDB" opacity="1"></line>
    <line stroke-width="1" x1="1520" y1="0" x2="1520" y2="1024" stroke="#449FDB" opacity="0.3"></line>
    <line stroke-width="1" x1="1536" y1="0" x2="1536" y2="1024" stroke="#449FDB" opacity="1"></line>
    <line stroke-width="1" x1="1552" y1="0" x2="1552" y2="1024" stroke="#449FDB" opacity="0.3"></line>
    <line stroke-width="1" x1="1568" y1="0" x2="1568" y2="1024" stroke="#449FDB" opacity="1"></line>
    <line stroke-width="1" x1="1584" y1="0" x2="1584" y2="1024" stroke="#449FDB" opacity="0.3"></line>
    <line stroke-width="1" x1="1600" y1="0" x2="1600" y2="1024" stroke="#449FDB" opacity="1"></line>
    <line stroke-width="1" x1="1616" y1="0" x2="1616" y2="1024" stroke="#449FDB" opacity="0.3"></line>
    <line stroke-width="1" x1="1632" y1="0" x2="1632" y2="1024" stroke="#449FDB" opacity="1"></line>
    <line stroke-width="1" x1="1648" y1="0" x2="1648" y2="1024" stroke="#449FDB" opacity="0.3"></line>
    <line stroke-width="1" x1="1664" y1="0" x2="1664" y2="1024" stroke="#449FDB" opacity="1"></line>
    <line stroke-width="1" x1="1680" y1="0" x2="1680" y2="1024" stroke="#449FDB" opacity="0.3"></line>
    <line stroke-width="1" x1="1696" y1="0" x2="1696" y2="1024" stroke="#449FDB" opacity="1"></line>
    <line stroke-width="1" x1="1712" y1="0" x2="1712" y2="1024" stroke="#449FDB" opacity="0.3"></line>
    <line stroke-width="1" x1="1728" y1="0" x2="1728" y2="1024" stroke="#449FDB" opacity="1"></line>
    <line stroke-width="1" x1="1744" y1="0" x2="1744" y2="1024" stroke="#449FDB" opacity="0.3"></line>
    <line stroke-width="1" x1="1760" y1="0" x2="1760" y2="1024" stroke="#449FDB" opacity="1"></line>
    <line stroke-width="1" x1="1776" y1="0" x2="1776" y2="1024" stroke="#449FDB" opacity="0.3"></line>
    <line stroke-width="1" x1="1792" y1="0" x2="1792" y2="1024" stroke="#449FDB" opacity="1"></line>
    <line stroke-width="1" x1="1808" y1="0" x2="1808" y2="1024" stroke="#449FDB" opacity="0.3"></line>
    <line stroke-width="1" x1="1824" y1="0" x2="1824" y2="1024" stroke="#449FDB" opacity="1"></line>
    <line stroke-width="1" x1="1840" y1="0" x2="1840" y2="1024" stroke="#449FDB" opacity="0.3"></line>
    <line stroke-width="1" x1="1856" y1="0" x2="1856" y2="1024" stroke="#449FDB" opacity="1"></line>
    <line stroke-width="1" x1="1872" y1="0" x2="1872" y2="1024" stroke="#449FDB" opacity="0.3"></line>
    <line stroke-width="1" x1="1888" y1="0" x2="1888" y2="1024" stroke="#449FDB" opacity="1"></line>
    <line stroke-width="1" x1="1904" y1="0" x2="1904" y2="1024" stroke="#449FDB" opacity="0.3"></line>
    <line stroke-width="1" x1="1920" y1="0" x2="1920" y2="1024" stroke="#449FDB" opacity="1"></line>
    <line stroke-width="1" x1="1936" y1="0" x2="1936" y2="1024" stroke="#449FDB" opacity="0.3"></line>
    <line stroke-width="1" x1="1952" y1="0" x2="1952" y2="1024" stroke="#449FDB" opacity="1"></line>
    <line stroke-width="1" x1="1968" y1="0" x2="1968" y2="1024" stroke="#449FDB" opacity="0.3"></line>
    <line stroke-width="1" x1="1984" y1="0" x2="1984" y2="1024" stroke="#449FDB" opacity="1"></line>
    <line stroke-width="1" x1="2000" y1="0" x2="2000" y2="1024" stroke="#449FDB" opacity="0.3"></line>
    <line stroke-width="1" x1="2016" y1="0" x2="2016" y2="1024" stroke="#449FDB" opacity="1"></line>
    <line stroke-width="1" x1="2032" y1="0" x2="2032" y2="1024" stroke="#449FDB" opacity="0.3"></line>
    <line stroke-width="1" x1="2048" y1="0" x2="2048" y2="1024" stroke="#449FDB" opacity="1"></line>
    <line stroke-width="1" x1="2064" y1="0" x2="2064" y2="1024" stroke="#449FDB" opacity="0.3"></line>
    <line stroke-width="1" x1="0" y1="16" x2="2080" y2="16" stroke="#449FDB" opacity="0.3"></line>
    <line stroke-width="1" x1="0" y1="32" x2="2080" y2="32" stroke="#449FDB" opacity="1"></line>
    <line stroke-width="1" x1="0" y1="48" x2="2080" y2="48" stroke="#449FDB" opacity="0.3"></line>
    <line stroke-width="1" x1="0" y1="64" x2="2080" y2="64" stroke="#449FDB" opacity="1"></line>
    <line stroke-width="1" x1="0" y1="80" x2="2080" y2="80" stroke="#449FDB" opacity="0.3"></line>
    <line stroke-width="1" x1="0" y1="96" x2="2080" y2="96" stroke="#449FDB" opacity="1"></line>
    <line stroke-width="1" x1="0" y1="112" x2="2080" y2="112" stroke="#449FDB" opacity="0.3"></line>
    <line stroke-width="1" x1="0" y1="128" x2="2080" y2="128" stroke="#449FDB" opacity="1"></line>
    <line stroke-width="1" x1="0" y1="144" x2="2080" y2="144" stroke="#449FDB" opacity="0.3"></line>
    <line stroke-width="1" x1="0" y1="160" x2="2080" y2="160" stroke="#449FDB" opacity="1"></line>
    <line stroke-width="1" x1="0" y1="176" x2="2080" y2="176" stroke="#449FDB" opacity="0.3"></line>
    <line stroke-width="1" x1="0" y1="192" x2="2080" y2="192" stroke="#449FDB" opacity="1"></line>
    <line stroke-width="1" x1="0" y1="208" x2="2080" y2="208" stroke="#449FDB" opacity="0.3"></line>
    <line stroke-width="1" x1="0" y1="224" x2="2080" y2="224" stroke="#449FDB" opacity="1"></line>
    <line stroke-width="1" x1="0" y1="240" x2="2080" y2="240" stroke="#449FDB" opacity="0.3"></line>
    <line stroke-width="1" x1="0" y1="256" x2="2080" y2="256" stroke="#449FDB" opacity="1"></line>
    <line stroke-width="1" x1="0" y1="272" x2="2080" y2="272" stroke="#449FDB" opacity="0.3"></line>
    <line stroke-width="1" x1="0" y1="288" x2="2080" y2="288" stroke="#449FDB" opacity="1"></line>
    <line stroke-width="1" x1="0" y1="304" x2="2080" y2="304" stroke="#449FDB" opacity="0.3"></line>
    <line stroke-width="1" x1="0" y1="320" x2="2080" y2="320" stroke="#449FDB" opacity="1"></line>
    <line stroke-width="1" x1="0" y1="336" x2="2080" y2="336" stroke="#449FDB" opacity="0.3"></line>
    <line stroke-width="1" x1="0" y1="352" x2="2080" y2="352" stroke="#449FDB" opacity="1"></line>
    <line stroke-width="1" x1="0" y1="368" x2="2080" y2="368" stroke="#449FDB" opacity="0.3"></line>
    <line stroke-width="1" x1="0" y1="384" x2="2080" y2="384" stroke="#449FDB" opacity="1"></line>
    <line stroke-width="1" x1="0" y1="400" x2="2080" y2="400" stroke="#449FDB" opacity="0.3"></line>
    <line stroke-width="1" x1="0" y1="416" x2="2080" y2="416" stroke="#449FDB" opacity="1"></line>
    <line stroke-width="1" x1="0" y1="432" x2="2080" y2="432" stroke="#449FDB" opacity="0.3"></line>
    <line stroke-width="1" x1="0" y1="448" x2="2080" y2="448" stroke="#449FDB" opacity="1"></line>
    <line stroke-width="1" x1="0" y1="464" x2="2080" y2="464" stroke="#449FDB" opacity="0.3"></line>
    <line stroke-width="1" x1="0" y1="480" x2="2080" y2="480" stroke="#449FDB" opacity="1"></line>
    <line stroke-width="1" x1="0" y1="496" x2="2080" y2="496" stroke="#449FDB" opacity="0.3"></line>
    <line stroke-width="1" x1="0" y1="512" x2="2080" y2="512" stroke="#449FDB" opacity="1"></line>
    <line stroke-width="1" x1="0" y1="528" x2="2080" y2="528" stroke="#449FDB" opacity="0.3"></line>
    <line stroke-width="1" x1="0" y1="544" x2="2080" y2="544" stroke="#449FDB" opacity="1"></line>
    <line stroke-width="1" x1="0" y1="560" x2="2080" y2="560" stroke="#449FDB" opacity="0.3"></line>
    <line stroke-width="1" x1="0" y1="576" x2="2080" y2="576" stroke="#449FDB" opacity="1"></line>
    <line stroke-width="1" x1="0" y1="592" x2="2080" y2="592" stroke="#449FDB" opacity="0.3"></line>
    <line stroke-width="1" x1="0" y1="608" x2="2080" y2="608" stroke="#449FDB" opacity="1"></line>
    <line stroke-width="1" x1="0" y1="624" x2="2080" y2="624" stroke="#449FDB" opacity="0.3"></line>
    <line stroke-width="1" x1="0" y1="640" x2="2080" y2="640" stroke="#449FDB" opacity="1"></line>
    <line stroke-width="1" x1="0" y1="656" x2="2080" y2="656" stroke="#449FDB" opacity="0.3"></line>
    <line stroke-width="1" x1="0" y1="672" x2="2080" y2="672" stroke="#449FDB" opacity="1"></line>
    <line stroke-width="1" x1="0" y1="688" x2="2080" y2="688" stroke="#449FDB" opacity="0.3"></line>
    <line stroke-width="1" x1="0" y1="704" x2="2080" y2="704" stroke="#449FDB" opacity="1"></line>
    <line stroke-width="1" x1="0" y1="720" x2="2080" y2="720" stroke="#449FDB" opacity="0.3"></line>
    <line stroke-width="1" x1="0" y1="736" x2="2080" y2="736" stroke="#449FDB" opacity="1"></line>
    <line stroke-width="1" x1="0" y1="752" x2="2080" y2="752" stroke="#449FDB" opacity="0.3"></line>
    <line stroke-width="1" x1="0" y1="768" x2="2080" y2="768" stroke="#449FDB" opacity="1"></line>
    <line stroke-width="1" x1="0" y1="784" x2="2080" y2="784" stroke="#449FDB" opacity="0.3"></line>
    <line stroke-width="1" x1="0" y1="800" x2="2080" y2="800" stroke="#449FDB" opacity="1"></line>
    <line stroke-width="1" x1="0" y1="816" x2="2080" y2="816" stroke="#449FDB" opacity="0.3"></line>
    <line stroke-width="1" x1="0" y1="832" x2="2080" y2="832" stroke="#449FDB" opacity="1"></line>
    <line stroke-width="1" x1="0" y1="848" x2="2080" y2="848" stroke="#449FDB" opacity="0.3"></line>
    <line stroke-width="1" x1="0" y1="864" x2="2080" y2="864" stroke="#449FDB" opacity="1"></line>
    <line stroke-width="1" x1="0" y1="880" x2="2080" y2="880" stroke="#449FDB" opacity="0.3"></line>
    <line stroke-width="1" x1="0" y1="896" x2="2080" y2="896" stroke="#449FDB" opacity="1"></line>
    <line stroke-width="1" x1="0" y1="912" x2="2080" y2="912" stroke="#449FDB" opacity="0.3"></line>
    <line stroke-width="1" x1="0" y1="928" x2="2080" y2="928" stroke="#449FDB" opacity="1"></line>
    <line stroke-width="1" x1="0" y1="944" x2="2080" y2="944" stroke="#449FDB" opacity="0.3"></line>
    <line stroke-width="1" x1="0" y1="960" x2="2080" y2="960" stroke="#449FDB" opacity="1"></line>
    <line stroke-width="1" x1="0" y1="976" x2="2080" y2="976" stroke="#449FDB" opacity="0.3"></line>
    <line stroke-width="1" x1="0" y1="992" x2="2080" y2="992" stroke="#449FDB" opacity="1"></line>
    <line stroke-width="1" x1="0" y1="1008" x2="2080" y2="1008" stroke="#449FDB" opacity="0.3"></line>
</g>
<path fill="#000" d="M1978.762 502.044h-150.179c1.862-18.816 15.141-37.635 39.125-37.635h177.099v-36.158h-185.22c-73.781 0-104.062 56.094-104.062 109.949h206.643c6.996 0 23.6 1.478 23.6 18.447 0 16.976-14.381 18.454-39.099 19.189h-215.501v-147.584h-63.46v147.584h-121.015c-36.54 0-40.581-26.93-40.581-41.311v-106.273h-115.498l-94.102 62.725-84.859-62.725h-247.561c-73.793 0-118.070 51.286-124.345 95.93h51.033c-20.402 13.759-34.854 32.4-42.703 51.592l-144.102 0.064c-36.53 0-40.593-26.93-40.593-41.311v-106.273h-63.455v100.733c0 69.368 48.702 83.019 72.314 83.019h507.339l94.82-63.467 85.976 63.467h100l-133.2-98.148 109.577-73.431v97.043c0 62.715 61.259 74.538 78.224 74.538h463.062c22.879 0 85.976-2.953 85.976-53.134s-46.513-56.827-85.253-56.827zM1169.255 575.835h-238.736c1.84-18.816 22.506-37.635 46.491-37.635h140.953v-36.158h-192.612c1.84-18.816 22.506-37.635 46.491-37.635h160.875v-21.027l111.439 82.647zM267.677 692.804c83.329 0 157.228-29.085 203.041-73.915l-41.281 0.198c-39.025 32.821-96.078 53.476-160.741 53.476-120.626 0-214.79-71.874-214.79-160.558 0-102.275 94.164-160.555 214.79-160.555 7.674 0.022 13.804 3.556 9.204 10.214-25.056 30.169-96.417 127.264-109.436 148.307-25.682 41.474-25.068 92.552 37.843 96.135h264.542c13.517 0 16.943-6.338 21.829-12.951 17.43-23.448 26.796-51.931 26.677-81.15-0.045-76.209-53.673-133.33-132.589-161.429l-12.217 18.246c65.575 24.192 108.932 73.082 108.932 143.183 0 12.176-1.783 24.029-5.154 35.427-2.934 9.894-8.662 18.268-19.509 18.268h-211.162c-27.052 0-16.597-27.901-6.58-41.422 14.527-26.044 94.097-134.492 113.255-154.7 4.882-7.41 18.566-22.76-0.298-28.635-26.93-6.394-56.027-9.746-86.371-9.746-138.991 0-251.6 71.375-251.676 180.807-0.067 110.455 112.687 180.799 251.688 180.799z"></path>
</svg>
