<svg aria-hidden="true" style="position: absolute; width: 0; height: 0; overflow: hidden;" version="1.1" xmlns="http://www.w3.org/2000/svg" xmlns:xlink="http://www.w3.org/1999/xlink">
<defs>
<symbol id="trident" viewBox="0 0 19 32">
<path d="M9.647 0.080c-0.743 0.842-1.196 1.944-1.196 3.154 0.044 2.656 0.37 5.309 0.399 7.96 0.059 2.476-0.684 4.8-1.588 7.069-0.301 0.627-0.627 1.239-0.953 1.854l-0.957-0.193c-0.863-0.172-1.425-1.010-1.252-1.872 0.151-0.754 0.816-1.282 1.557-1.282l0.349 0.037-0.779-6.496c-0.254-2.89-1.748-5.429-3.947-7.077-0.378-0.283-0.779-0.543-1.196-0.771v23.061h5.332c0.399 2.157 1.59 4.044 3.264 5.333 0.398 0.274 0.732 0.635 0.972 1.057 0.239-0.422 0.573-0.783 0.972-1.057 1.674-1.293 2.865-3.175 3.264-5.333h5.332v-23.061c-0.417 0.228-0.818 0.488-1.196 0.771-2.2 1.65-3.691 4.187-3.947 7.077l-0.779 6.496 0.349-0.037c0.741 0.003 1.406 0.527 1.557 1.282 0.172 0.862-0.389 1.699-1.252 1.872l-0.957 0.193c-0.326-0.614-0.652-1.227-0.953-1.854-0.905-2.267-1.648-4.591-1.589-7.069 0.029-2.659 0.355-5.309 0.399-7.96 0-1.21-0.453-2.308-1.196-3.154h-0.012zM1.674 5.787c1.032 1.209 1.725 2.714 1.929 4.373l0.638 5.357c-0.817 0.406-1.435 1.151-1.67 2.053h-0.903v-11.781l0.006-0.002zM17.62 5.787v11.781h-0.903c-0.233-0.901-0.852-1.646-1.669-2.053l0.638-5.357c0.207-1.657 0.899-3.163 1.929-4.373l0.006 0.002zM9.647 16.557c0.428 1.399 1.017 2.73 1.75 3.963-0.697 0.211-1.303 0.622-1.75 1.175-0.447-0.553-1.053-0.963-1.75-1.176 0.733-1.235 1.322-2.563 1.75-3.962zM1.674 19.163h0.903c0.285 1.099 1.144 1.967 2.232 2.27l0.766 0.174c-0.205 0.742-0.317 1.52-0.317 2.332h-3.588v-4.776l0.003-0.001zM16.719 19.163h0.903v4.776h-3.588c0-0.807-0.112-1.59-0.317-2.332l0.766-0.174c1.092-0.303 1.951-1.172 2.232-2.27l0.003 0.001zM7.136 21.973c0.967 0.136 1.713 0.963 1.713 1.965h-1.993c0-0.682 0.101-1.34 0.281-1.965zM12.156 21.973c0.179 0.625 0.281 1.282 0.281 1.965h-1.993c0-1.004 0.745-1.829 1.713-1.965zM7.038 25.532h1.812v3.351c-0.877-0.919-1.515-2.070-1.812-3.351zM10.444 25.532h1.812c-0.293 1.282-0.933 2.433-1.812 3.351v-3.351z"></path>
</symbol>

<symbol id="icon-instagram" viewBox="0 0 32 32">
<path d="M31.969 9.408c-0.075-1.7-0.35-2.869-0.744-3.882-0.406-1.075-1.032-2.038-1.851-2.838-0.8-0.813-1.769-1.444-2.832-1.844-1.019-0.394-2.182-0.669-3.882-0.744-1.713-0.081-2.257-0.1-6.601-0.1s-4.888 0.019-6.595 0.094c-1.7 0.075-2.869 0.35-3.882 0.744-1.075 0.406-2.038 1.031-2.838 1.85-0.813 0.8-1.444 1.769-1.844 2.832-0.394 1.019-0.669 2.182-0.744 3.882-0.081 1.713-0.1 2.257-0.1 6.601s0.019 4.888 0.094 6.595c0.075 1.7 0.35 2.869 0.744 3.882 0.406 1.075 1.038 2.038 1.85 2.838 0.8 0.813 1.769 1.444 2.832 1.844 1.019 0.394 2.182 0.669 3.882 0.744 1.706 0.075 2.25 0.094 6.595 0.094s4.888-0.019 6.595-0.094c1.7-0.075 2.869-0.35 3.882-0.744 2.151-0.832 3.851-2.532 4.682-4.682 0.394-1.019 0.669-2.182 0.744-3.882 0.075-1.707 0.094-2.251 0.094-6.595s-0.006-4.888-0.081-6.595zM29.087 22.473c-0.069 1.563-0.331 2.407-0.55 2.969-0.538 1.394-1.644 2.5-3.038 3.038-0.563 0.219-1.413 0.481-2.969 0.55-1.688 0.075-2.194 0.094-6.464 0.094s-4.782-0.019-6.464-0.094c-1.563-0.069-2.407-0.331-2.969-0.55-0.694-0.256-1.325-0.663-1.838-1.194-0.531-0.519-0.938-1.144-1.194-1.838-0.219-0.563-0.481-1.413-0.55-2.969-0.075-1.688-0.094-2.194-0.094-6.464s0.019-4.782 0.094-6.464c0.069-1.563 0.331-2.407 0.55-2.969 0.256-0.694 0.663-1.325 1.2-1.838 0.519-0.531 1.144-0.938 1.838-1.194 0.563-0.219 1.413-0.481 2.969-0.55 1.688-0.075 2.194-0.094 6.464-0.094 4.276 0 4.782 0.019 6.464 0.094 1.563 0.069 2.407 0.331 2.969 0.55 0.694 0.256 1.325 0.662 1.838 1.194 0.531 0.519 0.938 1.144 1.194 1.838 0.219 0.563 0.481 1.413 0.55 2.969 0.075 1.688 0.094 2.194 0.094 6.464s-0.019 4.77-0.094 6.458z"></path>
<path d="M16.059 7.783c-4.538 0-8.22 3.682-8.22 8.22s3.682 8.22 8.22 8.22c4.539 0 8.22-3.682 8.22-8.22s-3.682-8.22-8.22-8.22zM16.059 21.335c-2.944 0-5.332-2.388-5.332-5.332s2.388-5.332 5.332-5.332c2.944 0 5.332 2.388 5.332 5.332s-2.388 5.332-5.332 5.332z"></path>
<path d="M26.524 7.458c0 1.060-0.859 1.919-1.919 1.919s-1.919-0.859-1.919-1.919c0-1.060 0.859-1.919 1.919-1.919s1.919 0.859 1.919 1.919z"></path>
</symbol>

<symbol id="icon-lexus" viewBox="0 0 1280 640">
<path d="M1309.795 312.896h-107.152c1.329-13.425 10.803-26.853 27.916-26.853h126.359v-25.799h-132.153c-52.643 0-74.248 40.022-74.248 78.448h147.439c4.992 0 16.839 1.054 16.839 13.162 0 12.113-10.261 13.167-27.897 13.691h-153.759v-105.301h-45.278v105.301h-86.344c-26.071 0-28.954-19.214-28.954-29.475v-75.825h-82.407l-67.141 44.754-60.546-44.754h-176.633c-52.651 0-84.243 36.592-88.719 68.446h36.412c-14.557 9.817-24.868 23.118-30.468 36.811l-102.816 0.046c-26.064 0-28.963-19.214-28.963-29.475v-75.825h-45.275v71.873c0 49.494 34.749 59.234 51.596 59.234h361.983l67.654-45.283 61.343 45.283h71.349l-95.037-70.028 78.183-52.393v69.239c0 44.747 43.708 53.182 55.812 53.182h330.392c16.324 0 61.343-2.107 61.343-37.911s-33.187-40.546-60.828-40.546zM732.217 365.546h-170.337c1.313-13.425 16.058-26.852 33.171-26.852h100.569v-25.799h-137.428c1.313-13.425 16.058-26.853 33.171-26.853h114.783v-15.002l79.511 58.968zM88.947 449.002c59.455 0 112.181-20.752 144.869-52.738l-29.454 0.141c-27.844 23.418-68.551 38.155-114.688 38.155-86.066 0-153.251-51.282-153.251-114.558 0-72.972 67.186-114.555 153.251-114.555 5.476 0.016 9.849 2.537 6.567 7.287-17.878 21.526-68.793 90.802-78.082 105.816-18.324 29.591-17.886 66.036 27.001 68.592h188.749c9.644 0 12.089-4.522 15.575-9.241 12.436-16.73 19.119-37.053 19.034-57.9-0.032-54.374-38.296-95.13-94.601-115.179l-8.717 13.018c46.788 17.261 77.722 52.144 77.722 102.16 0 8.688-1.272 17.144-3.678 25.277-2.093 7.059-6.18 13.034-13.919 13.034h-150.663c-19.301 0-11.842-19.908-4.695-29.554 10.365-18.582 67.138-95.959 80.807-110.377 3.483-5.287 13.247-16.239-0.213-20.431-19.214-4.562-39.975-6.954-61.625-6.954-99.169 0-179.515 50.926-179.569 129.005-0.047 78.809 80.401 128.999 179.578 128.999z"></path>
</symbol>

<symbol id="icon-Jeep" viewBox="0 0 79 32">
<path d="M66.188 17.083c-0.065 3.56 0.704 5.446 3.639 5.446 2.93 0 3.35-3.212 3.35-5.657 0-2.446-0.556-4.821-3.634-4.821-1.888 0-3.283 1.467-3.355 5.031zM60.251 31.961v-24.099h6.010c0 0 0 0.349 0 0.978 0 1.304 0.526 0.766 0.95 0.258 0.071-0.085 1.41-1.724 4.427-1.724 3.007 0 7.686 2.095 7.686 9.5 0 5.728-2.791 9.918-7.612 9.918-2.656 0-4.192-1.046-4.543-1.468-0.352-0.416-0.84-0.489-0.84 0 0 0.49 0 6.638 0 6.638h-6.078z"></path>
<path d="M13.799 0.040h6.497c0 0 0 14.108 0 17.043 0 2.932-1.259 9.080-10.268 9.080-9.010 0-9.988-5.731-9.988-8.942v-3.143h6.287c0 0 0 1.187 0 3.072 0 1.886 1.258 3.631 3.631 3.631 2.375 0 3.841-1.327 3.841-3.56 0-2.235 0-17.182 0-17.182z"></path>
<path d="M33.882 14.498c0-1.748-0.976-3.424-3.211-3.424-2.165 0-2.934 1.535-2.934 3.424h6.146zM30.044 7.163c5.102 0 9.57 1.955 9.57 10.966h-12.083c0 2.864 1.186 4.052 3.282 4.052s2.794-1.678 2.794-1.678h5.939c0 2.585-3.563 6.078-8.943 6.008-6.145 0-9.149-4.54-9.149-9.221 0-4.682 2.653-10.128 8.59-10.128z"></path>
<path d="M53.198 14.498c0-1.748-0.977-3.424-3.212-3.424-2.164 0-2.935 1.535-2.935 3.424h6.147zM49.361 7.163c5.101 0 9.569 1.955 9.569 10.966h-12.082c0 2.864 1.187 4.052 3.284 4.052 2.094 0 2.793-1.678 2.793-1.678h5.939c0 2.585-3.563 6.078-8.942 6.008-6.148 0-9.152-4.54-9.152-9.221 0-4.682 2.656-10.128 8.592-10.128z"></path>
</symbol>

<symbol id="icon-honda" viewBox="0 0 51 32">
<path d="M5.828 26.82l0.77 0.092c0.348 0.037 0.385 0.33 0.385 0.513v0.899h-3.539v-0.899c0-0.183 0.037-0.477 0.385-0.513l0.77-0.092v-0.77h-4.585v0.77l0.77 0.092c0.348 0.037 0.385 0.33 0.385 0.513v2.971c0 0.183-0.037 0.477-0.385 0.513l-0.77 0.092v0.77h4.585v-0.77l-0.77-0.092c-0.348-0.037-0.385-0.33-0.385-0.513v-0.899h3.521v0.899c0 0.183-0.037 0.477-0.385 0.513l-0.77 0.092v0.77h4.585v-0.77l-0.77-0.092c-0.348-0.037-0.385-0.33-0.385-0.513v-2.971c0-0.183 0.037-0.477 0.385-0.513l0.77-0.092v-0.77h-4.585v0.77h0.018z"></path>
<path d="M36.361 26.049h-5.648v0.77l0.679 0.073c0.238 0.037 0.403 0.128 0.403 0.458v3.026c0 0.183-0.037 0.477-0.385 0.513l-0.77 0.092v0.77h5.722c2.054 0 3.741-0.825 3.741-2.861s-1.687-2.842-3.741-2.842zM35.939 30.671h-1.926v-3.521h1.926c1.137 0 1.522 0.532 1.522 1.76 0 1.21-0.385 1.76-1.522 1.76z"></path>
<path d="M49.711 30.909c-0.367-0.037-0.477-0.275-0.587-0.44l-2.641-4.034c-0.183-0.293-0.33-0.385-0.605-0.385h-4.328v0.77l1.045 0.11c0.147 0.018 0.348 0.22 0.183 0.477l-1.962 3.173c-0.073 0.128-0.183 0.275-0.403 0.312l-0.77 0.092v0.77h3.649v-0.77l-0.623-0.055c-0.275-0.037-0.422-0.22-0.275-0.44l0.293-0.477h3.521l0.257 0.385c0.238 0.348-0.055 0.495-0.312 0.513l-0.642 0.073v0.77h4.951v-0.77l-0.752-0.073zM43.293 29.002l1.082-1.76 1.155 1.76h-2.237z"></path>
<path d="M26.623 26.82l0.77 0.092c0.348 0.037 0.385 0.33 0.385 0.513v2.861l-3.026-3.998c-0.128-0.183-0.257-0.238-0.587-0.238h-3.924v0.77l0.77 0.092c0.348 0.037 0.385 0.33 0.385 0.513v2.971c0 0.183-0.037 0.477-0.385 0.513l-0.77 0.092v0.77h3.668v-0.77l-0.77-0.092c-0.348-0.037-0.385-0.33-0.385-0.513v-2.861l3.026 3.979c0.147 0.183 0.257 0.238 0.587 0.238h2.787v-4.346c0-0.183 0.037-0.477 0.385-0.513l0.77-0.092v-0.77h-3.649l-0.037 0.789z"></path>
<path d="M15.308 25.848c-3.723 0-4.676 1.632-4.676 3.044s0.954 3.063 4.676 3.063c3.723 0 4.676-1.632 4.676-3.044 0-1.43-0.954-3.063-4.676-3.063zM15.308 30.872c-1.449 0-2.036-0.605-2.036-1.962s0.605-1.962 2.036-1.962c1.449 0 2.036 0.605 2.036 1.962s-0.587 1.962-2.036 1.962z"></path>
<path d="M31.575 1.935c-0.623 2.806-0.88 4.108-1.394 6.125-0.495 1.944-0.88 3.759-1.54 4.64-0.66 0.899-1.559 1.082-2.164 1.155-0.312 0.037-0.55 0.055-1.229 0.055s-0.917-0.018-1.229-0.055c-0.605-0.073-1.504-0.257-2.164-1.155-0.66-0.88-1.045-2.696-1.522-4.64-0.513-2.036-0.77-3.319-1.394-6.125 0 0-0.623 0.018-0.899 0.037-0.385 0.018-0.679 0.055-0.99 0.092 0 0 0.367 5.777 0.532 8.234 0.165 2.567 0.477 6.914 0.752 10.196 0 0 0.532 0.092 1.412 0.128 0.917 0.055 1.339 0.055 1.339 0.055 0.385-1.449 0.844-3.448 1.375-4.309 0.44-0.697 1.1-0.77 1.485-0.825 0.587-0.073 1.1-0.092 1.32-0.092v0 0c0.238 0 0.734 0 1.32 0.092 0.385 0.055 1.045 0.128 1.485 0.825 0.532 0.862 1.009 2.861 1.375 4.309 0 0 0.403 0 1.32-0.055 0.88-0.055 1.412-0.128 1.412-0.128 0.275-3.283 0.587-7.61 0.752-10.196 0.165-2.439 0.532-8.234 0.532-8.234-0.312-0.037-0.623-0.073-0.99-0.092-0.275-0.018-0.899-0.037-0.899-0.037z"></path>
<path d="M38.855 5.345c-0.367-3.668-2.824-4.438-4.97-4.805-1.082-0.183-3.007-0.33-4.236-0.385-1.082-0.073-3.613-0.11-4.383-0.11s-3.301 0.037-4.383 0.11c-1.229 0.055-3.154 0.202-4.236 0.385-2.146 0.367-4.603 1.137-4.97 4.805-0.11 1.009-0.128 2.311-0.11 3.704 0.037 2.329 0.238 3.888 0.348 4.988 0.073 0.752 0.385 2.989 0.789 4.144 0.55 1.595 1.045 2.054 1.632 2.531 1.064 0.862 2.824 1.137 3.191 1.21 1.981 0.348 5.978 0.422 7.757 0.422 1.76 0 5.777-0.055 7.757-0.422 0.367-0.073 2.127-0.33 3.191-1.21 0.587-0.477 1.082-0.935 1.632-2.531 0.403-1.155 0.715-3.411 0.789-4.144 0.11-1.082 0.312-2.659 0.348-4.988-0.018-1.412-0.055-2.714-0.147-3.704zM37.498 11.507c-0.22 2.934-0.477 4.695-0.844 5.96-0.33 1.119-0.734 1.852-1.32 2.384-0.99 0.899-2.347 1.082-3.154 1.21-1.724 0.257-4.64 0.348-6.914 0.348-2.292 0-5.19-0.092-6.914-0.348-0.807-0.128-2.164-0.312-3.154-1.21-0.587-0.532-0.99-1.284-1.32-2.384-0.367-1.265-0.642-3.026-0.844-5.96-0.128-1.76-0.11-4.621 0.092-6.162 0.275-2.311 1.412-3.466 3.851-3.888 1.137-0.202 2.677-0.348 4.126-0.422 1.174-0.073 3.081-0.11 4.163-0.11 1.064-0.018 2.989 0.037 4.144 0.11 1.449 0.073 2.989 0.22 4.126 0.422 2.439 0.44 3.576 1.595 3.869 3.888 0.202 1.522 0.22 4.383 0.092 6.162z"></path>
</symbol>

<symbol id="icon-ford" viewBox="0 0 1024 512">

<path d="M516.052 66.115c256.798 0 446.867 71.205 445.389 171.695-1.465 88.058-188.593 173.903-445.389 173.903-256.801 0-455.663-65.307-455.663-167.318 0.739-99.802 198.868-178.323 455.663-178.323z"></path>
<path fill="#fff" d="M514.573 397.014c256.798 0 430.751-82.898 430.751-162.155 0-78.527-175.376-154.839-432.177-154.839-220.144 0-435.122 68.257-436.6 162.894-0.737 88.797 181.227 154.1 438.075 154.1z"></path>
<path d="M513.104 384.588c256.801 0 418.954-80.736 418.954-146.779 0-71.153-159.211-144.57-416.058-144.57s-424.855 74.837-424.855 148.204c0.002 78.527 165.111 143.094 421.91 143.094z"></path>
<path fill="#fff" d="M631.972 134.317c-4.423 0-29.341 7.325-61.62 7.325-69.73 0-117.399-18.33-171.697-18.33-55.034 0-96.113 26.435-96.113 60.145 0 23.489 17.591 31.545 30.070 31.545 22.753 0 51.353-24.959 51.353-44.029 0-1.476-1.476-5.846-2.945-5.846-6.586 0-15.429 25.698-38.183 25.698-11.009 0-15.429-10.269-15.429-14.692 0-13.22 16.168-40.345 66.782-40.345 22.014 0 46.243 4.421 70.464 9.53-22.75 6.585-44.029 33.023-66.782 62.353-19.061 2.214-35.968 5.16-43.289 13.959-6.586 7.316-2.214 12.481 1.476 8.792 5.899-6.585 19.063-9.53 33.759-11.745-29.33 38.924-58.719 77.791-92.428 77.791-18.333 0-25.699-13.22-25.699-22.75 0-16.855 16.168-30.070 25.699-35.234 5.846-2.214 6.586-8.794-4.423-8.794-24.228 0-44.767 27.174-44.767 48.452 0 29.339 21.276 49.139 49.877 49.139 50.614 0 82.898-60.197 115.181-110.81 16.116-1.476 32.284-2.953 45.504-5.849 4.423 6.585 11.009 9.53 13.22 9.53s2.945-2.214 2.945-3.684c0-0.739-5.159-2.214-8.794-8.064 11.745-3.684 19.063-9.53 19.063-19.8 0-5.849-4.421-13.22-13.22-13.22-11.745 0-17.591 10.269-17.591 20.539 0 2.214 0.739 4.423 0.739 6.585-9.533 1.476-22.014 2.214-35.235 3.684 16.168-24.959 32.284-45.504 50.614-53.559l-2.214-6.585c40.344 9.53 79.996 22.014 107.857 22.014 35.976 0 63.092-16.116 63.092-27.861 0-2.214-3.692-5.899-7.316-5.899zM463.18 195.989c0-5.846 2.945-13.22 9.531-13.22 2.945 0 5.159 3.684 5.159 5.16 0 5.849-5.849 10.269-14.69 12.484v-4.423z"></path>
<path fill="#fff" d="M508.678 324.385c14.692-23.49 41.086-65.304 41.086-73.368 0-3.684-2.215-5.849-5.901-5.849-9.53 0-31.545 22.753-42.553 39.608-18.33 28.599-35.235 42.553-54.298 42.553-20.539 0-31.545-13.223-34.498-27.174-5.159 5.899-11.745 12.484-17.594 16.168-3.684 2.212-10.269-7.325-5.846-11.009 9.531-7.325 16.168-16.168 22.014-26.435 11.745-22.753 30.070-49.138 56.512-49.138 8.794 0 12.484 8.794 4.421 11.745-27.174 8.792-37.443 33.023-37.443 48.452 0 11.009 5.849 16.855 14.692 16.855 25.699 0 46.974-36.704 35.968-63.828-2.214-6.585 10.269-15.429 13.959-10.269 5.899 5.849 8.055 20.539 6.586 27.174 11.747-11.745 29.338-34.498 47.713-34.498 8.792 0 15.432 6.585 15.432 13.22 0.739 3.684 0.739 8.794-0.739 11.745 9.53-13.22 21.275-23.489 33.023-23.489 10.269 0 18.33 7.316 18.33 16.855 0 8.794-7.316 18.33-16.17 18.33-8.055 0-13.948-6.585-11.74-14.69 0-0.739 0-2.214-2.215-2.214-2.953 0-10.269 12.484-10.269 21.276 0 8.063 7.316 12.484 13.212 12.484 25.707 0 53.562-49.877 88.060-49.877 10.269 0 22.014 3.684 25.707 19.803 13.212-21.275 29.331-45.504 41.814-66.043h25.696c-28.6 48.452-74.098 113.017-74.098 121.080 0 4.421 4.423 7.325 7.327 7.325 7.316 0 27.861-16.168 44.763-35.234 3.692-4.423 10.269 2.214 8.066 4.421-26.438 32.284-44.029 47.713-63.828 47.713-11.009 0-16.907-9.533-19.072-19.063-9.53 8.794-22.748 17.594-35.226 17.594-13.959 0-25.707-10.269-25.707-30.070 0-4.423 0.739-10.269 2.215-14.692-10.269 6.586-22.014 12.484-30.069 12.484-13.959 0-19.8-10.269-19.8-24.959l-35.237 55.034-24.234-0.002zM681.847 244.389c-18.33 0-42.553 29.339-42.553 50.614 0 5.899 5.846 13.22 11.009 13.22 13.959 0 32.284-20.539 41.814-38.13l-3.692-2.945c1.476-2.945 3.692-8.791 3.692-13.22s-3.692-9.533-10.269-9.533z"></path>
</symbol>

<symbol id="icon-chrysler" viewBox="0 0 512 512">
<!-- <path fill="#eee" d="M19.002 14.81h1.856v-0.205h-1.286v-0.922h-0.57v1.126z"></path> -->


<path d="M394.070 201.238h85.376v-9.427h-59.178v-42.391h-26.199v51.817z"></path>
<path d="M-97.875 149.421v51.817h26.198c0 0 0-20.608 0-21.203 0.595 0 44.755 0 45.334 0 0 0.595 0 21.203 0 21.203h26.198v-51.817h-26.198c0 0 0 20.608 0 21.203-0.595 0-44.755 0-45.334 0 0-0.595 0-21.203 0-21.203h-26.198z"></path>
<path d="M228.909 149.421l-24.147 21.782-25.024-21.782-30.317-2.067v2.067c0 0 36.8 30.614 37.097 30.912 0 0.298 0 21.203 0 21.203h26.198c0 0 0-21.203 0-21.485 0.298 0 34.154-30.317 34.154-30.317v-2.067l-17.962 1.769z"></path>
<path d="M508.589 201.238h86.848v-8.535h-60.947v-13.248h58.582v-8.832h-58.582v-12.371h59.757v-8.832h-85.673v51.817z"></path>
<path d="M268.074 162.966c0 12.073 13.843 15.018 32.681 17.367 19.433 2.349 28.265 2.944 28.265 7.657 0 4.119-5.591 6.185-22.377 6.185-18.839 0-34.733-4.714-37.098-5.293 0 0.298-1.769 5.888-2.349 8.832-0.298 0.877 0 2.067 0 2.067 2.647 0.595 17.664 4.119 40.621 4.119 25.024 0 49.453-4.416 49.453-17.962 0-9.427-9.709-14.125-37.974-17.367-11.478-1.472-23.849-2.349-23.849-6.765 0-3.242 3.241-5.011 20.013-5.011 16.49 0 30.035 3.539 32.384 4.119l2.067-12.073c-2.944-0.595-19.136-1.472-40.621-1.472-17.962-0.298-41.216 2.349-41.216 15.597z"></path>
<path d="M-222.697 175.338c0 16.787 17.664 28.266 54.464 28.266 14.125 0 29.142-2.067 31.507-2.349l2.349-12.951c-3.242 0.298-15.315 4.119-28.563 4.119-20.31 0-34.154-5.011-34.154-17.069s12.951-17.069 34.451-17.069c12.073 0 25.024 1.769 27.968 2.067v-2.067l-2.349-8.832c-3.821-0.298-16.787-2.349-30.912-2.349-36.8 0.298-54.761 11.181-54.761 28.266z"></path>
<path d="M40.211 201.238h26.198v-42.391c3.539-0.298 7.657-0.595 13.546-0.595 6.186 0 10.899 0 14.72 0.595 7.955 1.174 10.602 3.821 10.602 7.063 0 3.539-3.539 6.765-11.478 7.955-5.293 0.595-8.832 0.877-13.546 0.877-2.067 0-7.955-2.349-7.955-2.349v2.067l29.737 26.793h33.261v-2.067l-30.035-19.434c5.888-0.298 7.955-0.595 13.843-2.647 7.955-2.647 11.776-6.765 11.776-11.181 0-6.185-3.821-11.181-18.541-14.423-8.237-1.769-18.259-2.647-32.087-2.647-18.838 0-37.974 0.595-40.041 0.877 0-0.298 0 51.52 0 51.52z"></path>
<path d="M629.888 201.238h26.198v-42.391c3.539-0.298 7.658-0.595 13.545-0.595 6.186 0 10.899 0 14.72 0.595 7.955 1.174 10.601 3.821 10.304 7.063 0 3.539-3.539 6.765-11.479 7.955-5.011 0.595-8.832 0.877-13.545 0.877-2.349 0-7.955-2.349-7.955-2.349v2.067l29.737 26.793h33.261v-2.067l-30.035-19.434c5.888-0.298 7.955-0.595 14.125-2.647 7.955-2.647 11.776-6.765 12.073-11.181 0-6.185-3.821-11.181-18.541-14.423-8.237-1.769-18.259-2.647-32.087-2.647-18.838 0-37.975 0.595-40.042 0.877-0.298-0.298-0.298 51.52-0.298 51.52z"></path>
<path d="M394.070 196.243h85.376v-8.832h-59.178v-39.744h-26.199v48.576z"></path>
<path d="M-97.875 147.667v48.576h26.198c0 0 0-19.136 0-19.731 0.595 0 44.755 0 45.334 0 0 0.595 0 19.731 0 19.731h26.198v-48.576h-26.198c0 0 0 19.136 0 19.731-0.595 0-44.755 0-45.334 0 0-0.595 0-19.731 0-19.731h-26.198z"></path>
<path d="M228.909 147.667l-24.147 20.608-25.024-20.608-30.035-0.298c0 0 36.502 28.845 36.8 28.845 0 0.298 0 19.731 0 19.731h26.198c0 0 0-20.013 0-20.31 0.298 0 33.856-28.563 33.856-28.563l-17.664 0.595z"></path>
<path d="M508.589 196.243h86.848v-7.955h-60.947v-12.371h58.582v-8.237h-58.582v-11.776h59.757v-8.237h-85.673v48.576z"></path>
<path d="M268.074 160.32c0 11.181 13.843 13.843 32.681 16.192 19.433 2.349 28.265 2.944 28.265 7.063 0 3.821-5.591 5.888-22.377 5.888-18.839 0-34.733-4.416-37.098-5.011 0 0.595-2.349 12.951-2.349 12.951 2.647 0.595 17.664 0.877 40.621 0.877 25.024 0 49.453-4.119 49.453-16.787 0-8.832-9.709-13.248-37.974-16.192-11.478-1.174-23.849-2.067-23.849-6.185 0-3.242 3.241-4.416 20.013-4.416 16.49 0 30.035 3.242 32.384 3.821l2.067-9.427c-2.944-0.595-19.136-3.242-40.621-3.242-17.962-0.298-41.216 2.067-41.216 14.422z"></path>
<path d="M-222.697 172.096c0 15.597 17.664 26.496 54.464 26.496 14.125 0 29.142-2.067 31.507-2.349l2.349-7.955v-2.349c-3.242 0.298-15.315 2.067-28.563 2.067-20.31 0-34.154-4.714-34.154-15.894s12.951-15.894 34.451-15.894c12.073 0 25.024 1.472 27.968 2.067l-2.349-10.304c-3.821-0.298-16.787-2.349-30.912-2.349-36.8 0-54.761 10.304-54.761 26.496z"></path>
<path d="M40.211 196.243h26.198v-40.041c3.539-0.298 7.657-0.595 13.546-0.595 6.186 0 10.899 0 14.72 0.595 7.955 1.174 10.602 3.539 10.602 6.765s-3.539 6.185-11.478 7.36c-5.293 0.595-8.832 0.877-13.546 0.877-2.647 0-4.713 0-7.955-0.298v1.174l29.737 23.85 33.261 2.944v-2.944l-30.035-20.31c5.888-0.298 7.955-0.595 13.843-2.349 7.955-2.349 11.776-6.185 11.776-10.601 0-5.59-3.821-10.601-18.541-13.546-8.237-1.769-18.259-2.349-32.087-2.349-18.838 0-37.974 0.595-40.041 0.877 0 0.298 0 48.576 0 48.576z"></path>
<path d="M629.888 196.243h26.198v-40.041c3.539-0.298 7.658-0.595 13.545-0.595 6.186 0 10.899 0 14.72 0.595 7.955 1.174 10.601 3.539 10.304 6.765 0 3.242-3.539 6.185-11.479 7.36-5.011 0.595-8.832 0.877-13.545 0.877-2.646 0-4.713 0-7.955-0.298v1.174l29.737 23.85 33.261 2.944v-2.944l-30.035-20.31c5.888-0.298 7.955-0.595 14.125-2.349 7.955-2.349 11.776-6.185 12.073-10.601 0-5.59-3.821-10.601-18.541-13.546-8.237-1.769-18.259-2.349-32.087-2.349-18.838 0-37.975 0.595-40.042 0.877-0.298 0.298-0.298 48.576-0.298 48.576z"></path>
<path d="M394.070 199.187h85.376v-9.427h-59.178v-42.391h-26.199v51.817z"></path>
<path d="M-97.875 147.369v51.817h26.198c0 0 0-20.608 0-21.203 0.595 0 44.755 0 45.334 0 0 0.595 0 21.203 0 21.203h26.198v-51.817h-26.198c0 0 0 20.608 0 21.203-0.595 0-44.755 0-45.334 0 0-0.595 0-21.203 0-21.203h-26.198z"></path>
<path d="M228.909 147.369l-24.147 21.782-25.024-21.782h-30.317c0 0 36.8 30.614 37.097 30.912 0 0.298 0 21.203 0 21.203h26.198c0 0 0-21.203 0-21.485 0.298 0 34.154-30.317 34.154-30.317h-17.962z"></path>
<path d="M508.589 199.187h86.848v-8.535h-60.947v-13.248h58.582v-8.832h-58.582v-12.371h59.757v-8.832h-85.673v51.817z"></path>
<path d="M268.074 160.915c0 12.073 13.843 15.018 32.681 17.367 19.433 2.349 28.265 2.944 28.265 7.657 0 4.119-5.591 6.185-22.377 6.185-18.839 0-34.733-4.714-37.098-5.293 0 0.595-2.349 10.899-2.349 10.899 2.647 0.595 17.664 4.119 40.621 4.119 25.024 0 49.453-4.416 49.453-17.962 0-9.427-9.709-14.125-37.974-17.367-11.478-1.472-23.849-2.349-23.849-6.765 0-3.242 3.241-5.011 20.013-5.011 16.49 0 30.035 3.539 32.384 4.119l2.067-10.006c-2.944-0.595-19.136-3.539-40.621-3.539-17.962-0.298-41.216 2.349-41.216 15.597z"></path>
<path d="M-222.697 173.27c0 16.787 17.664 28.266 54.464 28.266 14.125 0 29.142-2.067 31.507-2.349l2.349-10.899c-3.242 0.298-15.315 2.067-28.563 2.067-20.31 0-34.154-5.011-34.154-17.069s12.951-17.069 34.451-17.069c12.073 0 25.024 1.769 27.968 2.067l-2.349-10.899c-3.821-0.298-16.787-2.349-30.912-2.349-36.8 0.298-54.761 11.181-54.761 28.266z"></path>
<path d="M40.211 199.187h26.198v-42.688c3.539-0.298 7.657-0.595 13.546-0.595 6.186 0 10.899 0 14.72 0.595 7.955 1.174 10.602 3.821 10.602 7.063 0 3.539-3.539 6.765-11.478 7.955-5.293 0.595-8.832 0.877-13.546 0.877-2.647 0-4.713 0-7.955-0.298l29.737 26.793h33.261l-30.035-21.485c5.888-0.298 7.955-0.595 13.843-2.647 7.955-2.647 11.776-6.765 11.776-11.181 0-6.185-3.821-11.181-18.541-14.422-8.237-1.769-18.259-2.647-32.087-2.647-18.838 0-37.974 0.595-40.041 0.877 0 0 0 51.817 0 51.817z"></path>
<path d="M629.888 199.187h26.198v-42.688c3.539-0.298 7.658-0.595 13.545-0.595 6.186 0 10.899 0 14.72 0.595 7.955 1.174 10.601 3.821 10.304 7.063 0 3.539-3.539 6.765-11.479 7.955-5.011 0.595-8.832 0.877-13.545 0.877-2.646 0-4.713 0-7.955-0.298l29.737 26.793h33.261l-30.035-21.485c5.888-0.298 7.955-0.595 14.125-2.647 7.955-2.647 11.776-6.765 12.073-11.181 0-6.185-3.821-11.181-18.541-14.422-8.237-1.769-18.259-2.647-32.087-2.647-18.838 0-37.975 0.595-40.042 0.877-0.298 0-0.298 51.817-0.298 51.817z"></path>
<path d="M257.769 358.445c-12.653-0.595-33.856 1.472-40.041 3.821-7.063 2.944-9.427 4.714-26.496 4.714-17.367 0-51.222-4.714-51.222-4.714s-361.815-55.341-371.539-58.582-21.782-9.709-35.625-17.962c-13.546-8.237-21.485-15.597-21.485-21.203 0-5.293 8.534-6.765 8.534-6.765l398.912-2.349c0 0 16.489-0.595 22.080 0.595 5.59 1.472 29.738 12.371 37.097 13.843 17.962 3.539 79.785 2.067 79.785 2.067"></path>
<path d="M-221.523 275.136l247.594 4.118c0 0 7.955 0.298 13.248 1.769s10.899 5.591 10.899 5.591h62.701c0 0-21.485 0.595-23.254 1.472s-0.595 1.472-0.595 1.472h-45.037l1.77 1.769 13.546 1.769 10.304 8.534h49.453c0 0-9.427 1.769-11.181 3.241s-1.769 1.472-1.769 1.472h-37.097c0 0 1.174 2.067 6.483 2.349s5.888 1.472 8.237 2.067c2.349 0.595 12.951 9.709 34.451 15.894s59.757 12.653 59.757 12.653-55.341-1.175-79.488-11.478c-24.147-10.304-56.813-34.154-64.173-37.097s-15.017-2.067-15.017-2.067-168.403-6.765-187.539-8.237c-19.136-1.472-53.29-5.293-53.29-5.293z"></path>
<path d="M254.231 358.445c12.653-0.595 33.856 1.472 40.041 3.821 7.063 2.944 9.427 4.714 26.496 4.714 17.366 0 51.223-4.714 51.223-4.714s361.517-55.059 371.241-58.582c9.709-3.241 21.783-9.709 35.625-17.962 13.545-8.237 21.485-15.597 21.485-21.203 0-5.293-8.534-6.765-8.534-6.765l-398.912-2.349c0 0-16.49-0.595-22.080 0.595-5.591 1.472-29.738 12.371-37.097 13.843-17.962 3.539-79.786 2.067-79.786 2.067"></path>
<path d="M733.523 275.136l-247.594 4.118c0 0-7.955 0.298-13.248 1.769s-10.899 5.591-10.899 5.591h-62.701c0 0 21.485 0.595 23.255 1.472s0.595 1.472 0.595 1.472h45.037l-1.769 1.769-13.546 1.769-10.304 8.534h-49.453c0 0 9.427 1.769 11.181 3.241s1.769 1.472 1.769 1.472h37.098c0 0-1.175 2.067-6.483 2.349s-5.888 1.472-8.237 2.067c-2.349 0.595-12.95 9.709-34.451 15.894s-59.757 12.653-59.757 12.653 55.341-1.175 79.488-11.478c24.147-10.304 56.813-34.154 64.173-37.097s15.017-2.067 15.017-2.067 168.403-6.765 187.539-8.237c19.136-1.472 53.289-5.293 53.289-5.293z"></path>
<path d="M257.769 320.173c0 0-46.509-0.298-76.246 0s-35.923-4.118-48.279-14.423c-16.489-13.843-14.422-20.31-14.422-20.31h138.963z"></path>
<path d="M257.769 319.891c0 0-45.929-0.298-75.072 0s-36.8-5.011-47.699-14.423c-15.894-13.843-14.125-19.731-14.125-19.731h136.896z"></path>
<path d="M252.758 320.173c0 0 46.509-0.298 76.246 0s35.923-4.118 48.279-14.423c16.49-13.843 14.423-20.31 14.423-20.31h-138.963z"></path>
<path d="M252.758 319.891c0 0 45.929-0.298 75.072 0s36.8-5.011 47.699-14.423c15.894-13.843 14.125-19.731 14.125-19.731h-141.014z"></path>
<path d="M283.091 306.643h19.433v-2.349h-13.546v-9.427h-5.888v11.776z"></path>
<path d="M283.671 306.346h18.259v-2.067h-12.653v-9.13h-5.591v11.181z"></path>
<path d="M177.686 294.867v11.776h5.888c0 0 0-4.714 0-4.714s10.006 0 10.304 0c0 0 0 4.714 0 4.714h5.888v-11.776h-5.888c0 0 0 4.714 0 4.714s-10.006 0-10.304 0c0 0 0-4.714 0-4.714h-5.888z"></path>
<path d="M177.984 295.149v11.181h5.59c0 0 0-4.416 0-4.416s9.709 0 9.709 0c0 0 0 4.416 0 4.416h5.59v-11.181h-5.59c0 0 0 4.416 0 4.416s-9.709 0-9.709 0c0 0 0-4.416 0-4.416h-5.59z"></path>
<path d="M248.64 294.57l-5.59 5.011-5.888-5.011h-7.063c0 0 8.535 7.063 8.535 7.063s0 5.011 0 5.011h6.185c0 0 0-5.011 0-5.011s7.955-7.063 7.955-7.063h-4.119z"></path>
<path d="M248.045 295.149l-5.293 4.714-5.293-4.714h-6.483c0 0 7.955 6.483 7.955 6.483s0 4.416 0 4.416h5.59c0 0 0-4.416 0-4.714 0 0 7.36-6.483 7.36-6.483h-3.821z"></path>
<path d="M307.52 306.643h19.731v-2.067h-13.843v-2.944h13.248v-2.067h-13.248v-2.647h13.546v-2.067h-19.433v11.776z"></path>
<path d="M308.115 306.346h18.541v-2.067h-12.95v-2.647h12.653v-2.067h-12.653v-2.647h12.653v-1.769h-18.259v11.181z"></path>
<path d="M255.702 297.811c0 2.647 3.241 3.539 7.658 3.821 4.416 0.595 6.483 0.595 6.483 1.769 0 0.877-1.175 1.472-5.011 1.472-4.416 0-7.955-1.175-8.534-1.175 0 0-0.595 2.349-0.595 2.349 0.595 0 4.119 0.877 9.427 0.877 5.888 0 11.478-0.877 11.478-4.118 0-2.067-2.349-3.241-8.832-4.118-2.647-0.298-5.591-0.595-5.591-1.472s0.877-1.175 4.714-1.175c3.821 0 7.063 0.877 7.36 0.877l0.595-2.349c-0.595 0-4.416-0.877-9.427-0.877-4.118 0.595-9.709 1.175-9.709 4.118z"></path>
<path d="M256.595 298.093c0 2.647 2.944 3.241 7.063 3.821s6.185 0.595 6.185 1.769c0 0.877-1.175 1.472-4.714 1.472-4.118 0-7.36-0.877-7.955-1.175 0 0-0.595 2.349-0.595 2.349 0.595 0 3.821 0.877 8.534 0.877 5.293 0 10.601-0.877 10.601-3.821 0-2.067-2.067-2.944-8.237-3.821-2.349-0.298-5.011-0.595-5.011-1.472 0-0.595 0.595-1.175 4.118-1.175s6.483 0.877 7.063 0.877l0.595-2.067c-0.595 0-4.118-0.877-8.832-0.877-3.821-0.298-8.832 0.298-8.832 3.241z"></path>
<path d="M150.611 300.755c0 3.821 4.119 6.483 12.371 6.483 3.242 0 6.483-0.595 7.063-0.595l0.595-2.349c-0.595 0-3.539 0.595-6.483 0.595-4.714 0-7.657-1.175-7.657-3.821s2.944-3.821 7.657-3.821c2.647 0 5.59 0.298 6.483 0.595l-0.595-2.349c-0.877 0-3.821-0.595-7.063-0.595-8.237-0.595-12.371 2.067-12.371 5.888z"></path>
<path d="M151.19 300.755c0 3.539 3.821 6.185 11.776 6.185 2.944 0 6.185-0.595 6.765-0.595l0.595-2.349c-0.595 0-3.242 0.595-6.185 0.595-4.416 0-7.36-1.175-7.36-3.539 0-2.647 2.944-3.539 7.36-3.539 2.647 0 5.293 0.298 5.888 0.595l-0.595-2.349c-0.877 0-3.539-0.595-6.483-0.595-7.955-0.595-11.776 1.769-11.776 5.591z"></path>
<path d="M207.424 306.346h5.888v-9.427c0.877 0 1.769 0 2.944 0 1.472 0 2.349 0 3.242 0 1.769 0.298 2.349 0.877 2.349 1.472 0 0.877-0.877 1.472-2.647 1.769-1.174 0.298-2.067 0.298-2.944 0.298-0.595 0-1.174 0-1.769 0l6.483 5.888h7.36l-6.765-4.714c1.174 0 1.769-0.298 3.242-0.595 1.769-0.595 2.647-1.472 2.647-2.647 0-1.472-0.877-2.349-4.119-3.241-1.769-0.298-4.119-0.595-7.063-0.595-4.119 0-8.535 0.298-8.832 0.298 0 0 0 11.478 0 11.478z"></path>
<path d="M207.721 306.346h5.59v-9.13c0.877 0 1.769 0 2.944 0 1.472 0 2.349 0 3.242 0 1.769 0.298 2.349 0.877 2.349 1.472 0 0.877-0.877 1.472-2.349 1.769-1.174 0.298-1.769 0.298-2.944 0.298-0.595 0-0.877 0-1.769 0l6.483 5.888h7.063l-6.483-4.714c1.174 0 1.769 0 2.944-0.595 1.769-0.595 2.647-1.472 2.647-2.349 0-1.175-0.877-2.349-3.821-3.241-1.769-0.298-3.821-0.595-6.765-0.595-4.119 0-8.237 0.298-8.535 0.298-0.595-0.298-0.595 10.899-0.595 10.899z"></path>
<path d="M333.421 306.643h5.888v-9.709c0.877 0 1.769-0.298 3.241-0.298s2.349 0 3.241 0.298 2.349 0.877 2.349 1.769c0 0.877-0.877 1.472-2.647 1.769-1.175 0.298-2.067 0.298-2.944 0.298-0.595 0-1.175 0-1.769 0l6.765 6.185h7.658l-6.765-5.011c1.472 0 1.769-0.298 3.241-0.595 1.769-0.595 2.647-1.472 2.647-2.647 0-1.472-0.877-2.647-4.118-3.241-1.769-0.298-4.118-0.595-7.36-0.595-4.416 0-8.534 0.298-9.13 0.298-0.298-0.298-0.298 11.478-0.298 11.478z"></path>
<path d="M334.016 306.346h5.591v-9.13c0.877 0 1.472 0 2.944 0s2.349 0 3.241 0c1.769 0.298 2.349 0.877 2.349 1.472 0 0.877-0.877 1.472-2.349 1.769-1.175 0.298-1.769 0.298-2.944 0.298-0.595 0-0.877 0-1.769 0l6.483 5.888h7.063l-6.483-4.714c1.175 0 1.769 0 2.944-0.595 1.769-0.595 2.647-1.472 2.647-2.349 0-1.175-0.877-2.349-3.821-3.241-1.769-0.298-3.821-0.595-6.765-0.595-4.118 0-8.237 0.298-8.534 0.298-0.595-0.298-0.595 10.899-0.595 10.899z"></path>
<path d="M120.278 295.149h-58.285l8.534 7.36h56.813z"></path>
<path d="M112.918 286.615c0 0-15.017 0-20.013 0.298-4.416 0.298-5.591 2.647-5.591 2.647s10.899 3.241 15.895 3.241c3.242 0.298 15.017 0.877 15.017 0.877l-5.293-7.063z"></path>
<path d="M105.856 306.346h-38.272c0 0 3.242 4.118 8.534 4.416 5.591 0.298 51.52 0 51.52 0l-21.782-4.416z"></path>
<path d="M404.672 306.346h38.57c0 0-3.241 4.118-8.534 4.416-5.591 0.298-51.52 0-51.52 0l21.485-4.416z"></path>
<path d="M122.925 302.807c-4.713 0.298-6.483 0-7.955 0-6.186 0.595-9.427 3.539-9.427 3.539s5.011 1.769 10.602 2.944 14.422 1.769 14.422 1.769z"></path>
<path d="M392.019 295.149h58.285l-8.534 7.36h-56.813z"></path>
<path d="M399.082 286.615c0 0 14.423 0 19.136 0.595 4.416 0.298 6.483 2.647 6.483 2.647s-10.899 3.241-15.894 3.241c-3.241 0.298-15.017 0.877-15.017 0.877l5.293-7.36z"></path>
<path d="M389.357 302.807c4.714 0.298 6.483 0 7.955 0 6.185 0.595 10.304 3.539 10.304 3.539s-5.888 1.769-11.478 2.944-14.423 1.769-14.423 1.769z"></path>
<path d="M257.175 356.973c0 0-13.843 0-24.147 1.472-19.731 2.944-16.787 4.714-27.091 7.36s-49.171-2.349-49.171-2.349-341.801-52.115-360.64-55.059c-27.671-4.416-26.496-3.539-47.981-14.423-28.845-14.423-36.502-27.373-36.502-27.373s5.293 2.647 12.371 7.36c36.502 23.552 39.744 22.377 46.806 25.024 20.31 7.658 337.385 53.289 337.385 53.289s71.831 12.95 83.607 8.237c11.776-4.714 18.541-9.13 24.147-10.304 20.013-4.714 48.279-3.241 48.279-3.241z"></path>
<path d="M254.826 356.973c0 0 13.843 0 24.147 1.472 19.731 2.944 16.787 4.714 27.091 7.36s49.171-2.349 49.171-2.349 341.802-52.115 360.64-55.059c27.67-4.416 26.198-4.118 47.981-14.423 30.035-14.423 36.502-27.373 36.502-27.373s-5.293 2.647-12.371 7.36c-36.502 23.552-39.744 22.377-46.807 25.024-20.311 7.658-337.385 53.289-337.385 53.289s-71.831 12.95-83.606 8.237c-11.776-4.714-18.541-9.13-24.147-10.304-20.013-4.714-46.806-2.944-46.806-2.944z"></path>
<path d="M260.118 273.664c0 0-76.841 0-85.376-2.647-5.888-1.769-23.85-10.601-29.44-12.371s-17.962-2.647-17.962-2.647-403.031 2.349-406.57 2.944c-3.539 0.595-7.36 2.944-7.36 2.944s25.024 4.118 36.8 5.011c120.406 9.427 381.546 4.714 391.255 5.888 9.427 1.175 16.192 8.237 28.845 8.237s91.264 0 91.264 0z"></path>
<path d="M250.989 273.664c0 0 76.842 0 85.376-2.647 5.888-1.769 23.849-10.601 29.44-12.371s17.962-2.647 17.962-2.647 403.031 2.349 406.57 2.944c3.539 0.595 7.36 2.944 7.36 2.944s-25.024 4.118-36.8 5.011c-120.406 9.427-381.546 4.714-391.255 5.888-9.427 1.175-16.192 8.237-28.845 8.237s-91.264 0-91.264 0z"></path>
</symbol>

<symbol id="icon-dodge" viewBox="0 0 229 32">
<path d="M168.547 32.262h13.64l26.633-32h-13.639l-26.634 32z"></path>
<path d="M187.407 32.262h13.64l26.633-32h-13.639l-26.634 32z"></path>
<path d="M2.545 20.765c-0.636 0-1.151-0.537-1.151-1.2v-10.827c0-0.664 0.515-1.201 1.151-1.201l22.407 0.058c6.314 0 11.434 2.941 11.434 6.569s-5.119 6.568-11.434 6.568l-22.407 0.034zM21.748 17.701c3.236 0 5.86-1.587 5.86-3.543s-2.624-3.542-5.86-3.542l-11.485-0.031c-0.326 0-0.591 0.29-0.591 0.647v5.84c0 0.357 0.265 0.647 0.591 0.647l11.485-0.018z"></path>
<path d="M2.597 20.694c-0.633 0-1.146-0.532-1.146-1.19v-10.74c0-0.658 0.513-1.19 1.146-1.19l22.298 0.057c6.283 0 11.378 2.917 11.378 6.515 0 3.599-5.094 6.515-11.378 6.515l-22.298 0.033zM21.751 17.728c3.265 0.001 5.913-1.61 5.913-3.599s-2.647-3.6-5.912-3.6l-11.588-0.034c-0.329 0-0.596 0.295-0.596 0.658l-0.001 5.934c0 0.363 0.266 0.659 0.596 0.659l11.589-0.017z"></path>
<path d="M2.649 20.623c-0.63 0-1.14-0.528-1.14-1.18v-10.653c0-0.652 0.51-1.181 1.14-1.181l22.188 0.057c6.252 0 11.322 2.893 11.322 6.462 0 3.57-5.070 6.462-11.322 6.462l-22.188 0.033zM21.753 17.756c3.295 0.001 5.966-1.636 5.967-3.656s-2.669-3.658-5.964-3.659l-11.692-0.037c-0.332 0-0.601 0.299-0.601 0.668l-0.002 6.029c-0.001 0.369 0.269 0.668 0.601 0.669l11.692-0.014z"></path>
<path d="M2.701 20.552c-0.627 0-1.134-0.524-1.134-1.171v-10.565c0-0.648 0.508-1.172 1.134-1.172l22.079 0.056c6.222 0 11.266 2.87 11.266 6.409s-5.044 6.409-11.266 6.409l-22.079 0.032zM21.756 17.784c3.324 0.002 6.020-1.66 6.021-3.711s-2.692-3.716-6.016-3.718l-11.795-0.040c-0.335 0-0.607 0.304-0.607 0.678l-0.003 6.123c-0.001 0.375 0.271 0.679 0.606 0.679l11.795-0.012z"></path>
<path d="M2.753 20.481c-0.623 0-1.129-0.52-1.129-1.161v-10.478c0-0.642 0.506-1.161 1.129-1.161l21.969 0.056c6.191 0 11.21 2.846 11.21 6.356s-5.019 6.356-11.21 6.356l-21.969 0.033zM21.759 17.811c3.353 0.003 6.073-1.685 6.074-3.768s-2.715-3.774-6.068-3.776l-11.899-0.042c-0.338 0-0.612 0.309-0.612 0.689l-0.005 6.218c0 0.38 0.274 0.689 0.611 0.69l11.899-0.010z"></path>
<path d="M2.805 20.41c-0.62 0-1.123-0.515-1.123-1.151v-10.391c0-0.636 0.503-1.152 1.123-1.152l21.86 0.056c6.16 0 11.154 2.821 11.154 6.303s-4.994 6.302-11.154 6.302l-21.86 0.032zM21.761 17.839c3.383 0.004 6.126-1.709 6.128-3.823s-2.738-3.832-6.12-3.835l-12.002-0.045c-0.341 0-0.618 0.313-0.618 0.699l-0.006 6.312c-0.001 0.386 0.275 0.7 0.616 0.701l12.002-0.009z"></path>
<path d="M2.857 20.338c-0.618 0-1.118-0.511-1.118-1.142v-10.302c0-0.631 0.5-1.142 1.118-1.142l21.75 0.054c6.129 0 11.098 2.798 11.098 6.25s-4.969 6.25-11.098 6.25l-21.75 0.032zM21.764 17.867c3.412 0.005 6.179-1.733 6.181-3.879 0.003-2.147-2.761-3.89-6.173-3.894l-12.106-0.048c-0.343 0-0.623 0.318-0.623 0.71l-0.006 6.407c-0.001 0.392 0.277 0.711 0.621 0.711l12.106-0.007z"></path>
<path d="M2.909 20.268c-0.614 0-1.112-0.508-1.112-1.132v-10.216c0-0.625 0.498-1.132 1.112-1.132l21.64 0.054c6.098 0 11.042 2.775 11.042 6.198s-4.944 6.197-11.042 6.197l-21.64 0.032zM21.767 17.895c3.44 0.005 6.232-1.758 6.235-3.936s-2.784-3.947-6.225-3.952l-12.209-0.051c-0.347-0.001-0.629 0.322-0.629 0.72l-0.008 6.502c-0.001 0.397 0.28 0.721 0.626 0.722l12.21-0.004z"></path>
<path d="M2.961 20.197c-0.611 0-1.106-0.503-1.106-1.122v-10.129c0-0.62 0.495-1.122 1.106-1.122l21.53 0.053c6.067 0 10.986 2.751 10.986 6.145s-4.918 6.144-10.986 6.144l-21.53 0.031zM21.769 17.923c3.47 0.005 6.286-1.782 6.289-3.992s-2.806-4.006-6.276-4.011l-12.313-0.054c-0.349 0-0.633 0.326-0.634 0.731l-0.010 6.596c-0.001 0.403 0.282 0.732 0.632 0.733l12.313-0.002z"></path>
<path d="M3.013 20.125c-0.608 0-1.101-0.498-1.101-1.113v-10.040c0-0.614 0.493-1.113 1.101-1.113l21.42 0.053c6.037 0 10.93 2.727 10.93 6.091s-4.893 6.091-10.93 6.091l-21.42 0.031zM21.772 17.951c3.499 0.005 6.339-1.808 6.342-4.048 0.004-2.242-2.829-4.064-6.328-4.070l-12.416-0.056c-0.353-0.001-0.64 0.331-0.64 0.741l-0.010 6.691c-0.001 0.409 0.284 0.743 0.637 0.743h12.416z"></path>
<path d="M3.065 20.055c-0.605 0-1.095-0.494-1.095-1.104v-9.953c0-0.609 0.49-1.103 1.095-1.103l21.311 0.052c6.005 0 10.874 2.704 10.874 6.038s-4.869 6.038-10.874 6.038l-21.311 0.031zM21.774 17.978c3.529 0.007 6.392-1.831 6.395-4.104 0.005-2.274-2.852-4.121-6.38-4.128l-12.52-0.060c-0.355 0-0.644 0.336-0.645 0.751l-0.012 6.785c-0.001 0.415 0.286 0.753 0.641 0.754l12.52 0.001z"></path>
<path d="M3.117 19.983c-0.601 0-1.090-0.49-1.090-1.093v-9.866c0-0.604 0.488-1.094 1.090-1.094l21.202 0.052c5.974 0 10.818 2.68 10.818 5.985s-4.843 5.985-10.818 5.985l-21.202 0.031zM21.777 18.006c3.557 0.007 6.445-1.856 6.449-4.16 0.005-2.306-2.875-4.18-6.432-4.187l-12.623-0.062c-0.358-0.001-0.65 0.34-0.651 0.762l-0.013 6.879c-0.001 0.421 0.289 0.764 0.647 0.765l12.623 0.004z"></path>
<path d="M3.169 19.913c-0.599 0-1.084-0.486-1.084-1.084v-9.778c0-0.599 0.485-1.084 1.084-1.084l21.092 0.052c5.944 0 10.762 2.656 10.762 5.932s-4.818 5.932-10.762 5.932l-21.092 0.031zM21.78 18.034c3.586 0.009 6.498-1.881 6.502-4.217 0.006-2.337-2.898-4.237-6.484-4.245l-12.727-0.066c-0.361-0.001-0.654 0.345-0.656 0.772l-0.014 6.974c-0.001 0.427 0.291 0.774 0.652 0.775l12.726 0.006z"></path>
<path d="M3.221 19.841c-0.596 0-1.079-0.482-1.079-1.074v-9.691c0-0.593 0.483-1.074 1.079-1.074l20.982 0.051c5.913 0 10.706 2.632 10.706 5.88 0 3.246-4.793 5.878-10.706 5.878l-20.982 0.030zM21.782 18.061c3.616 0.009 6.552-1.905 6.556-4.273 0.006-2.369-2.921-4.296-6.537-4.304l-12.829-0.068c-0.365-0.001-0.661 0.35-0.662 0.783l-0.015 7.068c-0.001 0.433 0.293 0.785 0.657 0.786l12.83 0.007z"></path>
<path d="M2.428 14.469c-0.093 1.342-0.182 2.615-0.182 3.918v0c0 1.305 0.29 1.618 1.187 1.638v0c0.935 0.019 7.557 0.050 12.367-0.027v0c1.334-0.021 2.627-0.012 3.871-0.004v0c4.304 0.031 8.024 0.060 10.856-1.147v0c3.144-1.34 4.337-3.608 4.426-4.218v0c0.087-0.591 0.133-1.685-0.191-1.685v0c-0.323 0-5.247 0.845-5.645 0.879v0c-0.251 0.020-0.342 0.628-0.342 0.628v0c-0.623 3.222-4.104 4.295-4.925 4.319v0c-1.022 0.032-12.733 0-13.606 0v0c-0.872 0-1.844-0.28-1.844-1.175v0c0-0.896-0.123-2.454-0.158-3.126v0c-0.012-0.257-0.138-0.918-0.069-1.801v0c-0.137 0.777-0.55 1.307-0.962 1.307v0h-3.648c-0.929 0-0.929-0.354-1.101-1.412v0c0 0.424 0 1.412-0.035 1.906z"></path>
<path d="M3.337 8.198c-0.551 0.029-1.213-0.056-1.186 0.793v0c0.028 0.849 0.266 4.155 0.308 5.035v0l5.696-0.012c0.11-0.425 0.202-2.731 0.202-3.070v0c0-0.34-0.111-1.529 1.379-1.5v0c1.489 0.029 9.24 0.029 11.033 0.029v0c1.794 0 8.082 0.545 8.082 4.62v0l6.179-0.003c0-0.948-0.14-1.589-0.559-2.117v0c-0.667-0.84-2.62-2.98-8.708-3.604v0c-1.302-0.135-12.214-0.181-18.556-0.181v0c-1.721 0-3.105 0.003-3.87 0.009z"></path>
<path d="M8.305 18.441c0 0.457 0.085 0.744 0.76 0.744 1.243 0 10.198-0.012 12.129-0.012s4.325 0.052 6.606-2.249c0.859-0.867 0.166-0.906-0.523-0.397-0.69 0.51-1.822 1.768-6.042 1.768s-8.766-0.012-11.359-0.012c-0.484 0-0.638-0.308-0.765-0.438-0.127-0.131-0.807-0.25-0.807 0.596z"></path>
<path d="M81.289 20.765c-0.635 0-1.151-0.537-1.151-1.2v-10.827c0-0.664 0.516-1.201 1.151-1.201l22.407 0.058c6.314 0 11.434 2.941 11.434 6.569s-5.12 6.568-11.434 6.568l-22.407 0.034zM100.493 17.701c3.236 0 5.861-1.587 5.861-3.543s-2.625-3.542-5.861-3.542l-11.486-0.031c-0.326 0-0.591 0.29-0.591 0.647v5.84c0 0.357 0.265 0.647 0.591 0.647l11.486-0.018z"></path>
<path d="M81.342 20.694c-0.632 0-1.146-0.532-1.146-1.19v-10.74c0-0.658 0.513-1.19 1.146-1.19l22.298 0.057c6.283 0 11.378 2.917 11.378 6.515 0 3.599-5.095 6.515-11.378 6.515l-22.298 0.033zM100.496 17.728c3.266 0.001 5.913-1.61 5.914-3.599s-2.647-3.6-5.913-3.6l-11.589-0.034c-0.329 0-0.596 0.295-0.596 0.658l-0.001 5.934c0 0.363 0.266 0.659 0.596 0.659l11.59-0.017z"></path>
<path d="M81.394 20.623c-0.629 0-1.14-0.528-1.14-1.18v-10.653c0-0.652 0.511-1.181 1.14-1.181l22.188 0.057c6.252 0 11.321 2.893 11.321 6.462 0 3.57-5.070 6.462-11.321 6.462l-22.188 0.033zM100.498 17.756c3.295 0.001 5.967-1.636 5.968-3.656s-2.67-3.658-5.965-3.659l-11.693-0.037c-0.332 0-0.601 0.299-0.601 0.668l-0.003 6.029c0 0.369 0.269 0.668 0.601 0.669l11.692-0.014z"></path>
<path d="M81.445 20.552c-0.626 0-1.134-0.524-1.134-1.171v-10.565c0-0.648 0.508-1.172 1.134-1.172l22.079 0.056c6.221 0 11.265 2.87 11.265 6.409s-5.044 6.409-11.265 6.409l-22.079 0.032zM100.5 17.784c3.324 0.002 6.020-1.66 6.021-3.711s-2.693-3.716-6.017-3.718l-11.796-0.040c-0.335 0-0.607 0.304-0.607 0.678l-0.003 6.123c0 0.375 0.271 0.679 0.606 0.679l11.796-0.012z"></path>
<path d="M81.498 20.481c-0.623 0-1.129-0.52-1.129-1.161v-10.478c0-0.642 0.506-1.161 1.129-1.161l21.969 0.056c6.19 0 11.21 2.846 11.21 6.356s-5.020 6.356-11.21 6.356l-21.969 0.033zM100.503 17.811c3.353 0.003 6.073-1.685 6.075-3.768s-2.716-3.774-6.069-3.776l-11.899-0.042c-0.338 0-0.612 0.309-0.612 0.689l-0.005 6.218c0 0.38 0.274 0.689 0.612 0.69l11.899-0.010z"></path>
<path d="M81.55 20.41c-0.62 0-1.123-0.515-1.123-1.151v-10.391c0-0.636 0.503-1.152 1.123-1.152l21.86 0.056c6.159 0 11.153 2.821 11.153 6.303s-4.994 6.302-11.153 6.302l-21.86 0.032zM100.506 17.839c3.382 0.004 6.126-1.709 6.128-3.823s-2.738-3.832-6.12-3.835l-12.003-0.045c-0.341 0-0.618 0.313-0.618 0.699l-0.006 6.312c0 0.386 0.275 0.7 0.616 0.701l12.003-0.009z"></path>
<path d="M81.602 20.338c-0.617 0-1.118-0.511-1.118-1.142v-10.302c0-0.631 0.501-1.142 1.118-1.142l21.75 0.054c6.128 0 11.098 2.798 11.098 6.25s-4.969 6.25-11.098 6.25l-21.75 0.032zM100.509 17.867c3.411 0.005 6.179-1.733 6.181-3.879 0.003-2.147-2.761-3.89-6.173-3.894l-12.106-0.048c-0.344 0-0.623 0.318-0.623 0.71l-0.007 6.407c-0.001 0.392 0.277 0.711 0.621 0.711l12.106-0.007z"></path>
<path d="M81.653 20.268c-0.614 0-1.112-0.508-1.112-1.132v-10.216c0-0.625 0.499-1.132 1.112-1.132l21.64 0.054c6.098 0 11.041 2.775 11.041 6.198s-4.944 6.197-11.041 6.197l-21.64 0.032zM100.511 17.895c3.44 0.005 6.232-1.758 6.235-3.936s-2.784-3.947-6.225-3.952l-12.21-0.051c-0.347-0.001-0.629 0.322-0.629 0.72l-0.008 6.502c-0.001 0.397 0.28 0.721 0.627 0.722l12.21-0.004z"></path>
<path d="M81.706 20.197c-0.61 0-1.106-0.503-1.106-1.122v-10.129c0-0.62 0.496-1.122 1.106-1.122l21.53 0.053c6.067 0 10.986 2.751 10.986 6.145s-4.919 6.144-10.986 6.144l-21.53 0.031zM100.514 17.923c3.47 0.005 6.286-1.782 6.289-3.992s-2.807-4.006-6.277-4.011l-12.313-0.054c-0.35 0-0.634 0.326-0.634 0.731l-0.009 6.596c-0.001 0.403 0.281 0.732 0.631 0.733l12.313-0.002z"></path>
<path d="M81.758 20.125c-0.608 0-1.101-0.498-1.101-1.113v-10.040c0-0.614 0.493-1.113 1.101-1.113l21.42 0.053c6.036 0 10.929 2.727 10.929 6.091s-4.893 6.091-10.929 6.091l-21.42 0.031zM100.517 17.951c3.498 0.005 6.338-1.808 6.342-4.048 0.004-2.242-2.829-4.064-6.328-4.070l-12.417-0.056c-0.353-0.001-0.64 0.331-0.64 0.741l-0.010 6.691c-0.001 0.409 0.283 0.743 0.636 0.743h12.417z"></path>
<path d="M81.81 20.055c-0.605 0-1.095-0.494-1.095-1.104v-9.953c0-0.609 0.491-1.103 1.095-1.103l21.311 0.052c6.005 0 10.873 2.704 10.873 6.038s-4.869 6.038-10.873 6.038l-21.311 0.031zM100.519 17.978c3.528 0.007 6.392-1.831 6.396-4.104 0.004-2.274-2.852-4.121-6.38-4.128l-12.52-0.060c-0.356 0-0.645 0.336-0.645 0.751l-0.012 6.785c-0.001 0.415 0.286 0.753 0.642 0.754l12.52 0.001z"></path>
<path d="M81.862 19.983c-0.601 0-1.090-0.49-1.090-1.093v-9.866c0-0.604 0.488-1.094 1.090-1.094l21.202 0.052c5.974 0 10.818 2.68 10.818 5.985s-4.844 5.985-10.818 5.985l-21.202 0.031zM100.522 18.006c3.557 0.007 6.445-1.856 6.45-4.16 0.004-2.306-2.876-4.18-6.433-4.187l-12.623-0.062c-0.359-0.001-0.651 0.34-0.651 0.762l-0.013 6.879c-0.001 0.421 0.288 0.764 0.647 0.765l12.623 0.004z"></path>
<path d="M81.914 19.913c-0.598 0-1.084-0.486-1.084-1.084v-9.778c0-0.599 0.486-1.084 1.084-1.084l21.092 0.052c5.943 0 10.761 2.656 10.761 5.932s-4.818 5.932-10.761 5.932l-21.092 0.031zM100.524 18.034c3.586 0.009 6.498-1.881 6.502-4.217 0.005-2.337-2.898-4.237-6.484-4.245l-12.727-0.066c-0.361-0.001-0.655 0.345-0.656 0.772l-0.014 6.974c-0.001 0.427 0.29 0.774 0.652 0.775l12.726 0.006z"></path>
<path d="M81.966 19.841c-0.596 0-1.079-0.482-1.079-1.074v-9.691c0-0.593 0.483-1.074 1.079-1.074l20.982 0.051c5.913 0 10.706 2.632 10.706 5.88 0 3.246-4.793 5.878-10.706 5.878l-20.982 0.030zM100.527 18.061c3.615 0.009 6.551-1.905 6.556-4.273 0.005-2.369-2.921-4.296-6.537-4.304l-12.829-0.068c-0.365-0.001-0.662 0.35-0.662 0.783l-0.015 7.068c-0.001 0.433 0.292 0.785 0.657 0.786l12.83 0.007z"></path>
<path d="M81.046 14.469c-0.094 1.342-0.182 2.615-0.182 3.918v0c0 1.305 0.29 1.618 1.186 1.638v0c0.936 0.019 7.558 0.050 12.371-0.027v0c1.334-0.021 2.627-0.012 3.871-0.004v0c4.304 0.031 8.023 0.060 10.856-1.147v0c3.143-1.34 4.336-3.608 4.425-4.218v0c0.087-0.591 0.134-1.685-0.189-1.685v0c-0.324 0-5.247 0.845-5.645 0.879v0c-0.252 0.020-0.342 0.628-0.342 0.628v0c-0.623 3.222-4.104 4.295-4.928 4.319v0c-1.020 0.032-12.735 0-13.607 0v0c-0.872 0-1.844-0.28-1.844-1.175v0c0-0.896-0.124-2.454-0.158-3.126v0c-0.013-0.257-0.138-0.918-0.069-1.801v0c-0.138 0.777-0.55 1.307-0.962 1.307v0h-3.648c-0.93 0-0.93-0.354-1.101-1.412v0c0 0.424 0 1.412-0.034 1.906z"></path>
<path d="M87.062 18.441c0 0.457 0.085 0.744 0.761 0.744 1.243 0 10.202-0.012 12.133-0.012s4.325 0.052 6.607-2.249c0.858-0.867 0.166-0.906-0.524-0.397-0.69 0.51-1.822 1.768-6.042 1.768-4.219 0-8.77-0.012-11.363-0.012-0.484 0-0.637-0.308-0.765-0.438-0.127-0.131-0.807-0.25-0.807 0.596z"></path>
<path d="M81.955 8.198c-0.552 0.029-1.213-0.056-1.185 0.793v0c0.027 0.849 0.266 4.155 0.308 5.035v0l5.696-0.012c0.111-0.425 0.202-2.731 0.202-3.070v0c0-0.34-0.111-1.529 1.379-1.5v0c1.489 0.029 9.244 0.029 11.037 0.029v0c1.793 0 8.081 0.545 8.081 4.62v0l6.18-0.003c0-0.948-0.141-1.589-0.561-2.117v0c-0.665-0.84-2.618-2.98-8.708-3.604v0c-1.302-0.135-12.215-0.181-18.558-0.181v0c-1.721 0-3.105 0.003-3.871 0.009z"></path>
<path d="M53.768 21.058c-7.908-0.262-14.325-3.073-14.325-6.862 0-3.79 6.417-6.622 14.325-6.862 1.456-0.044 3.017-0.088 4.493-0.088s3.038 0.044 4.494 0.088c7.908 0.24 14.326 3.072 14.326 6.862 0 3.789-6.418 6.6-14.326 6.862-1.329 0.043-2.637 0.088-4.494 0.088s-3.164-0.044-4.493-0.088zM58.262 18.104c1.011 0 1.722-0.025 2.445-0.050 4.303-0.147 7.795-1.728 7.795-3.858s-3.491-3.723-7.795-3.857c-0.791-0.025-1.641-0.050-2.445-0.050s-1.653 0.025-2.445 0.050c-4.303 0.135-7.795 1.727-7.795 3.857s3.492 3.711 7.795 3.858c0.723 0.025 1.435 0.050 2.445 0.050z"></path>
<path d="M53.755 20.99c-7.866-0.26-14.25-3.050-14.25-6.809 0-3.761 6.384-6.572 14.25-6.809 1.448-0.044 3.002-0.088 4.47-0.088s3.022 0.044 4.471 0.088c7.866 0.238 14.25 3.048 14.25 6.809 0 3.76-6.385 6.549-14.25 6.809-1.322 0.043-2.623 0.087-4.471 0.087s-3.148-0.044-4.47-0.087zM58.245 18.139c1.019 0 1.737-0.025 2.467-0.050 4.341-0.149 7.864-1.754 7.864-3.917 0-2.164-3.522-3.781-7.864-3.918-0.799-0.025-1.656-0.050-2.467-0.050s-1.668 0.026-2.467 0.050c-4.341 0.137-7.864 1.754-7.864 3.918 0 2.163 3.524 3.768 7.864 3.917 0.729 0.025 1.448 0.050 2.467 0.050z"></path>
<path d="M53.742 20.922c-7.824-0.258-14.174-3.026-14.174-6.758 0-3.732 6.349-6.521 14.174-6.757 1.441-0.043 2.986-0.087 4.446-0.087 1.462 0 3.006 0.044 4.448 0.087 7.825 0.236 14.174 3.024 14.174 6.757 0 3.731-6.351 6.5-14.174 6.758-1.315 0.042-2.61 0.086-4.448 0.086-1.836 0-3.131-0.044-4.446-0.086zM58.228 18.175c1.028 0 1.752-0.026 2.488-0.052 4.379-0.151 7.933-1.78 7.933-3.977s-3.553-3.838-7.933-3.977c-0.806-0.025-1.67-0.051-2.488-0.051s-1.683 0.026-2.489 0.051c-4.379 0.139-7.932 1.78-7.932 3.977s3.554 3.826 7.932 3.977c0.737 0.026 1.461 0.052 2.489 0.052z"></path>
<path d="M53.73 20.854c-7.783-0.256-14.1-3.003-14.1-6.705 0-3.704 6.316-6.472 14.1-6.705 1.433-0.043 2.969-0.086 4.423-0.086s2.99 0.043 4.424 0.086c7.783 0.234 14.099 3.001 14.099 6.705 0 3.702-6.318 6.448-14.099 6.705-1.309 0.042-2.596 0.086-4.424 0.086s-3.115-0.043-4.423-0.086zM58.211 18.211c1.037 0 1.768-0.026 2.51-0.053 4.417-0.153 8.002-1.807 8.002-4.036s-3.584-3.895-8.002-4.036c-0.813-0.026-1.685-0.052-2.51-0.052s-1.697 0.026-2.51 0.052c-4.418 0.141-8.002 1.808-8.002 4.036s3.585 3.884 8.002 4.036c0.742 0.027 1.473 0.053 2.51 0.053z"></path>
<path d="M53.717 20.786c-7.742-0.253-14.024-2.979-14.024-6.652 0-3.675 6.282-6.421 14.024-6.653 1.426-0.043 2.954-0.086 4.399-0.086 1.447 0 2.975 0.042 4.4 0.086 7.742 0.232 14.025 2.978 14.025 6.653 0 3.673-6.283 6.399-14.025 6.652-1.301 0.042-2.581 0.086-4.4 0.086-1.817 0-3.097-0.043-4.399-0.086zM58.193 18.247c1.047 0 1.783-0.027 2.532-0.053 4.455-0.156 8.071-1.835 8.071-4.097s-3.615-3.953-8.071-4.095c-0.82-0.027-1.7-0.054-2.532-0.054s-1.712 0.027-2.532 0.054c-4.455 0.143-8.071 1.833-8.071 4.095s3.617 3.941 8.071 4.097c0.749 0.026 1.486 0.053 2.532 0.053z"></path>
<path d="M53.704 20.719c-7.7-0.252-13.949-2.956-13.949-6.6 0-3.646 6.249-6.371 13.949-6.601 1.418-0.042 2.938-0.084 4.376-0.084s2.958 0.042 4.376 0.084c7.7 0.23 13.949 2.955 13.949 6.601 0 3.644-6.25 6.348-13.949 6.6-1.295 0.042-2.568 0.084-4.376 0.084s-3.081-0.042-4.376-0.084zM58.177 18.283c1.055 0 1.798-0.027 2.554-0.054 4.493-0.158 8.14-1.861 8.14-4.156s-3.646-4.011-8.14-4.156c-0.828-0.027-1.715-0.054-2.554-0.054s-1.727 0.027-2.554 0.054c-4.493 0.145-8.14 1.861-8.14 4.156s3.647 3.998 8.14 4.156c0.755 0.027 1.499 0.054 2.554 0.054z"></path>
<path d="M53.691 20.651c-7.658-0.25-13.874-2.932-13.874-6.548 0-3.617 6.215-6.32 13.874-6.549 1.41-0.042 2.922-0.084 4.352-0.084s2.942 0.042 4.352 0.084c7.659 0.228 13.874 2.932 13.874 6.549 0 3.616-6.215 6.298-13.874 6.548-1.287 0.042-2.554 0.084-4.352 0.084s-3.065-0.042-4.352-0.084zM58.16 18.318c1.064 0 1.814-0.027 2.576-0.054 4.531-0.16 8.209-1.887 8.209-4.216s-3.677-4.068-8.209-4.215c-0.834-0.027-1.729-0.054-2.576-0.054s-1.741 0.027-2.576 0.054c-4.532 0.147-8.209 1.887-8.209 4.215s3.678 4.056 8.209 4.216c0.762 0.027 1.512 0.054 2.576 0.054z"></path>
<path d="M53.678 20.583c-7.617-0.247-13.799-2.909-13.799-6.496 0-3.588 6.181-6.269 13.799-6.496 1.403-0.042 2.907-0.083 4.329-0.083s2.927 0.041 4.329 0.083c7.617 0.227 13.799 2.908 13.799 6.496 0 3.587-6.183 6.248-13.799 6.496-1.281 0.042-2.541 0.084-4.329 0.084s-3.048-0.042-4.329-0.084zM58.143 18.355c1.073 0 1.829-0.028 2.597-0.056 4.57-0.163 8.279-1.914 8.279-4.275s-3.708-4.126-8.279-4.275c-0.841-0.028-1.743-0.055-2.597-0.055s-1.756 0.027-2.597 0.055c-4.57 0.149-8.279 1.914-8.279 4.275s3.709 4.113 8.279 4.275c0.768 0.028 1.524 0.056 2.597 0.056z"></path>
<path d="M53.665 20.515c-7.575-0.246-13.724-2.885-13.724-6.443s6.148-6.219 13.724-6.444c1.395-0.041 2.89-0.082 4.305-0.082s2.91 0.041 4.305 0.082c7.575 0.225 13.724 2.885 13.724 6.444s-6.149 6.198-13.724 6.443c-1.274 0.042-2.527 0.083-4.305 0.083s-3.031-0.041-4.305-0.083zM58.125 18.391c1.082 0 1.845-0.028 2.62-0.056 4.607-0.164 8.347-1.941 8.347-4.335s-3.74-4.183-8.347-4.334c-0.848-0.029-1.758-0.056-2.62-0.056-0.859 0-1.77 0.027-2.618 0.056-4.608 0.151-8.348 1.941-8.348 4.334s3.741 4.171 8.348 4.335c0.775 0.029 1.537 0.056 2.618 0.056z"></path>
<path d="M53.652 20.447c-7.533-0.244-13.649-2.862-13.649-6.391s6.115-6.168 13.649-6.391c1.388-0.041 2.875-0.082 4.282-0.082s2.894 0.041 4.281 0.082c7.535 0.223 13.649 2.861 13.649 6.391s-6.115 6.147-13.649 6.391c-1.267 0.041-2.513 0.082-4.281 0.082-1.77 0-3.015-0.040-4.282-0.082zM58.108 18.426c1.092 0 1.86-0.028 2.641-0.057 4.646-0.167 8.417-1.967 8.417-4.394s-3.77-4.241-8.417-4.394c-0.855-0.029-1.772-0.056-2.641-0.056-0.867 0-1.785 0.028-2.64 0.056-4.646 0.153-8.417 1.967-8.417 4.394s3.771 4.228 8.417 4.394c0.782 0.029 1.55 0.057 2.64 0.057z"></path>
<path d="M53.639 20.379c-7.492-0.242-13.573-2.838-13.573-6.339s6.080-6.118 13.573-6.339c1.38-0.040 2.859-0.082 4.258-0.082s2.879 0.041 4.258 0.082c7.493 0.221 13.574 2.838 13.574 6.339s-6.082 6.097-13.574 6.339c-1.26 0.041-2.499 0.082-4.258 0.082s-2.998-0.040-4.258-0.082zM58.091 18.462c1.1 0 1.875-0.029 2.662-0.058 4.684-0.169 8.486-1.994 8.486-4.454s-3.801-4.299-8.486-4.454c-0.862-0.029-1.787-0.058-2.662-0.058s-1.8 0.029-2.662 0.058c-4.685 0.155-8.486 1.993-8.486 4.454s3.802 4.285 8.486 4.454c0.787 0.029 1.562 0.058 2.662 0.058z"></path>
<path d="M53.627 20.311c-7.451-0.24-13.499-2.815-13.499-6.287s6.047-6.068 13.499-6.287c1.372-0.040 2.843-0.081 4.234-0.081s2.863 0.040 4.235 0.081c7.451 0.219 13.498 2.815 13.498 6.287s-6.047 6.047-13.498 6.287c-1.253 0.041-2.486 0.081-4.235 0.081s-2.981-0.040-4.234-0.081zM58.074 18.498c1.109 0 1.89-0.029 2.684-0.058 4.722-0.171 8.555-2.021 8.555-4.514s-3.832-4.356-8.555-4.513c-0.869-0.030-1.802-0.058-2.684-0.058-0.881 0-1.814 0.029-2.684 0.058-4.723 0.157-8.555 2.021-8.555 4.514s3.833 4.343 8.555 4.514c0.794 0.029 1.575 0.058 2.684 0.058z"></path>
<path d="M53.614 20.244c-7.409-0.238-13.423-2.792-13.423-6.235s6.013-6.017 13.423-6.235c1.364-0.040 2.827-0.080 4.211-0.080s2.847 0.040 4.211 0.080c7.41 0.218 13.423 2.792 13.423 6.235s-6.014 5.997-13.423 6.235c-1.246 0.040-2.471 0.080-4.211 0.080s-2.965-0.040-4.211-0.080zM58.058 18.535c1.118 0 1.906-0.030 2.706-0.060 4.759-0.174 8.624-2.048 8.624-4.574s-3.864-4.413-8.624-4.573c-0.877-0.031-1.817-0.059-2.706-0.059-0.888 0-1.829 0.029-2.706 0.059-4.761 0.159-8.624 2.047-8.624 4.573s3.864 4.4 8.624 4.574c0.801 0.030 1.588 0.060 2.706 0.060z"></path>
<path d="M53.601 20.176c-7.368-0.236-13.348-2.768-13.348-6.182 0-3.415 5.979-5.967 13.348-6.183 1.357-0.039 2.812-0.079 4.188-0.079s2.831 0.040 4.187 0.079c7.368 0.216 13.348 2.768 13.348 6.183 0 3.413-5.98 5.946-13.348 6.182-1.239 0.040-2.458 0.080-4.187 0.080-1.73 0-2.949-0.039-4.188-0.080zM58.040 18.57c1.127 0 1.921-0.030 2.728-0.060 4.798-0.175 8.693-2.074 8.693-4.633s-3.894-4.471-8.693-4.633c-0.883-0.031-1.831-0.059-2.728-0.059-0.895 0-1.843 0.029-2.727 0.059-4.799 0.162-8.693 2.074-8.693 4.633s3.895 4.458 8.693 4.633c0.807 0.031 1.601 0.060 2.727 0.060z"></path>
<path d="M47.983 8.727c-4.285 0.879-6.113 2.407-6.871 3.185v0c-0.76 0.779-0.959 1.758-0.787 2.285v0l5.906 0.007c0.197-1.533 0.956-2.61 3.11-3.74v0c2.155-1.132 5.656-1.181 8.276-1.181v0c2.62 0 4.801-0.001 7.866 0.8v0c3.563 0.931 4.107 3.181 4.205 4.086v0l5.646-0.012c0 0 0.156-0.774-0.16-1.484v0c-0.425-0.957-1.226-2.279-5.144-3.485v0c-3.917-1.206-7.87-1.274-12.351-1.274v0c-0.592 0-1.122-0.001-1.606-0.001v0c-3.18 0-4.373 0.050-8.091 0.814z"></path>
<path d="M40.292 13.959c0 5.523 12.199 6.442 16.116 6.442v0c3.918 0 6.938 0.031 10.765-0.644v0c6.513-1.149 7.954-4.204 8.162-5.677v0h-5.621c-0.12 1.688-1.285 3.775-4.844 4.665v0c-3.558 0.889-13.784 0.307-15.758-0.675v0c-1.973-0.982-2.721-3.283-2.81-4.111v0h-6.011z"></path>
<path d="M58.118 19.663c8.393 0 10.704-2.318 11.337-4.188 0-0.201-0.156-0.384-0.356-0.384s-0.283 0.181-0.361 0.366c-0.152 0.356-1.095 3.337-10.62 3.337s-10.468-2.981-10.62-3.337c-0.079-0.185-0.162-0.366-0.361-0.366s-0.356 0.183-0.356 0.384c0.634 1.87 2.945 4.188 11.337 4.188z"></path>
<path d="M155.111 8.229c0-0.38-0.275-0.689-0.614-0.689l-18.386-0.003c-1.351 0-2.777-0.035-4.108 0.009-7.233 0.23-13.102 2.964-13.102 6.622s3.328 6.574 13.102 6.621c0.891 0.005 3.41-0.011 4.108-0.011l17.761 0.003c0.641 0 1.161-0.535 1.161-1.195v-5.411c0-0.659-0.521-1.194-1.161-1.194l-17.797-0.001c-0.339 0-0.615 0.308-0.615 0.687v1.57c0 0.379 0.275 0.688 0.615 0.688l9.97 0.008c0.34 0 0.616 0.309 0.616 0.688v0.791c0 0.38-0.275 0.689-0.616 0.689l-9.776-0.003c-0.877 0-1.494-0.026-2.122-0.051-3.733-0.152-6.763-1.681-6.763-3.879s3.030-3.325 6.763-3.464c0.688-0.025 1.425-0.050 2.122-0.050l18.228 0.004c0.338 0 0.614-0.46 0.614-0.84v-1.588z"></path>
<path d="M118.959 14.159c0 3.614 3.308 6.476 13.027 6.532 0.903 0.006 3.355-0.005 4.085-0.005l17.663 0.003c0.638 0 1.154-0.529 1.154-1.181v-5.303c0-0.651-0.517-1.179-1.154-1.179l-17.623-0.001c-0.338 0-0.612 0.304-0.612 0.679v1.474c0 0.375 0.274 0.68 0.612 0.68l9.968 0.009c0.338 0 0.612 0.305 0.612 0.68v0.905c0 0.376-0.274 0.681-0.612 0.681l-9.857 0.001c-0.842 0-1.476-0.027-2.068-0.050-3.819-0.144-6.842-1.762-6.842-3.935 0-2.212 3.083-3.378 6.796-3.516 0.684-0.025 1.416-0.050 2.11-0.050l18.138 0.004c0.337 0 0.611-0.446 0.611-0.821v-1.492c0-0.376-0.274-0.681-0.611-0.681l-18.284-0.003c-1.343-0.001-2.752-0.029-4.085 0.013-7.209 0.227-13.027 2.991-13.027 6.556z"></path>
<path d="M119.015 14.15c0 3.572 3.288 6.377 12.952 6.443 0.916 0.007 3.3 0.002 4.063 0.002l17.565 0.002c0.634 0 1.148-0.522 1.148-1.167v-5.195c0-0.644-0.515-1.166-1.148-1.166l-17.45-0.001c-0.336 0-0.608 0.301-0.608 0.672v1.378c0 0.371 0.272 0.672 0.608 0.672l9.965 0.009c0.336 0 0.608 0.301 0.608 0.672v1.020c0 0.372-0.272 0.673-0.608 0.673l-9.939 0.005c-0.806 0-1.456-0.030-2.013-0.051-3.904-0.145-6.921-1.844-6.921-3.991 0-2.224 3.136-3.432 6.828-3.568 0.68-0.025 1.409-0.049 2.099-0.049l18.049 0.003c0.334 0 0.607-0.43 0.607-0.801v-1.395c0-0.371-0.273-0.672-0.607-0.672l-18.183-0.003c-1.337-0.003-2.727-0.023-4.063 0.018-7.184 0.223-12.952 3.019-12.952 6.49z"></path>
<path d="M119.072 14.141c0 3.529 3.269 6.279 12.878 6.354 0.929 0.009 3.245 0.009 4.041 0.009l17.466 0.002c0.63 0 1.141-0.516 1.141-1.153v-5.087c0-0.636-0.512-1.151-1.141-1.151l-17.277-0.001c-0.334 0-0.605 0.297-0.605 0.664v1.283c0 0.366 0.271 0.664 0.605 0.664l9.963 0.009c0.334 0 0.605 0.299 0.605 0.664v1.135c0 0.367-0.271 0.664-0.605 0.664l-10.020 0.009c-0.771 0-1.437-0.031-1.959-0.049-3.99-0.139-7.001-1.926-7.001-4.048 0-2.236 3.189-3.486 6.861-3.62 0.676-0.025 1.401-0.049 2.087-0.049l17.958 0.004c0.333 0 0.604-0.415 0.604-0.781v-1.299c0-0.367-0.271-0.664-0.604-0.664l-18.081-0.003c-1.329-0.005-2.702-0.018-4.041 0.023-7.16 0.219-12.878 3.046-12.878 6.423z"></path>
<path d="M119.128 14.132c0 3.486 3.248 6.181 12.804 6.265 0.942 0.009 3.189 0.015 4.018 0.015l17.367 0.002c0.627 0 1.136-0.51 1.136-1.139v-4.979c0-0.628-0.509-1.137-1.136-1.137l-17.103-0.001c-0.332 0-0.601 0.293-0.601 0.656v1.187c0 0.362 0.27 0.656 0.601 0.656l9.96 0.009c0.332 0 0.601 0.295 0.601 0.656v1.25c0 0.362-0.269 0.656-0.601 0.656l-10.101 0.012c-0.736 0-1.416-0.032-1.903-0.048-4.076-0.136-7.081-2.009-7.081-4.104 0-2.249 3.244-3.539 6.894-3.671 0.673-0.024 1.393-0.048 2.076-0.048l17.869 0.004c0.332 0 0.601-0.399 0.601-0.761v-1.203c0-0.363-0.269-0.657-0.601-0.657l-17.978-0.003c-1.322-0.006-2.677-0.013-4.018 0.028-7.136 0.216-12.804 3.073-12.804 6.358z"></path>
<path d="M119.185 14.123c0 3.443 3.228 6.083 12.73 6.176 0.954 0.011 3.134 0.021 3.996 0.021l17.269 0.001c0.623 0 1.129-0.503 1.129-1.124v-4.871c0-0.62-0.506-1.124-1.129-1.124l-16.93-0.001c-0.33 0-0.598 0.29-0.598 0.648v1.092c0 0.357 0.268 0.647 0.598 0.647l9.958 0.009c0.33 0 0.598 0.291 0.598 0.648v1.365c0 0.358-0.268 0.648-0.598 0.648l-10.182 0.016c-0.7 0-1.397-0.034-1.849-0.048-4.162-0.131-7.16-2.090-7.16-4.16 0-2.261 3.297-3.592 6.927-3.723 0.669-0.024 1.386-0.048 2.064-0.048l17.779 0.003c0.33 0 0.597-0.384 0.597-0.741v-1.107c0-0.358-0.268-0.648-0.597-0.648l-17.877-0.003c-1.315-0.008-2.652-0.007-3.996 0.032-7.112 0.211-12.73 3.1-12.73 6.291z"></path>
<path d="M119.242 14.114c0 3.401 3.208 5.985 12.655 6.087 0.967 0.012 3.079 0.028 3.974 0.028l17.171 0.001c0.619 0 1.122-0.497 1.122-1.111v-4.763c0-0.612-0.502-1.109-1.122-1.109l-16.758-0.001c-0.327 0-0.594 0.287-0.594 0.64v0.996c0 0.353 0.266 0.64 0.594 0.64l9.956 0.009c0.328 0 0.595 0.287 0.595 0.64v1.48c0 0.354-0.266 0.64-0.595 0.64l-10.263 0.020c-0.664 0-1.377-0.036-1.794-0.048-4.246-0.128-7.238-2.171-7.238-4.216 0-2.273 3.35-3.646 6.96-3.775 0.664-0.024 1.377-0.047 2.052-0.047l17.689 0.003c0.328 0 0.594-0.368 0.594-0.722v-1.011c0-0.353-0.266-0.64-0.594-0.64l-17.775-0.003c-1.308-0.009-2.627-0.001-3.974 0.038-7.088 0.208-12.655 3.127-12.655 6.225z"></path>
<path d="M119.298 14.105c0 3.357 3.189 5.886 12.582 6 0.98 0.012 3.023 0.032 3.95 0.032l17.073 0.002c0.616 0 1.116-0.49 1.116-1.096v-4.655c0-0.605-0.5-1.096-1.116-1.096l-16.583-0.001c-0.327 0-0.592 0.283-0.592 0.631v0.901c0 0.348 0.265 0.631 0.592 0.631l9.952 0.009c0.327 0 0.592 0.284 0.592 0.632v1.595c0 0.348-0.264 0.632-0.592 0.632l-10.344 0.023c-0.629 0-1.359-0.037-1.74-0.046-4.332-0.119-7.318-2.254-7.318-4.273 0-2.286 3.404-3.699 6.993-3.827 0.661-0.023 1.37-0.047 2.041-0.047l17.6 0.003c0.326 0 0.591-0.352 0.591-0.701v-0.915c0-0.349-0.265-0.632-0.591-0.632l-17.673-0.003c-1.3-0.011-2.602 0.004-3.95 0.042-7.064 0.203-12.582 3.154-12.582 6.158z"></path>
<path d="M119.355 14.096c0 3.314 3.168 5.788 12.507 5.911 0.992 0.013 2.967 0.039 3.927 0.039l16.975 0.002c0.612 0 1.11-0.484 1.11-1.083v-4.547c0-0.597-0.497-1.082-1.11-1.082l-16.41-0.001c-0.325 0-0.588 0.279-0.588 0.622v0.806c0 0.344 0.263 0.624 0.588 0.624l9.949 0.009c0.325 0 0.588 0.279 0.588 0.624v1.71c0 0.344-0.263 0.624-0.588 0.624l-10.425 0.026c-0.593 0-1.339-0.037-1.685-0.046-4.418-0.115-7.397-2.336-7.397-4.328 0-2.299 3.457-3.752 7.026-3.878 0.657-0.023 1.362-0.046 2.029-0.046l17.51 0.003c0.324 0 0.587-0.338 0.587-0.682v-0.818c0-0.345-0.263-0.624-0.587-0.624l-17.572-0.003c-1.293-0.012-2.577 0.009-3.927 0.048-7.040 0.2-12.507 3.181-12.507 6.092z"></path>
<path d="M119.412 14.087c0 3.271 3.148 5.69 12.433 5.822 1.004 0.015 2.911 0.046 3.905 0.046l16.876 0.001c0.609 0 1.102-0.478 1.102-1.068v-4.439c0-0.59-0.493-1.068-1.102-1.068l-16.236-0.001c-0.323 0-0.585 0.275-0.585 0.615v0.71c0 0.34 0.262 0.615 0.585 0.615l9.947 0.009c0.323 0 0.585 0.275 0.585 0.615v1.825c0 0.34-0.262 0.616-0.585 0.616l-10.506 0.031c-0.558 0-1.319-0.039-1.631-0.046-4.504-0.107-7.476-2.417-7.476-4.385 0-2.311 3.51-3.806 7.059-3.931 0.652-0.023 1.353-0.045 2.016-0.045l17.42 0.003c0.322 0 0.585-0.322 0.585-0.663v-0.722c0-0.34-0.263-0.616-0.585-0.616l-17.469-0.003c-1.287-0.013-2.553 0.015-3.905 0.052-7.016 0.196-12.433 3.209-12.433 6.026z"></path>
<path d="M119.469 14.078c0 3.228 3.128 5.592 12.358 5.733 1.018 0.015 2.857 0.052 3.882 0.052l16.778 0.001c0.605 0 1.097-0.472 1.097-1.054v-4.332c0-0.582-0.491-1.054-1.097-1.054l-16.063-0.001c-0.32 0-0.581 0.272-0.581 0.607v0.614c0 0.335 0.261 0.607 0.581 0.607l9.944 0.009c0.321 0 0.581 0.272 0.581 0.608v1.94c0 0.336-0.26 0.608-0.581 0.608l-10.587 0.034c-0.522 0-1.299-0.040-1.575-0.045-4.59-0.102-7.557-2.5-7.557-4.441 0-2.323 3.564-3.86 7.092-3.983 0.649-0.023 1.346-0.045 2.005-0.045l17.331 0.003c0.321 0 0.581-0.307 0.581-0.643v-0.626c0-0.336-0.26-0.608-0.581-0.608l-17.368-0.003c-1.279-0.015-2.527 0.020-3.882 0.057-6.991 0.192-12.358 3.236-12.358 5.96z"></path>
<path d="M119.525 14.069c0 3.186 3.108 5.493 12.284 5.644 1.031 0.017 2.801 0.059 3.86 0.059l16.68 0.001c0.601 0 1.090-0.465 1.090-1.041v-4.224c0-0.574-0.488-1.039-1.090-1.039l-15.89-0.001c-0.319 0-0.578 0.268-0.578 0.599v0.519c0 0.33 0.259 0.599 0.578 0.599l9.941 0.009c0.319 0 0.578 0.269 0.578 0.599v2.055c0 0.33-0.259 0.6-0.578 0.6l-10.669 0.037c-0.486 0-1.28-0.039-1.52-0.044-4.676-0.084-7.636-2.582-7.636-4.497 0-2.336 3.618-3.914 7.125-4.035 0.645-0.022 1.338-0.044 1.993-0.044l17.241 0.003c0.319 0 0.577-0.291 0.577-0.622v-0.53c0-0.331-0.259-0.599-0.577-0.599l-17.266-0.003c-1.272-0.017-2.502 0.026-3.86 0.062-6.967 0.188-12.284 3.263-12.284 5.894z"></path>
<path d="M119.582 14.060c0 3.143 3.088 5.395 12.21 5.555 1.043 0.018 2.746 0.066 3.837 0.066l16.581 0.001c0.599 0 1.084-0.459 1.084-1.026v-4.116c0-0.567-0.486-1.026-1.084-1.026l-15.716-0.001c-0.316 0-0.574 0.265-0.574 0.591v0.423c0 0.326 0.257 0.591 0.574 0.591l9.939 0.009c0.318 0 0.575 0.265 0.575 0.591v2.171c0 0.326-0.257 0.591-0.575 0.591l-10.75 0.042c-0.451 0-1.26-0.041-1.465-0.044-4.761-0.074-7.715-2.663-7.715-4.553 0-2.348 3.671-3.967 7.158-4.086 0.641-0.021 1.33-0.044 1.981-0.044l17.151 0.003c0.317 0 0.574-0.276 0.574-0.603v-0.433c0-0.326-0.257-0.592-0.574-0.592l-17.164-0.003c-1.265-0.019-2.477 0.031-3.837 0.067-6.942 0.184-12.21 3.29-12.21 5.827z"></path>
<path d="M153.221 8.804c0-0.322-0.256-0.583-0.571-0.583l-17.062-0.003c-1.258-0.019-2.452 0.037-3.815 0.072-6.918 0.18-12.135 3.317-12.135 5.761 0 3.1 3.068 5.297 12.135 5.467 1.056 0.019 2.691 0.072 3.815 0.072l16.483 0.001c0.595 0 1.077-0.453 1.077-1.013v-4.008c0-0.558-0.482-1.011-1.077-1.011l-15.543-0.001c-0.315 0-0.571 0.261-0.571 0.583v0.328c0 0.322 0.256 0.583 0.571 0.583l9.936 0.009c0.316 0 0.572 0.261 0.572 0.583v2.285c0 0.322-0.256 0.583-0.572 0.583l-10.831 0.044c-0.416 0-1.241-0.041-1.412-0.043-4.847-0.050-7.795-2.745-7.795-4.609 0-2.36 3.725-4.021 7.191-4.139 0.638-0.021 1.322-0.043 1.969-0.043l17.062 0.003c0.315 0 0.571-0.261 0.571-0.583v-0.338z"></path>
<path d="M131.81 8.289c-6.918 0.181-12.157 2.932-12.157 6.165v0l6.805-0.023c0 0 0.007 0 0.007-0.236v0c0-2.585 3.641-4.275 7.105-4.392v0c0.638-0.023 1.408-0.029 2.054-0.029v0l17.529 0.005c0.315 0 0.497-0.365 0.688-0.979v0l0.069-0.214c0-0.322-0.25-0.366-0.566-0.366v0l-17.72-0.002c-0.179-0.003-0.358-0.004-0.535-0.004v0c-1.066 0-2.111 0.046-3.279 0.076z"></path>
<path d="M136.067 14.491c-0.008 0.287-0.008 0.319-0.016 0.371v0c-0.031 0.218 0.010 0.431 0.563 0.431v0h9.62c0.332 0 0.883 0.168 0.883 0.552v0c0 0 0.022 2.096 0 2.459v0c-0.022 0.362 0.044 0.725-0.927 0.725v0c-0.97 0-14.95 1.029-17.146-1.223v0c-1.013-1.040-2.449-2.355-2.581-3.579v0h-6.797c0 5.525 9.313 5.594 11.167 5.594v0c1.853 0 20.234 0.135 20.963 0.135v0c0.728 0 1.39-0.226 1.39-1.074v0c0 0 0.001-3.907 0-4.157v0c-0.001-0.226-0.001-0.186-0.265-0.543v0l-15.75-0.043c-0.083 0-1.1 0.216-1.103 0.352z"></path>
<path d="M147.727 18.789c0 0.457-0.086 0.564-0.777 0.564-1.269 0-10.41-0.011-12.381-0.011s-5.114-0.347-6.742-2.071c-0.628-0.664 0.016-0.696 0.719-0.186 0.705 0.51 2.771 1.557 5.982 1.557 4.307 0 8.947-0.012 11.595-0.012 0.493 0 0.649-0.307 0.78-0.437 0.129-0.132 0.824-0.252 0.824 0.596z"></path>
<path d="M153.139 14.517c0-0.39-0.301-0.802-0.751-0.802l-15.944-0.001c-0.315 0-0.386 0.444-0.386 0.79l17.081 0.014z"></path>
<path d="M161.16 20.763c-0.629 0-1.139-0.523-1.139-1.169v-10.882c0-0.645 0.511-1.168 1.139-1.168l30.719-0.001c0.249 0 0.45 0.208 0.45 0.462v2.103c0 0.256-0.201 0.463-0.45 0.463l-22.567 0.013c-0.471 0-0.853 0.392-0.853 0.875v0.472c0 0.484 0.382 0.876 0.853 0.876l21.445 0.009c0.249 0 0.451 0.207 0.451 0.463v1.798c0 0.255-0.202 0.463-0.451 0.463l-21.488 0.002c-0.471 0-0.853 0.392-0.853 0.875v0.506c0 0.484 0.381 0.875 0.853 0.875l23.018-0.009c0.249 0 0.451 0.207 0.451 0.462v2.046c0 0.255-0.202 0.462-0.451 0.462l-31.126 0.005z"></path>
<path d="M161.237 20.68c-0.625 0-1.132-0.521-1.132-1.164v-10.745c0-0.642 0.508-1.163 1.132-1.163h30.532c0.247 0 0.447 0.206 0.447 0.46v1.97c0 0.255-0.2 0.46-0.447 0.46l-22.581 0.012c-0.469 0-0.848 0.39-0.848 0.872v0.601c0 0.482 0.38 0.872 0.848 0.872l21.466 0.008c0.247 0 0.447 0.206 0.447 0.46v1.679c0 0.255-0.2 0.461-0.447 0.461l-21.51 0.002c-0.468 0-0.847 0.39-0.847 0.872l-0.005 0.64c0 0.482 0.384 0.869 0.852 0.869l23.029-0.008c0.247 0 0.447 0.206 0.447 0.46v1.916c0 0.254-0.2 0.46-0.447 0.46l-30.937 0.005z"></path>
<path d="M161.313 20.597c-0.621 0-1.125-0.519-1.125-1.159v-10.608c0-0.64 0.504-1.159 1.125-1.159l30.345 0.001c0.246 0 0.445 0.206 0.445 0.459v1.837c0 0.254-0.199 0.459-0.445 0.459l-22.594 0.010c-0.465 0-0.843 0.389-0.843 0.869v0.729c0 0.48 0.378 0.869 0.843 0.869l21.486 0.007c0.246 0 0.444 0.205 0.444 0.459v1.561c0 0.253-0.199 0.459-0.444 0.459l-21.529 0.002c-0.466 0-0.843 0.389-0.843 0.868l-0.009 0.777c0 0.48 0.386 0.861 0.852 0.861l23.040-0.007c0.246 0 0.445 0.206 0.445 0.459v1.786c0 0.253-0.199 0.458-0.445 0.458l-30.748 0.005z"></path>
<path d="M161.39 20.514c-0.617 0-1.118-0.516-1.118-1.155v-10.471c0-0.637 0.501-1.154 1.118-1.154l30.158 0.002c0.244 0 0.442 0.205 0.442 0.457v1.703c0 0.252-0.197 0.457-0.442 0.457l-22.608 0.009c-0.463 0-0.838 0.388-0.838 0.865v0.857c0 0.478 0.375 0.865 0.838 0.865l21.507 0.005c0.243 0 0.441 0.204 0.441 0.457v1.443c0 0.253-0.198 0.458-0.441 0.458l-21.55 0.002c-0.462 0-0.837 0.388-0.837 0.865l-0.014 0.912c0 0.478 0.389 0.855 0.852 0.855l23.051-0.006c0.244 0 0.442 0.205 0.442 0.458v1.656c0 0.252-0.198 0.456-0.442 0.456l-30.559 0.005z"></path>
<path d="M161.467 20.431c-0.613 0-1.111-0.514-1.111-1.15v-10.334c0-0.635 0.498-1.15 1.111-1.15l29.972 0.003c0.243 0 0.439 0.204 0.439 0.455v1.57c0 0.252-0.196 0.456-0.439 0.456l-22.622 0.007c-0.459 0-0.832 0.386-0.832 0.863v0.985c0 0.476 0.373 0.861 0.832 0.861l21.528 0.005c0.243 0 0.439 0.203 0.439 0.455v1.324c0 0.252-0.197 0.456-0.439 0.456l-21.57 0.002c-0.46 0-0.832 0.386-0.832 0.861l-0.019 1.047c0 0.476 0.391 0.847 0.851 0.847l23.062-0.005c0.243 0 0.44 0.204 0.44 0.456v1.526c0 0.252-0.197 0.455-0.44 0.455l-30.369 0.004z"></path>
<path d="M161.544 20.348c-0.609 0-1.104-0.512-1.104-1.146v-10.196c0-0.632 0.495-1.145 1.104-1.145l29.785 0.005c0.241 0 0.436 0.204 0.436 0.454v1.436c0 0.251-0.195 0.454-0.436 0.454l-22.636 0.006c-0.457 0-0.828 0.385-0.828 0.859v1.113c0 0.474 0.371 0.859 0.828 0.859l21.548 0.003c0.241 0 0.436 0.202 0.436 0.453v1.206c0 0.251-0.195 0.454-0.436 0.454l-21.591 0.002c-0.457 0-0.827 0.385-0.827 0.858l-0.023 1.183c0 0.474 0.393 0.84 0.85 0.84l23.073-0.003c0.241 0 0.437 0.204 0.437 0.454v1.395c0 0.25-0.196 0.453-0.437 0.453l-30.18 0.004z"></path>
<path d="M161.621 20.265c-0.606 0-1.097-0.511-1.097-1.141v-10.059c0-0.63 0.491-1.141 1.097-1.141l29.597 0.007c0.24 0 0.434 0.202 0.434 0.451v1.303c0 0.249-0.194 0.452-0.434 0.452l-22.649 0.005c-0.454 0-0.822 0.383-0.822 0.855v1.242c0 0.472 0.368 0.855 0.822 0.855l21.569 0.001c0.239 0 0.433 0.202 0.433 0.451v1.088c0 0.249-0.194 0.452-0.433 0.452l-21.611 0.002c-0.454 0-0.823 0.383-0.823 0.855l-0.028 1.318c0 0.472 0.396 0.833 0.85 0.833l23.084-0.001c0.239 0 0.435 0.202 0.435 0.451v1.265c0 0.25-0.195 0.452-0.435 0.452l-29.99 0.004z"></path>
<path d="M161.697 20.182c-0.602 0-1.090-0.508-1.090-1.137v-9.921c0-0.628 0.488-1.136 1.090-1.136l29.41 0.007c0.239 0 0.431 0.202 0.431 0.451v1.169c0 0.249-0.192 0.45-0.431 0.45l-22.662 0.003c-0.451 0-0.817 0.382-0.817 0.853v1.37c0 0.47 0.365 0.851 0.817 0.851l21.589 0.001c0.237 0 0.431 0.201 0.431 0.449v0.97c0 0.249-0.194 0.45-0.431 0.45l-21.631 0.003c-0.451 0-0.817 0.381-0.817 0.851l-0.032 1.454c0 0.47 0.398 0.827 0.849 0.827l23.095-0.001c0.238 0 0.431 0.201 0.431 0.45v1.135c0 0.248-0.193 0.45-0.431 0.45l-29.802 0.004z"></path>
<path d="M161.774 20.099c-0.598 0-1.083-0.506-1.083-1.133v-9.784c0-0.626 0.485-1.132 1.083-1.132l29.223 0.008c0.237 0 0.428 0.201 0.428 0.449v1.036c0 0.248-0.191 0.448-0.428 0.448l-22.676 0.002c-0.448 0-0.812 0.38-0.812 0.849v1.498c0 0.468 0.363 0.848 0.812 0.848l21.61-0.001c0.235 0 0.428 0.201 0.428 0.448v0.852c0 0.248-0.193 0.448-0.428 0.448l-21.651 0.003c-0.449 0-0.812 0.38-0.812 0.848l-0.037 1.589c0 0.468 0.4 0.82 0.849 0.82l23.106 0.001c0.236 0 0.429 0.2 0.429 0.449v1.004c0 0.247-0.193 0.448-0.429 0.448l-29.612 0.004z"></path>
<path d="M161.851 20.016c-0.594 0-1.077-0.504-1.077-1.128v-9.647c0-0.622 0.482-1.127 1.077-1.127l29.037 0.010c0.235 0 0.426 0.2 0.426 0.446v0.903c0 0.246-0.191 0.447-0.426 0.447l-22.69 0.001c-0.446 0-0.806 0.378-0.806 0.845v1.626c0 0.467 0.361 0.845 0.806 0.845l21.631-0.003c0.233 0 0.425 0.2 0.425 0.446v0.734c0 0.247-0.191 0.447-0.425 0.447l-21.672 0.002c-0.446 0-0.806 0.378-0.806 0.845l-0.043 1.725c0 0.466 0.404 0.813 0.849 0.813l23.117 0.002c0.234 0 0.425 0.2 0.425 0.447v0.874c0 0.246-0.191 0.446-0.425 0.446l-29.423 0.004z"></path>
<path d="M161.928 19.933c-0.59 0-1.069-0.502-1.069-1.123v-9.51c0-0.62 0.478-1.123 1.069-1.123l28.85 0.011c0.234 0 0.424 0.199 0.424 0.445v0.769c0 0.246-0.189 0.445-0.424 0.445l-22.704-0.001c-0.442 0-0.801 0.377-0.801 0.842v1.754c0 0.465 0.358 0.842 0.801 0.842l21.651-0.004c0.233 0 0.423 0.199 0.423 0.445v0.615c0 0.246-0.19 0.445-0.423 0.445l-21.692 0.003c-0.442 0-0.801 0.376-0.801 0.841l-0.046 1.859c0 0.465 0.405 0.806 0.847 0.806l23.128 0.003c0.233 0 0.424 0.199 0.424 0.445v0.744c0 0.246-0.19 0.445-0.424 0.445l-29.233 0.003z"></path>
<path d="M162.005 19.851c-0.587 0-1.062-0.5-1.062-1.119v-9.373c0-0.618 0.476-1.118 1.062-1.118l28.663 0.012c0.233 0 0.42 0.198 0.42 0.443v0.636c0 0.244-0.188 0.443-0.42 0.443l-22.718-0.002c-0.439 0-0.795 0.376-0.795 0.839v1.883c0 0.463 0.356 0.838 0.795 0.838l21.673-0.005c0.23 0 0.419 0.198 0.419 0.442v0.497c0 0.246-0.189 0.443-0.419 0.443l-21.713 0.003c-0.44 0-0.796 0.375-0.796 0.837l-0.051 1.995c0 0.463 0.407 0.8 0.847 0.8l23.139 0.004c0.232 0 0.42 0.198 0.42 0.443v0.614c0 0.244-0.189 0.443-0.42 0.443l-29.044 0.003z"></path>
<path d="M162.081 19.768c-0.583 0-1.055-0.498-1.055-1.115v-9.235c0-0.616 0.473-1.114 1.055-1.114l28.476 0.013c0.232 0 0.418 0.198 0.418 0.441v0.502c0 0.244-0.187 0.441-0.418 0.441l-22.731-0.004c-0.436 0-0.791 0.374-0.791 0.835v2.011c0 0.461 0.354 0.835 0.791 0.835l21.693-0.006c0.229 0 0.416 0.197 0.416 0.441v0.379c0 0.244-0.188 0.441-0.416 0.441l-21.733 0.003c-0.437 0-0.791 0.374-0.791 0.834l-0.056 2.131c0 0.461 0.409 0.792 0.846 0.792l23.15 0.006c0.23 0 0.418 0.197 0.418 0.441v0.483c0 0.244-0.188 0.441-0.418 0.441l-28.855 0.003z"></path>
<path d="M162.158 19.685c-0.579 0-1.048-0.496-1.048-1.11v-9.099c0-0.613 0.469-1.109 1.048-1.109l28.289 0.015c0.23 0 0.415 0.197 0.415 0.439v0.37c0 0.242-0.186 0.439-0.415 0.439l-22.745-0.005c-0.434 0-0.786 0.372-0.786 0.832v2.139c0 0.46 0.352 0.831 0.786 0.831l21.713-0.007c0.228 0 0.414 0.196 0.414 0.439v0.26c0 0.244-0.186 0.439-0.414 0.439l-21.753 0.003c-0.434 0-0.786 0.372-0.786 0.831l-0.061 2.266c0 0.459 0.413 0.786 0.846 0.786l23.161 0.007c0.229 0 0.415 0.196 0.415 0.439v0.353c0 0.242-0.186 0.439-0.415 0.439l-28.665 0.003z"></path>
<path d="M161.115 9.422l0.315 4.869 6.236 0.535 21.754-0.002c0.229 0 0.358-0.173 0.494-0.439v0l0.113-0.24 0.156-0.464c0.078-0.287-0.186-0.439-0.415-0.439v0l-22.063 0.008c-0.433 0-0.785-0.373-0.785-0.832v0-1.843c0-0.459 0.352-0.83 0.785-0.83v0l22.747 0.004c0.229 0 0.343-0.206 0.475-0.445v0l0.287-0.681c0.102-0.293-0.185-0.44-0.413-0.44v0l-28.639-0.015c-0.577 0-1.047 0.644-1.047 1.255z"></path>
<path d="M161.43 14.29c0 0-0.288 2.999-0.337 4.192v0c-0.048 1.192 0.436 1.241 1.549 1.241v0h27.779c0.58 0 0.558-0.038 0.77-0.399v0c0.199-0.335 0.392-0.862 0.305-0.953v0c0 0-22.271 0.309-23.095 0.309v0c-0.821 0-1.574-0.148-1.574-0.82v0-2.266c0-0.502 0.074-0.739 0.994-0.739v0h21.201c0.629 0 0.719-0.050 0.948-0.565v0h-28.54z"></path>
<path d="M191.175 18.212l-22.849-0.008c-0.486-0.005-0.64-0.322-0.769-0.452-0.131-0.131-0.824-0.252-0.824 0.595 0 0.457 0.087 0.794 0.777 0.794 0.687 0 3.687-0.004 6.603-0.006 6.696-0.004 16.030-0.006 16.206-0.006 0.274 0 0.7 0.031 0.821-0.094s0.16-0.218 0.346-0.478c0.126-0.246-0.082-0.344-0.311-0.344z"></path>
</symbol>

<symbol id="icon-mail" viewBox="0 0 40 32">
<path d="M0 0v32h40v-32h-40zM15.962 19.4l4.038 3.134 4.038-3.134 10.762 8.6h-29.6l10.762-8.6zM4 23.838v-13.75l8.714 6.778-8.714 6.972zM27.286 16.866l8.714-6.776v13.748l-8.714-6.972zM36 4v1.022l-16 12.444-16-12.444v-1.022h32z"></path>
</symbol>

<symbol id="icon-tel" viewBox="0 0 32 32">
<path d="M30.825 21.075l-0.055-1.203-9.43-1.347-1.913 3.744c-2.020-1.137-3.866-2.558-5.482-4.218-1.679-1.614-3.11-3.468-4.246-5.501l4.073-2.036-4.073-9.484-1.105 0.16c-1.872 0.258-3.607 1.127-4.934 2.473-4.615 4.609-2.807 13.647 4.113 20.566 4.337 4.336 9.503 6.665 13.892 6.663 1.227 0.043 2.45-0.161 3.597-0.599s2.194-1.101 3.081-1.951c0.905-0.966 1.595-2.114 2.023-3.367s0.584-2.582 0.459-3.9zM26.286 26.285c-3.345 3.345-10.881 1.455-16.457-4.113s-7.459-13.111-4.113-16.457c0.624-0.632 1.387-1.109 2.228-1.392l2.065 4.819-1.61 0.804c-0.349 0.175-0.659 0.417-0.913 0.714s-0.445 0.641-0.564 1.012c-0.118 0.372-0.161 0.763-0.126 1.152s0.148 0.766 0.331 1.11c1.273 2.281 2.874 4.363 4.752 6.179 1.817 1.857 3.89 3.443 6.157 4.711 0.349 0.19 0.733 0.308 1.129 0.347s0.795-0.001 1.175-0.118c0.372-0.116 0.716-0.305 1.012-0.558s0.538-0.562 0.711-0.911l0.941-1.882 4.897 0.7c-0.056 1.446-0.629 2.825-1.616 3.884z"></path>
</symbol>

<symbol id="icon-facebook" viewBox="0 0 32 32">
<path d="M21.329 5.313h2.921v-5.088c-0.504-0.069-2.237-0.225-4.256-0.225-4.212 0-7.097 2.649-7.097 7.519v4.481h-4.648v5.688h4.648v14.312h5.699v-14.311h4.46l0.708-5.688h-5.169v-3.919c0.001-1.644 0.444-2.769 2.735-2.769z"></path>
</symbol>

<symbol id="icon-telegram" viewBox="0 0 32 32">
<path d="M16 2.667c-7.364 0-13.333 5.97-13.333 13.333s5.97 13.333 13.333 13.333v0c7.364 0 13.333-5.97 13.333-13.333s-5.97-13.333-13.333-13.333v0z"></path>
<path fill="#fff" d="M22.633 10l-2.497 12.751c0 0-0.107 0.583-0.83 0.583-0.384 0-0.582-0.183-0.582-0.183l-5.409-4.489-2.647-1.334-3.397-0.903c0 0-0.605-0.175-0.605-0.675 0-0.417 0.622-0.615 0.622-0.615l14.211-5.645c-0.001-0.001 0.434-0.157 0.751-0.156 0.195 0 0.417 0.083 0.417 0.333 0 0.167-0.033 0.333-0.033 0.333z"></path>
<path d="M15.333 20.337l-2.284 2.249c0 0-0.099 0.077-0.232 0.080-0.046 0.001-0.095-0.006-0.146-0.029l0.643-3.977 2.019 1.676z"></path>
<path d="M19.931 12.131c-0.113-0.147-0.321-0.173-0.467-0.062l-8.797 5.265c0 0 1.404 3.928 1.618 4.608s0.387 0.697 0.387 0.697l0.643-3.977 6.555-6.064c0.147-0.111 0.174-0.32 0.063-0.467z"></path>
</symbol>

<symbol id="icon-instagram" viewBox="0 0 32 32">
<path d="M31.969 9.408c-0.075-1.7-0.35-2.869-0.744-3.882-0.406-1.075-1.032-2.038-1.851-2.838-0.8-0.813-1.769-1.444-2.832-1.844-1.019-0.394-2.182-0.669-3.882-0.744-1.713-0.081-2.257-0.1-6.601-0.1s-4.888 0.019-6.595 0.094c-1.7 0.075-2.869 0.35-3.882 0.744-1.075 0.406-2.038 1.031-2.838 1.85-0.813 0.8-1.444 1.769-1.844 2.832-0.394 1.019-0.669 2.182-0.744 3.882-0.081 1.713-0.1 2.257-0.1 6.601s0.019 4.888 0.094 6.595c0.075 1.7 0.35 2.869 0.744 3.882 0.406 1.075 1.038 2.038 1.85 2.838 0.8 0.813 1.769 1.444 2.832 1.844 1.019 0.394 2.182 0.669 3.882 0.744 1.706 0.075 2.25 0.094 6.595 0.094s4.888-0.019 6.595-0.094c1.7-0.075 2.869-0.35 3.882-0.744 2.151-0.832 3.851-2.532 4.682-4.682 0.394-1.019 0.669-2.182 0.744-3.882 0.075-1.707 0.094-2.251 0.094-6.595s-0.006-4.888-0.081-6.595zM29.087 22.473c-0.069 1.563-0.331 2.407-0.55 2.969-0.538 1.394-1.644 2.5-3.038 3.038-0.563 0.219-1.413 0.481-2.969 0.55-1.688 0.075-2.194 0.094-6.464 0.094s-4.782-0.019-6.464-0.094c-1.563-0.069-2.407-0.331-2.969-0.55-0.694-0.256-1.325-0.663-1.838-1.194-0.531-0.519-0.938-1.144-1.194-1.838-0.219-0.563-0.481-1.413-0.55-2.969-0.075-1.688-0.094-2.194-0.094-6.464s0.019-4.782 0.094-6.464c0.069-1.563 0.331-2.407 0.55-2.969 0.256-0.694 0.663-1.325 1.2-1.838 0.519-0.531 1.144-0.938 1.838-1.194 0.563-0.219 1.413-0.481 2.969-0.55 1.688-0.075 2.194-0.094 6.464-0.094 4.276 0 4.782 0.019 6.464 0.094 1.563 0.069 2.407 0.331 2.969 0.55 0.694 0.256 1.325 0.662 1.838 1.194 0.531 0.519 0.938 1.144 1.194 1.838 0.219 0.563 0.481 1.413 0.55 2.969 0.075 1.688 0.094 2.194 0.094 6.464s-0.019 4.77-0.094 6.458z"></path>
<path d="M16.059 7.783c-4.538 0-8.22 3.682-8.22 8.22s3.682 8.22 8.22 8.22c4.539 0 8.22-3.682 8.22-8.22s-3.682-8.22-8.22-8.22zM16.059 21.335c-2.944 0-5.332-2.388-5.332-5.332s2.388-5.332 5.332-5.332c2.944 0 5.332 2.388 5.332 5.332s-2.388 5.332-5.332 5.332z"></path>
<path d="M26.524 7.458c0 1.060-0.859 1.919-1.919 1.919s-1.919-0.859-1.919-1.919c0-1.060 0.859-1.919 1.919-1.919s1.919 0.859 1.919 1.919z"></path>
</symbol>

<symbol id="icon-viber" viewBox="0 0 32 32">
<path d="M16 3.333c-1.759 0-7.113 0-10.073 2.703-1.763 1.756-2.593 4.293-2.593 7.964v2c0 3.671 0.831 6.208 2.614 7.984 0.888 0.81 2.099 1.457 3.579 1.905l0.474 0.143v3.552c0 0.417 0.121 0.417 0.161 0.417 0.082 0 0.213-0.026 0.463-0.247 0.060-0.059 0.5-0.535 2.64-2.933l0.216-0.242 0.323 0.021c0.717 0.045 1.456 0.068 2.197 0.068 1.759 0 7.113 0 10.073-2.703 1.762-1.756 2.593-4.293 2.593-7.963v-2c0-3.671-0.831-6.208-2.614-7.984-2.939-2.683-8.293-2.683-10.053-2.683z"></path>
<path fill="#fff" d="M22.301 19.236c-0.741-0.624-1.083-0.813-2.105-1.427-0.426-0.255-1.075-0.476-1.416-0.476-0.233 0-0.511 0.178-0.682 0.349-0.437 0.437-0.581 0.985-1.347 0.985-0.75 0-2.060-0.763-3-1.75-0.987-0.94-1.75-2.25-1.75-3 0-0.767 0.537-0.92 0.975-1.358 0.171-0.17 0.359-0.449 0.359-0.681 0-0.341-0.221-0.98-0.476-1.406-0.614-1.023-0.802-1.365-1.427-2.105-0.211-0.251-0.452-0.365-0.704-0.366-0.426-0.001-0.985 0.211-1.364 0.493-0.569 0.425-1.165 1.003-1.324 1.723-0.021 0.098-0.034 0.197-0.038 0.295-0.031 0.75 0.264 1.511 0.582 2.156 0.749 1.519 1.739 2.99 2.817 4.303 0.345 0.42 0.72 0.811 1.109 1.188 0.377 0.388 0.768 0.763 1.188 1.109 1.313 1.078 2.784 2.069 4.303 2.817 0.639 0.315 1.391 0.604 2.133 0.583 0.106-0.003 0.212-0.015 0.318-0.039 0.72-0.159 1.298-0.755 1.723-1.324 0.282-0.379 0.493-0.937 0.493-1.364-0.001-0.252-0.115-0.493-0.366-0.704zM22.667 16c-0.368 0-0.667-0.299-0.667-0.667v-0.667c0-3.308-2.692-6-6-6-0.368 0-0.667-0.299-0.667-0.667s0.299-0.667 0.667-0.667c4.043 0 7.333 3.29 7.333 7.333v0.667c0 0.368-0.299 0.667-0.667 0.667zM18.572 14.667c-0.296 0-0.567-0.199-0.645-0.499-0.183-0.701-0.729-1.248-1.427-1.428-0.357-0.093-0.571-0.456-0.479-0.813s0.455-0.57 0.813-0.479c1.165 0.302 2.079 1.215 2.383 2.383 0.093 0.357-0.121 0.72-0.477 0.813-0.057 0.015-0.113 0.022-0.169 0.022z"></path>
<path d="M20.667 15.333c-0.368 0-0.667-0.299-0.667-0.667 0-2.125-1.663-3.879-3.785-3.991-0.368-0.019-0.65-0.333-0.631-0.701s0.339-0.651 0.701-0.631c2.831 0.149 5.049 2.487 5.049 5.322 0 0.368-0.299 0.667-0.667 0.667z"></path>
<path d="M16 2.667c-3 0-7.675 0.276-10.523 2.877-2.013 2.005-2.811 4.817-2.811 8.456 0 0.301-0.001 0.637 0.001 1-0.003 0.362-0.001 0.698-0.001 0.999 0 3.639 0.797 6.451 2.811 8.456 1.084 0.99 2.436 1.641 3.856 2.071v3.057c0 1.064 0.699 1.083 0.827 1.083h0.006c0.329-0.001 0.614-0.163 0.899-0.416 0.107-0.095 1.347-1.477 2.695-2.987 0.803 0.051 1.565 0.070 2.239 0.070 0 0 0 0 0 0s0 0 0 0c3 0 7.674-0.277 10.523-2.878 2.013-2.004 2.811-4.817 2.811-8.456 0-0.301 0.001-0.637-0.001-1 0.003-0.363 0.001-0.698 0.001-1 0-3.639-0.797-6.451-2.811-8.456-2.848-2.601-7.522-2.877-10.522-2.877zM27.333 15.767v0.232c0 3.271-0.697 5.499-2.191 7.008-2.588 2.326-7.518 2.326-9.143 2.326-0.495 0-1.297-0.001-2.245-0.067-0.263 0.296-3.088 3.455-3.088 3.455v-3.909c-1.403-0.337-2.789-0.889-3.809-1.805-1.494-1.509-2.191-3.738-2.191-7.009v-0.232c0-0.234-0.001-0.487 0.001-0.782-0.002-0.267-0.002-0.519-0.001-0.753v-0.232c0-3.271 0.697-5.499 2.191-7.008 2.587-2.326 7.518-2.326 9.143-2.326s6.555 0 9.142 2.326c1.495 1.509 2.191 3.737 2.191 7.008v0.232c0 0.234 0.001 0.487-0.001 0.782 0.002 0.267 0.002 0.519 0.002 0.753z"></path>
</symbol>

<symbol id="icon-search" viewBox="0 0 32 32">
<path d="M23.016 12.235c0-5.954-4.827-10.781-10.781-10.781s-10.781 4.827-10.781 10.781c0 5.954 4.827 10.781 10.781 10.781s10.781-4.827 10.781-10.781zM20.358 21.386c-2.16 1.919-5.005 3.084-8.122 3.084-6.757 0-12.235-5.478-12.235-12.235s5.478-12.235 12.235-12.235c6.757 0 12.235 5.478 12.235 12.235 0 3.117-1.166 5.962-3.084 8.122l10.187 10.187c0.284 0.284 0.284 0.744 0 1.029s-0.745 0.284-1.029 0l-10.187-10.187z"></path>
</symbol>

<symbol id="icon-treaty" viewBox="0 0 23 32">
<path d="M2.909 0h17.044c1.607 0 2.909 1.302 2.909 2.909v25.326c0 1.607-1.302 2.909-2.909 2.909h-17.044c-1.607 0-2.909-1.303-2.909-2.909v-25.326c0-1.607 1.302-2.909 2.909-2.909zM2.909 1.455c-0.803 0-1.455 0.651-1.455 1.455v25.326c0 0.803 0.651 1.455 1.455 1.455h17.044c0.803 0 1.455-0.651 1.455-1.455v-25.326c0-0.803-0.651-1.455-1.455-1.455h-17.044zM2.39 5.219c0-0.402 0.326-0.727 0.727-0.727h4.157c0.402 0 0.727 0.326 0.727 0.727s-0.326 0.727-0.727 0.727h-4.157c-0.402 0-0.727-0.326-0.727-0.727zM3.117 9.198c-0.402 0-0.727 0.326-0.727 0.727s0.326 0.727 0.727 0.727h4.157c0.402 0 0.727-0.326 0.727-0.727s-0.326-0.727-0.727-0.727h-4.157zM2.39 14.631c0-0.402 0.326-0.727 0.727-0.727h4.157c0.402 0 0.727 0.326 0.727 0.727s-0.326 0.727-0.727 0.727h-4.157c-0.402 0-0.727-0.326-0.727-0.727zM3.117 18.61c-0.402 0-0.727 0.326-0.727 0.727s0.326 0.727 0.727 0.727h4.157c0.402 0 0.727-0.326 0.727-0.727s-0.326-0.727-0.727-0.727h-4.157zM2.39 24.043c0-0.402 0.326-0.727 0.727-0.727h4.157c0.402 0 0.727 0.326 0.727 0.727s-0.326 0.727-0.727 0.727h-4.157c-0.402 0-0.727-0.326-0.727-0.727zM9.768 4.492c-0.402 0-0.727 0.326-0.727 0.727s0.326 0.727 0.727 0.727h9.145c0.402 0 0.727-0.326 0.727-0.727s-0.326-0.727-0.727-0.727h-9.145zM9.041 9.925c0-0.402 0.326-0.727 0.727-0.727h9.145c0.402 0 0.727 0.326 0.727 0.727s-0.326 0.727-0.727 0.727h-9.145c-0.402 0-0.727-0.326-0.727-0.727zM9.768 13.904c-0.402 0-0.727 0.326-0.727 0.727s0.326 0.727 0.727 0.727h9.145c0.402 0 0.727-0.326 0.727-0.727s-0.326-0.727-0.727-0.727h-9.145zM9.041 19.337c0-0.402 0.326-0.727 0.727-0.727h9.145c0.402 0 0.727 0.326 0.727 0.727s-0.326 0.727-0.727 0.727h-9.145c-0.402 0-0.727-0.326-0.727-0.727zM9.768 23.316c-0.402 0-0.727 0.326-0.727 0.727s0.326 0.727 0.727 0.727h9.145c0.402 0 0.727-0.326 0.727-0.727s-0.326-0.727-0.727-0.727h-9.145z"></path>
</symbol>

<symbol id="icon-true" viewBox="0 0 32 32">
<path d="M15.973 31.947c8.822 0 15.973-7.151 15.973-15.973s-7.151-15.973-15.973-15.973c-8.822 0-15.973 7.152-15.973 15.973s7.152 15.973 15.973 15.973zM30.492 15.973c0 8.018-6.5 14.519-14.519 14.519s-14.519-6.5-14.519-14.519c0-8.019 6.5-14.519 14.519-14.519s14.519 6.5 14.519 14.519zM23.729 11.423c0.294-0.274 0.31-0.734 0.035-1.028s-0.734-0.309-1.028-0.035l-10.376 9.684-3.133-3.133c-0.284-0.284-0.745-0.284-1.029 0s-0.284 0.744 0 1.029l4.127 4.127 11.403-10.643z"></path>
</symbol>

<symbol id="icon-wheel" viewBox="0 0 32 32">
<path d="M30.62 22.51c0.887-1.989 1.38-4.192 1.38-6.51 0-1.871-0.321-3.666-0.911-5.335l0.013-0.015-0.026-0.022c-1.467-4.117-4.573-7.456-8.532-9.233l-0.003-0.029-0.048 0.006c-1.984-0.882-4.181-1.372-6.492-1.372-6.505 0-12.103 3.882-14.604 9.455l-0.051 0.008 0.012 0.079c-0.872 1.975-1.357 4.16-1.357 6.458 0 8.837 7.163 16 16 16 1.87 0 3.666-0.321 5.334-0.911l0.021 0.017 0.029-0.035c4.112-1.469 7.446-4.573 9.221-8.528l0.018-0.002-0.003-0.031zM29.592 21.19c0.616-1.612 0.953-3.361 0.953-5.19 0-1.394-0.196-2.743-0.562-4.019l-3.551 4.223c-0.073 0.087-0.162 0.152-0.258 0.195-0.076 1.981-0.719 3.817-1.77 5.35l5.188-0.56zM29.423 10.387l-3.367 4.005c-0.327-2.064-1.275-3.921-2.645-5.375 0.032-0.099 0.044-0.206 0.031-0.316l-0.686-5.587c2.985 1.568 5.358 4.142 6.668 7.272zM21.203 2.413l0.645 5.251c-1.619-1.138-3.585-1.816-5.707-1.845l-3.287-4.024c1.013-0.223 2.066-0.341 3.146-0.341 1.833 0 3.587 0.339 5.203 0.958zM11.324 2.222l3.044 3.726c-1.869 0.301-3.569 1.111-4.951 2.284l-6.273 0.957c1.726-3.25 4.648-5.768 8.18-6.966zM2.423 10.77l5.388-0.822c-1.176 1.588-1.901 3.531-1.985 5.638-0.090 0.043-0.172 0.106-0.241 0.187l-3.572 4.236c-0.364-1.274-0.56-2.619-0.56-4.009 0-1.844 0.343-3.607 0.969-5.23zM8.604 22.998c-1.379-1.457-2.332-3.321-2.66-5.393l-3.371 3.998c1.209 2.894 3.326 5.313 5.995 6.903l0.010-5.315c0-0.067 0.009-0.132 0.026-0.193zM10.021 29.264l0.009-5.015c1.56 1.131 3.453 1.83 5.504 1.922 0.043 0.12 0.117 0.23 0.223 0.317l4.243 3.5c-1.271 0.363-2.613 0.557-4 0.557-2.131 0-4.155-0.458-5.979-1.282zM21.605 29.426l-4.073-3.359c2.141-0.323 4.063-1.313 5.548-2.75 0.076 0.017 0.155 0.022 0.237 0.013l5.583-0.603c-1.568 3-4.152 5.385-7.295 6.699zM16 24.727c4.82 0 8.727-3.907 8.727-8.727s-3.907-8.727-8.727-8.727c-4.82 0-8.727 3.907-8.727 8.727s3.907 8.727 8.727 8.727zM16 20.364c2.41 0 4.364-1.954 4.364-4.364s-1.954-4.364-4.364-4.364c-2.41 0-4.364 1.954-4.364 4.364s1.954 4.364 4.364 4.364zM18.909 16c0 1.607-1.302 2.909-2.909 2.909s-2.909-1.302-2.909-2.909c0-1.607 1.302-2.909 2.909-2.909s2.909 1.302 2.909 2.909z"></path>
</symbol>
</defs>
</svg>
