<!-- Generated by IcoMoon.io -->
<svg version="1.1" xmlns="http://www.w3.org/2000/svg" width="1024" height="1024" viewBox="0 0 1024 1024">
<title></title>
<g id="icomoon-ignore">
</g>
<path fill="#29b6f6" d="M512 85.333c-235.641 0-426.667 191.025-426.667 426.667s191.025 426.667 426.667 426.667v0c235.641 0 426.667-191.025 426.667-426.667s-191.025-426.667-426.667-426.667v0z"></path>
<path fill="#fff" d="M724.267 320l-79.915 408.021c0 0-3.435 18.645-26.56 18.645-12.288 0-18.624-5.845-18.624-5.845l-173.099-143.637-84.693-42.688-108.693-28.907c0 0-19.349-5.589-19.349-21.589 0-13.333 19.904-19.691 19.904-19.691l454.741-180.651c-0.021-0.021 13.888-5.013 24.021-4.992 6.229 0 13.333 2.667 13.333 10.667 0 5.333-1.067 10.667-1.067 10.667z"></path>
<path fill="#b0bec5" d="M490.667 650.773l-73.088 71.979c0 0-3.179 2.453-7.424 2.56-1.472 0.043-3.051-0.192-4.672-0.917l20.565-127.253 64.619 53.632z"></path>
<path fill="#cfd8dc" d="M637.803 388.181c-3.605-4.693-10.261-5.547-14.955-1.984l-281.515 168.469c0 0 44.928 125.696 51.776 147.456 6.869 21.781 12.373 22.293 12.373 22.293l20.565-127.253 209.749-194.048c4.693-3.563 5.568-10.24 2.005-14.933z"></path>
</svg>
